<svg version="1.1" xmlns="http://www.w3.org/2000/svg" viewBox="0 0 811.4453125 420.1171875" width="1622.890625" height="840.234375">
  <!-- svg-source:excalidraw -->
  
  <defs>
    <style class="style-fonts">
      @font-face {
        font-family: "Virgil";
        src: url("https://excalidraw.com/Virgil.woff2");
      }
      @font-face {
        font-family: "Cascadia";
        src: url("https://excalidraw.com/Cascadia.woff2");
      }
    </style>
  </defs>
  <rect x="0" y="0" width="811.4453125" height="420.1171875" fill="#ffffff"></rect><g stroke-linecap="round" transform="translate(284.13671875 10) rotate(0 115.650390625 36.556640625)"><path d="M18.28 0 M18.28 0 C88.72 1.17, 160.12 1.41, 213.02 0 M18.28 0 C62.42 0.16, 107.2 -0.46, 213.02 0 M213.02 0 C224.66 1.83, 230.07 5.61, 231.3 18.28 M213.02 0 C224.41 1.58, 232.98 6.47, 231.3 18.28 M231.3 18.28 C230.2 27.81, 232.76 40.42, 231.3 54.83 M231.3 18.28 C230.34 28.21, 231.93 36.92, 231.3 54.83 M231.3 54.83 C231.98 65.66, 226.46 71.72, 213.02 73.11 M231.3 54.83 C229.02 67.69, 226.73 72.69, 213.02 73.11 M213.02 73.11 C144.65 72.39, 79.15 71.2, 18.28 73.11 M213.02 73.11 C151.64 71.74, 90.44 71.98, 18.28 73.11 M18.28 73.11 C5.37 72.12, -1.95 66.39, 0 54.83 M18.28 73.11 C5.77 72.99, 1.17 67.39, 0 54.83 M0 54.83 C0.6 42.32, -0.17 26.11, 0 18.28 M0 54.83 C0.7 41.11, 0.17 26.25, 0 18.28 M0 18.28 C-0.79 7.44, 6.37 -1.57, 18.28 0 M0 18.28 C1.71 6.42, 6.58 -0.08, 18.28 0" stroke="#1e1e1e" stroke-width="1" fill="none"></path></g><g transform="translate(331.84716796875 34.056640625) rotate(0 67.93994140625 12.5)"><text x="67.93994140625" y="0" font-family="Virgil, Segoe UI Emoji" font-size="20px" fill="#1e1e1e" text-anchor="middle" style="white-space: pre;" direction="ltr" dominant-baseline="text-before-edge">k/apimachinery</text></g><g stroke-linecap="round" transform="translate(562.83984375 121.57421875) rotate(0 115.650390625 36.556640625)"><path d="M18.28 0 M18.28 0 C72.32 -0.1, 125.78 -0.29, 213.02 0 M18.28 0 C66.86 0.56, 116.23 0.78, 213.02 0 M213.02 0 C226.67 -0.07, 230.52 6.68, 231.3 18.28 M213.02 0 C226.5 -0.21, 229.62 8.22, 231.3 18.28 M231.3 18.28 C232.29 32.57, 231.27 44.39, 231.3 54.83 M231.3 18.28 C232.1 31.86, 231.56 45.11, 231.3 54.83 M231.3 54.83 C230.02 68.61, 225.24 74.86, 213.02 73.11 M231.3 54.83 C233.54 67.33, 227.42 74.7, 213.02 73.11 M213.02 73.11 C141.27 71.78, 71.1 71.99, 18.28 73.11 M213.02 73.11 C169.79 73.46, 126.63 73.12, 18.28 73.11 M18.28 73.11 C7.54 73.57, -1.42 65.75, 0 54.83 M18.28 73.11 C8.26 73.19, -0.75 66.19, 0 54.83 M0 54.83 C-0.62 48.43, -2.01 40.51, 0 18.28 M0 54.83 C-1 39.82, 0.46 26.29, 0 18.28 M0 18.28 C1.88 4.73, 7.48 -1.31, 18.28 0 M0 18.28 C0.64 7.95, 6.49 1.56, 18.28 0" stroke="#1e1e1e" stroke-width="1" fill="none"></path></g><g transform="translate(624.6302871704102 145.630859375) rotate(0 53.859947204589844 12.5)"><text x="53.859947204589844" y="0" font-family="Virgil, Segoe UI Emoji" font-size="20px" fill="#1e1e1e" text-anchor="middle" style="white-space: pre;" direction="ltr" dominant-baseline="text-before-edge">k/apiserver</text></g><g stroke-linecap="round" transform="translate(289.4375 122.203125) rotate(0 115.650390625 36.556640625)"><path d="M18.28 0 M18.28 0 C74.08 -0.48, 131.04 -0.67, 213.02 0 M18.28 0 C58.01 -2.07, 98.78 -2.2, 213.02 0 M213.02 0 C225.37 -1.44, 231.54 5.5, 231.3 18.28 M213.02 0 C224.82 1.67, 231.37 3.82, 231.3 18.28 M231.3 18.28 C230.35 25.11, 232.59 34.46, 231.3 54.83 M231.3 18.28 C231.77 28.63, 231.65 38.43, 231.3 54.83 M231.3 54.83 C233.29 66.31, 224.9 73.04, 213.02 73.11 M231.3 54.83 C233.01 65.07, 223.07 73.09, 213.02 73.11 M213.02 73.11 C163.08 71.47, 110.26 72.01, 18.28 73.11 M213.02 73.11 C145.16 72.39, 76.14 72.68, 18.28 73.11 M18.28 73.11 C5.12 73.41, 1.45 66.97, 0 54.83 M18.28 73.11 C3.8 74.29, -0.95 66.79, 0 54.83 M0 54.83 C2.29 43.22, 0.45 33.12, 0 18.28 M0 54.83 C0.52 45.48, -1.13 35.95, 0 18.28 M0 18.28 C-0.64 7.67, 4.88 -1.6, 18.28 0 M0 18.28 C2.15 6.48, 5.34 -1.38, 18.28 0" stroke="#1e1e1e" stroke-width="1" fill="none"></path></g><g transform="translate(381.4279098510742 146.259765625) rotate(0 23.65998077392578 12.5)"><text x="23.65998077392578" y="0" font-family="Virgil, Segoe UI Emoji" font-size="20px" fill="#1e1e1e" text-anchor="middle" style="white-space: pre;" direction="ltr" dominant-baseline="text-before-edge">k/api</text></g><g stroke-linecap="round" transform="translate(285.671875 227.125) rotate(0 115.650390625 36.556640625)"><path d="M2.38 7.36 C2.38 7.36, 2.38 7.36, 2.38 7.36 M2.38 7.36 C2.38 7.36, 2.38 7.36, 2.38 7.36 M1.46 14.52 C3.46 9.78, 8.92 7.45, 9.99 4.71 M1.46 14.52 C3.64 11.78, 5.32 9.46, 9.99 4.71 M1.2 20.91 C7.35 14.18, 14.43 6.42, 18.91 0.54 M1.2 20.91 C6.65 15.68, 11.77 9.85, 18.91 0.54 M0.93 27.31 C6.39 22.12, 12.09 12.88, 23.9 0.9 M0.93 27.31 C8.45 20.22, 13.61 11.82, 23.9 0.9 M1.33 32.96 C11.52 22.61, 22.22 11.78, 29.54 0.5 M1.33 32.96 C11.05 21.9, 18.38 13.15, 29.54 0.5 M1.07 39.35 C7.8 28.29, 18.42 19, 34.53 0.86 M1.07 39.35 C11.92 25.66, 24.61 12.52, 34.53 0.86 M1.46 45 C16.95 28.53, 28.13 11.43, 40.17 0.47 M1.46 45 C11.84 35.49, 20.19 23.9, 40.17 0.47 M1.2 51.39 C11.37 39.68, 19.99 27.6, 45.16 0.83 M1.2 51.39 C9.48 40.68, 19.93 31.02, 45.16 0.83 M0.94 57.79 C16.07 38.96, 33.51 20.14, 50.8 0.43 M0.94 57.79 C10.71 45.26, 22.59 32.38, 50.8 0.43 M3.3 61.17 C13.94 48.52, 24.79 35.54, 55.79 0.79 M3.3 61.17 C15.04 48.41, 25.1 34.78, 55.79 0.79 M5.01 65.3 C23.4 42.61, 45.35 17.82, 61.43 0.4 M5.01 65.3 C26.27 42.8, 47.01 18, 61.43 0.4 M6.06 70.19 C28.21 43.81, 49.34 18.62, 66.42 0.76 M6.06 70.19 C22.77 52.37, 38.29 33.55, 66.42 0.76 M9.73 72.06 C25.54 51.43, 43.54 32.67, 72.06 0.37 M9.73 72.06 C30.45 48.52, 51.68 23.72, 72.06 0.37 M12.75 74.69 C25.98 55.96, 41.75 39.72, 77.05 0.73 M12.75 74.69 C29.95 53.92, 48.65 33.57, 77.05 0.73 M19.05 73.54 C40.18 50.5, 60.42 25.53, 82.69 0.33 M19.05 73.54 C37.48 52.94, 54.45 33.08, 82.69 0.33 M24.04 73.9 C46.38 46.71, 70.1 22.77, 87.68 0.69 M24.04 73.9 C41.54 54.6, 59.94 33.24, 87.68 0.69 M29.68 73.5 C55.7 43.47, 80.64 16.53, 93.32 0.3 M29.68 73.5 C47.45 53.72, 65.63 32.62, 93.32 0.3 M34.67 73.86 C53.01 55.13, 68.76 36.74, 98.31 0.66 M34.67 73.86 C56.27 50.42, 76.88 25.67, 98.31 0.66 M40.31 73.47 C54.02 55.39, 69.7 38, 103.95 0.26 M40.31 73.47 C63.9 45.78, 87.89 19.65, 103.95 0.26 M45.3 73.83 C62.24 52.12, 82.27 29.16, 108.94 0.62 M45.3 73.83 C57.19 59.25, 70.81 44.42, 108.94 0.62 M50.94 73.43 C67.8 51.85, 85.04 30.85, 114.58 0.23 M50.94 73.43 C64.79 55.71, 80.58 38.02, 114.58 0.23 M55.93 73.79 C80.41 46.53, 105.7 17.19, 119.57 0.59 M55.93 73.79 C76.86 49.19, 95.94 25.93, 119.57 0.59 M61.57 73.4 C81.25 47.29, 102.64 23.69, 125.21 0.19 M61.57 73.4 C86.64 46.77, 110.33 18.17, 125.21 0.19 M66.56 73.76 C85.07 52.93, 100.94 33.55, 130.2 0.55 M66.56 73.76 C80.76 59.63, 93.09 42.63, 130.2 0.55 M72.2 73.37 C93.97 48.69, 117.07 25.47, 135.18 0.91 M72.2 73.37 C92.72 48.01, 114.84 22.9, 135.18 0.91 M77.19 73.73 C96.28 49.88, 116.44 29.61, 140.83 0.52 M77.19 73.73 C91.61 57.19, 106.27 40.36, 140.83 0.52 M82.83 73.33 C98.2 57.68, 113.4 41.81, 145.81 0.88 M82.83 73.33 C99.39 54.05, 115.61 36.26, 145.81 0.88 M87.82 73.69 C104.91 56.58, 117.61 36.49, 151.46 0.48 M87.82 73.69 C102.51 56.86, 117 40.74, 151.46 0.48 M92.81 74.05 C109.49 57.85, 123.46 38.06, 156.44 0.84 M92.81 74.05 C112.67 51.35, 133.34 28.04, 156.44 0.84 M98.45 73.66 C112.01 58.7, 127.36 41.06, 162.09 0.45 M98.45 73.66 C118.54 48.96, 140.53 24.85, 162.09 0.45 M103.44 74.02 C130.01 43.37, 154.05 15.73, 167.07 0.81 M103.44 74.02 C122.28 50.77, 142.61 28.29, 167.07 0.81 M109.08 73.62 C134.17 45.31, 160.47 16.83, 172.72 0.41 M109.08 73.62 C131.37 47, 154.56 21.7, 172.72 0.41 M114.07 73.98 C130.11 57.02, 145.82 35.93, 177.7 0.78 M114.07 73.98 C131.57 54.93, 149.03 34.79, 177.7 0.78 M119.71 73.59 C138.13 51.73, 157.57 30, 183.35 0.38 M119.71 73.59 C141.3 48.16, 163.18 22.14, 183.35 0.38 M124.7 73.95 C143.83 51.44, 163.7 27.55, 188.34 0.74 M124.7 73.95 C138.21 57.36, 154.14 42.85, 188.34 0.74 M130.34 73.55 C149.46 52.86, 165.31 31.03, 193.98 0.35 M130.34 73.55 C147.83 51.82, 166.29 33.32, 193.98 0.35 M135.33 73.91 C149.92 55.48, 169.15 36.41, 198.97 0.71 M135.33 73.91 C152.29 54.93, 168.1 34.27, 198.97 0.71 M140.97 73.52 C160.59 51.36, 181.71 25.95, 204.61 0.31 M140.97 73.52 C163.08 48.88, 184.12 24.01, 204.61 0.31 M145.96 73.88 C163.79 53.4, 183.56 30.72, 209.6 0.67 M145.96 73.88 C162.47 55, 178.7 36.39, 209.6 0.67 M151.6 73.48 C172.76 49.38, 197.59 23.82, 214.58 1.03 M151.6 73.48 C167.81 55.87, 182.58 38.25, 214.58 1.03 M156.59 73.84 C168.87 59.56, 181.39 44.58, 218.91 2.15 M156.59 73.84 C178.14 47.82, 200.9 22.5, 218.91 2.15 M162.23 73.45 C181.03 48.98, 203.59 28.01, 223.24 3.26 M162.23 73.45 C184.1 50.52, 203.79 26.38, 223.24 3.26 M167.22 73.81 C184.09 54.63, 203.75 33.47, 226.92 5.13 M167.22 73.81 C183.25 57.06, 197.46 38.03, 226.92 5.13 M172.86 73.41 C184.64 60.43, 199.1 45.09, 228.63 9.26 M172.86 73.41 C188.45 55.16, 205.1 36.98, 228.63 9.26 M177.85 73.77 C187.32 58.47, 199.95 45.42, 230.99 12.64 M177.85 73.77 C197.12 50.95, 216.27 29.08, 230.99 12.64 M183.49 73.38 C203.49 51.32, 221.14 26.9, 233.35 16.02 M183.49 73.38 C201.48 51.2, 220.34 29.51, 233.35 16.02 M188.48 73.74 C198.64 59.81, 211.69 49.52, 233.09 22.42 M188.48 73.74 C197.6 62.21, 207.4 51.58, 233.09 22.42 M194.12 73.35 C209.2 54.07, 224.11 38.98, 233.48 28.06 M194.12 73.35 C202.6 63.21, 209.88 54.53, 233.48 28.06 M199.11 73.71 C208.98 60.6, 221.46 49.04, 233.22 34.46 M199.11 73.71 C208.46 63.56, 217.42 52.03, 233.22 34.46 M204.75 73.31 C215.34 62.26, 227.72 47.58, 233.62 40.1 M204.75 73.31 C212.43 64.85, 218.91 57.72, 233.62 40.1 M209.74 73.67 C216.77 65.23, 226.44 54.13, 233.36 46.5 M209.74 73.67 C217.81 64.09, 225.02 54.29, 233.36 46.5 M214.73 74.03 C218.65 69.77, 225.58 61.91, 231.13 55.16 M214.73 74.03 C221.1 66.57, 228.49 59.58, 231.13 55.16 M221.02 72.88 C223.75 71.77, 224.26 68.6, 230.21 62.32 M221.02 72.88 C223.72 69.71, 225.79 67.13, 230.21 62.32" stroke="#b2f2bb" stroke-width="0.5" fill="none"></path><path d="M18.28 0 M18.28 0 C92.91 -0.48, 169.15 -2.05, 213.02 0 M18.28 0 C73.11 1.22, 127.82 1.81, 213.02 0 M213.02 0 C227.09 0.22, 230.44 7.03, 231.3 18.28 M213.02 0 C224.85 -1.78, 230.68 7.83, 231.3 18.28 M231.3 18.28 C233.02 29.14, 231.73 38.68, 231.3 54.83 M231.3 18.28 C231.14 29.44, 230.82 40.21, 231.3 54.83 M231.3 54.83 C229.49 66.24, 223.32 72.61, 213.02 73.11 M231.3 54.83 C231.18 65.42, 223.32 74.82, 213.02 73.11 M213.02 73.11 C148.39 74.37, 85.62 75.91, 18.28 73.11 M213.02 73.11 C172.17 74.29, 130.37 75.9, 18.28 73.11 M18.28 73.11 C5.89 71.56, 0.44 68.91, 0 54.83 M18.28 73.11 C7.87 72.18, -0.82 67.04, 0 54.83 M0 54.83 C0.67 43.95, -1.37 36.31, 0 18.28 M0 54.83 C0.32 42.42, -0.63 31.68, 0 18.28 M0 18.28 C-1.87 6.51, 4.23 -1.62, 18.28 0 M0 18.28 C-2.21 4.23, 5.98 1.62, 18.28 0" stroke="#1e1e1e" stroke-width="1" fill="none"></path></g><g transform="translate(297.4923629760742 251.181640625) rotate(0 103.82990264892578 12.5)"><text x="103.82990264892578" y="0" font-family="Virgil, Segoe UI Emoji" font-size="20px" fill="#1e1e1e" text-anchor="middle" style="white-space: pre;" direction="ltr" dominant-baseline="text-before-edge">k/generic-controlplane</text></g><g stroke-linecap="round" transform="translate(288.59375 336.1328125) rotate(0 115.650390625 36.556640625)"><path d="M18.28 0 M18.28 0 C61.02 1.29, 104.48 2.56, 213.02 0 M18.28 0 C76.77 -0.33, 135.07 -0.14, 213.02 0 M213.02 0 C223.97 0.16, 231.93 5.1, 231.3 18.28 M213.02 0 C226.66 -0.67, 232.7 6.76, 231.3 18.28 M231.3 18.28 C230.48 25.74, 229.87 35.48, 231.3 54.83 M231.3 18.28 C230.31 29.19, 230.24 41.62, 231.3 54.83 M231.3 54.83 C229.39 67.39, 225.14 73.41, 213.02 73.11 M231.3 54.83 C232.28 67.43, 226.17 71.6, 213.02 73.11 M213.02 73.11 C158.8 73.12, 101.78 74.75, 18.28 73.11 M213.02 73.11 C140.89 70.81, 69.75 72.25, 18.28 73.11 M18.28 73.11 C5.57 71.79, 0.67 66.18, 0 54.83 M18.28 73.11 C8.35 74.34, -0.73 69.25, 0 54.83 M0 54.83 C-0.84 43.81, 1.28 31.29, 0 18.28 M0 54.83 C0.64 44.54, 0.22 34.23, 0 18.28 M0 18.28 C1.03 5.99, 8.01 0.56, 18.28 0 M0 18.28 C1 7.81, 6.62 -2.22, 18.28 0" stroke="#1e1e1e" stroke-width="1" fill="none"></path></g><g transform="translate(335.0442199707031 347.689453125) rotate(0 69.19992065429688 25)"><text x="69.19992065429688" y="0" font-family="Virgil, Segoe UI Emoji" font-size="20px" fill="#1e1e1e" text-anchor="middle" style="white-space: pre;" direction="ltr" dominant-baseline="text-before-edge">k/k </text><text x="69.19992065429688" y="25" font-family="Virgil, Segoe UI Emoji" font-size="20px" fill="#1e1e1e" text-anchor="middle" style="white-space: pre;" direction="ltr" dominant-baseline="text-before-edge">kube-apiserver</text></g><g stroke-linecap="round" transform="translate(560.4453125 336.53515625) rotate(0 120.5 34.5)"><path d="M17.25 0 M17.25 0 C61.07 -0.98, 105.12 -2.17, 223.75 0 M17.25 0 C66.6 0.94, 116.71 0.53, 223.75 0 M223.75 0 C234.92 0.57, 239.51 3.85, 241 17.25 M223.75 0 C236.12 1.94, 242.54 5, 241 17.25 M241 17.25 C241.68 28.94, 240.89 39.25, 241 51.75 M241 17.25 C241.29 27.48, 241.68 37.95, 241 51.75 M241 51.75 C239.32 64.43, 235.12 70.73, 223.75 69 M241 51.75 C239.81 64.26, 233.83 67.3, 223.75 69 M223.75 69 C156.98 70.87, 87.81 69.82, 17.25 69 M223.75 69 C159.79 69.65, 96.15 68.5, 17.25 69 M17.25 69 C6.15 67.52, 0.32 61.36, 0 51.75 M17.25 69 C6.23 69.45, 0.57 62.9, 0 51.75 M0 51.75 C1.8 36.81, -0.74 26.22, 0 17.25 M0 51.75 C1.1 42.34, 1.18 32.68, 0 17.25 M0 17.25 C1.11 4.39, 4.22 -0.76, 17.25 0 M0 17.25 C2.24 6.15, 3.92 -0.81, 17.25 0" stroke="#1e1e1e" stroke-width="1" fill="none"></path></g><g transform="translate(566.7554244995117 346.03515625) rotate(0 114.18988800048828 25)"><text x="114.18988800048828" y="0" font-family="Virgil, Segoe UI Emoji" font-size="20px" fill="#1e1e1e" text-anchor="middle" style="white-space: pre;" direction="ltr" dominant-baseline="text-before-edge">k/k </text><text x="114.18988800048828" y="25" font-family="Virgil, Segoe UI Emoji" font-size="20px" fill="#1e1e1e" text-anchor="middle" style="white-space: pre;" direction="ltr" dominant-baseline="text-before-edge">kube-controller-manager</text></g><g stroke-linecap="round" transform="translate(10 337.00390625) rotate(0 115.650390625 36.556640625)"><path d="M18.28 0 M18.28 0 C57.16 0.84, 96.37 0.31, 213.02 0 M18.28 0 C86.87 -0.52, 156.28 -0.58, 213.02 0 M213.02 0 C225.76 -0.09, 231.48 4.86, 231.3 18.28 M213.02 0 C223.6 1.53, 232.03 7.04, 231.3 18.28 M231.3 18.28 C231.92 28.36, 231.55 39.07, 231.3 54.83 M231.3 18.28 C232.37 28.65, 231.81 37.15, 231.3 54.83 M231.3 54.83 C229.96 67.49, 225.84 75, 213.02 73.11 M231.3 54.83 C229.59 65.82, 223.57 72.6, 213.02 73.11 M213.02 73.11 C145.2 76.31, 75.94 75.67, 18.28 73.11 M213.02 73.11 C154.63 74.27, 94.98 74.48, 18.28 73.11 M18.28 73.11 C7.44 71.27, -1.35 65.98, 0 54.83 M18.28 73.11 C5.18 74.45, -0.93 69.13, 0 54.83 M0 54.83 C-0.73 45.59, 1.42 34.06, 0 18.28 M0 54.83 C-0.98 42.65, -0.02 29.91, 0 18.28 M0 18.28 C-1.39 5.73, 4.98 -0.67, 18.28 0 M0 18.28 C-1.36 3.98, 4.81 -1.2, 18.28 0" stroke="#1e1e1e" stroke-width="1" fill="none"></path></g><g transform="translate(59.23045349121094 348.560546875) rotate(0 66.41993713378906 25)"><text x="66.41993713378906" y="0" font-family="Virgil, Segoe UI Emoji" font-size="20px" fill="#1e1e1e" text-anchor="middle" style="white-space: pre;" direction="ltr" dominant-baseline="text-before-edge">some custom </text><text x="66.41993713378906" y="25" font-family="Virgil, Segoe UI Emoji" font-size="20px" fill="#1e1e1e" text-anchor="middle" style="white-space: pre;" direction="ltr" dominant-baseline="text-before-edge">control plane</text></g><g stroke-linecap="round" transform="translate(559.85546875 229.7734375) rotate(0 115.5 34.5)"><path d="M17.25 0 M17.25 0 C83.6 -0.83, 151.24 0.85, 213.75 0 M17.25 0 C78.27 -1.05, 137.82 -0.08, 213.75 0 M213.75 0 C225.53 1.17, 229.48 3.77, 231 17.25 M213.75 0 C224.66 0.76, 233.1 5.22, 231 17.25 M231 17.25 C229.61 27.66, 230.05 34.26, 231 51.75 M231 17.25 C230.91 30.4, 231.23 44.7, 231 51.75 M231 51.75 C231.78 63.27, 224.17 70.03, 213.75 69 M231 51.75 C229 64.09, 223.44 71.11, 213.75 69 M213.75 69 C136.85 67.46, 58.05 68.15, 17.25 69 M213.75 69 C155.53 70.58, 97.18 69.64, 17.25 69 M17.25 69 C5.18 68.77, -1.51 63.53, 0 51.75 M17.25 69 C3.93 68.48, -1.68 62.08, 0 51.75 M0 51.75 C-1.91 45.4, -0.96 36.08, 0 17.25 M0 51.75 C-0.41 40.21, 0.26 30.25, 0 17.25 M0 17.25 C0.94 7.54, 4.83 0.08, 17.25 0 M0 17.25 C1.41 7.13, 4.58 1.94, 17.25 0" stroke="#1e1e1e" stroke-width="1" fill="none"></path></g><g transform="translate(571.4155654907227 239.2734375) rotate(0 103.93990325927734 25)"><text x="103.93990325927734" y="0" font-family="Virgil, Segoe UI Emoji" font-size="20px" fill="#1e1e1e" text-anchor="middle" style="white-space: pre;" direction="ltr" dominant-baseline="text-before-edge">some </text><text x="103.93990325927734" y="25" font-family="Virgil, Segoe UI Emoji" font-size="20px" fill="#1e1e1e" text-anchor="middle" style="white-space: pre;" direction="ltr" dominant-baseline="text-before-edge">aggregated apiserver</text></g><g stroke-linecap="round"><g transform="translate(238.52373759100374 335.359375) rotate(0 22.752391969998484 -17.346735180084977)"><path d="M-0.12 -0.93 C7.63 -6.84, 39.16 -28.52, 47.15 -34.36 M-1.64 1.2 C5.91 -4.51, 38.14 -29.87, 46.34 -35.89" stroke="#1e1e1e" stroke-width="1" fill="none"></path></g><g transform="translate(238.52373759100374 335.359375) rotate(0 22.752391969998484 -17.346735180084977)"><path d="M28.93 -10.69 C37.77 -18.35, 40.7 -29.4, 46.36 -36.52 M29.95 -11.83 C35.74 -18.03, 40.22 -25.72, 46.83 -36.27" stroke="#1e1e1e" stroke-width="1" fill="none"></path></g><g transform="translate(238.52373759100374 335.359375) rotate(0 22.752391969998484 -17.346735180084977)"><path d="M16.73 -26.67 C30.04 -28.65, 37.3 -34.03, 46.36 -36.52 M17.74 -27.81 C26.97 -29.44, 34.98 -32.52, 46.83 -36.27" stroke="#1e1e1e" stroke-width="1" fill="none"></path></g></g><mask></mask><g stroke-linecap="round"><g transform="translate(401.4113412451461 334.41015625) rotate(0 -0.11122636223768723 -14.372510572224883)"><path d="M-0.96 -0.66 C-0.84 -5.55, 0.48 -23.96, 0.44 -28.72 M0.74 1.61 C0.78 -3.66, -0.23 -24.87, -0.15 -30.36" stroke="#1e1e1e" stroke-width="1" fill="none"></path></g><g transform="translate(401.4113412451461 334.41015625) rotate(0 -0.11122636223768723 -14.372510572224883)"><path d="M4.38 -15.69 C4.77 -21.6, 2.71 -24.88, 0.87 -29.88 M5.69 -17.16 C4.67 -19.86, 2.47 -22.9, -0.84 -30.29" stroke="#1e1e1e" stroke-width="1" fill="none"></path></g><g transform="translate(401.4113412451461 334.41015625) rotate(0 -0.11122636223768723 -14.372510572224883)"><path d="M-5.76 -15.49 C-2.54 -21.37, -1.78 -24.71, 0.87 -29.88 M-4.45 -16.96 C-3.33 -19.66, -3.4 -22.74, -0.84 -30.29" stroke="#1e1e1e" stroke-width="1" fill="none"></path></g></g><mask></mask><g stroke-linecap="round"><g transform="translate(665.828125 228.67578125) rotate(0 -0.36082715902421114 -17.08838477361948)"><path d="M-0.8 -0.43 C-0.76 -5.58, -0.45 -26.49, -0.53 -31.98 M0.98 -1.7 C0.89 -7.1, -1.71 -28.63, -1.7 -33.75" stroke="#1e1e1e" stroke-width="1" fill="none"></path></g><g transform="translate(665.828125 228.67578125) rotate(0 -0.36082715902421114 -17.08838477361948)"><path d="M4.34 -19.41 C4.4 -24.02, 0.97 -25.26, -0.52 -35.24 M5.54 -18.46 C4.27 -21.89, 1.73 -26.27, -1.73 -33.62" stroke="#1e1e1e" stroke-width="1" fill="none"></path></g><g transform="translate(665.828125 228.67578125) rotate(0 -0.36082715902421114 -17.08838477361948)"><path d="M-6.8 -18.65 C-4.09 -23.37, -4.86 -24.78, -0.52 -35.24 M-5.6 -17.7 C-4.25 -21.2, -4.18 -25.77, -1.73 -33.62" stroke="#1e1e1e" stroke-width="1" fill="none"></path></g></g><mask></mask><g stroke-linecap="round"><g transform="translate(498.70951823091207 225.703125) rotate(0 38.02688959902565 -15.18258082158863)"><path d="M-0.24 0.72 C12.27 -4.58, 62.8 -25.89, 75.79 -31.09 M-1.82 0.06 C10.97 -5.2, 64.69 -25.21, 77.88 -30.11" stroke="#1e1e1e" stroke-width="1" fill="none"></path></g><g transform="translate(498.70951823091207 225.703125) rotate(0 38.02688959902565 -15.18258082158863)"><path d="M56.25 -12.65 C61.42 -16.47, 70.75 -23.39, 78.12 -29.08 M54.21 -10.52 C62.29 -15.29, 69.19 -21.51, 77.52 -30.14" stroke="#1e1e1e" stroke-width="1" fill="none"></path></g><g transform="translate(498.70951823091207 225.703125) rotate(0 38.02688959902565 -15.18258082158863)"><path d="M49.08 -31.88 C56.96 -28.71, 68.89 -28.66, 78.12 -29.08 M47.04 -29.75 C57.03 -28.96, 66 -29.65, 77.52 -30.14" stroke="#1e1e1e" stroke-width="1" fill="none"></path></g></g><mask></mask><g stroke-linecap="round"><g transform="translate(561.83984375 126.0121196080836) rotate(0 -23.123696960639222 -21.60158243020524)"><path d="M-0.59 -0.27 C-8.35 -6.92, -39.21 -34.17, -47.08 -41.05 M1.31 -1.46 C-6.49 -8.37, -39.25 -36.46, -47.56 -42.93" stroke="#1e1e1e" stroke-width="1" fill="none"></path></g><g transform="translate(561.83984375 126.0121196080836) rotate(0 -23.123696960639222 -21.60158243020524)"><path d="M-19.73 -31.4 C-25.67 -35.34, -33.79 -40, -49.3 -44.63 M-19.86 -33.75 C-26.16 -34.31, -30.48 -37.96, -47.46 -43.28" stroke="#1e1e1e" stroke-width="1" fill="none"></path></g><g transform="translate(561.83984375 126.0121196080836) rotate(0 -23.123696960639222 -21.60158243020524)"><path d="M-32.79 -15.57 C-35.22 -23.5, -39.99 -32.23, -49.3 -44.63 M-32.91 -17.91 C-36.59 -21.68, -38.2 -28.61, -47.46 -43.28" stroke="#1e1e1e" stroke-width="1" fill="none"></path></g></g><mask></mask><g stroke-linecap="round"><g transform="translate(405.6698689290357 120.0859375) rotate(0 0.12910849658089774 -18.195257601859026)"><path d="M-0.86 0.79 C-0.87 -5.24, 0.97 -29.37, 1.12 -35.37 M0.88 0.16 C0.65 -6.3, 0.73 -30.96, 0.4 -37.18" stroke="#1e1e1e" stroke-width="1" fill="none"></path></g><g transform="translate(405.6698689290357 120.0859375) rotate(0 0.12910849658089774 -18.195257601859026)"><path d="M8.1 -19.77 C5.09 -28.11, 2.72 -33.8, -0.77 -38.71 M7.67 -20 C5.11 -25.27, 2.84 -30.78, -0.17 -37.7" stroke="#1e1e1e" stroke-width="1" fill="none"></path></g><g transform="translate(405.6698689290357 120.0859375) rotate(0 0.12910849658089774 -18.195257601859026)"><path d="M-4.2 -19.51 C-2.33 -27.86, 0.19 -33.65, -0.77 -38.71 M-4.63 -19.73 C-3.62 -25.13, -2.32 -30.71, -0.17 -37.7" stroke="#1e1e1e" stroke-width="1" fill="none"></path></g></g><mask></mask><g stroke-linecap="round"><g transform="translate(403.296875 226.75) rotate(0 -0.30971218216689067 -15.294876607926511)"><path d="M0.36 0.28 C0.44 -4.66, 0.38 -24.34, 0.18 -29.32 M-0.92 -0.62 C-0.96 -5.89, -1.17 -25.71, -0.77 -30.87" stroke="#1e1e1e" stroke-width="1" fill="none"></path></g><g transform="translate(403.296875 226.75) rotate(0 -0.30971218216689067 -15.294876607926511)"><path d="M4.38 -16.43 C4.07 -21.67, 2.37 -23.66, -2.22 -31.6 M4.58 -16.54 C1.9 -21.75, 0.52 -26.84, -0.88 -30.56" stroke="#1e1e1e" stroke-width="1" fill="none"></path></g><g transform="translate(403.296875 226.75) rotate(0 -0.30971218216689067 -15.294876607926511)"><path d="M-6.01 -16.73 C-3.49 -21.91, -2.34 -23.82, -2.22 -31.6 M-5.82 -16.83 C-4.56 -22.01, -1.99 -26.99, -0.88 -30.56" stroke="#1e1e1e" stroke-width="1" fill="none"></path></g></g><mask></mask><g stroke-linecap="round" transform="translate(18.744140625 124.083984375) rotate(0 115.650390625 36.556640625)"><path d="M18.28 0 M18.28 0 C91.83 -0.08, 164.74 -1.06, 213.02 0 M18.28 0 C75.19 0.73, 129.55 0.12, 213.02 0 M213.02 0 C226.82 0.08, 231.2 6.92, 231.3 18.28 M213.02 0 C226.11 0.51, 229.11 6.42, 231.3 18.28 M231.3 18.28 C232.26 23.65, 233.29 34.8, 231.3 54.83 M231.3 18.28 C231.75 30.33, 231.26 40.05, 231.3 54.83 M231.3 54.83 C232.97 68.51, 223.45 72.45, 213.02 73.11 M231.3 54.83 C231.15 65.93, 224.13 72.38, 213.02 73.11 M213.02 73.11 C173.34 70.18, 135.69 71.81, 18.28 73.11 M213.02 73.11 C160.1 74.98, 105.76 73.45, 18.28 73.11 M18.28 73.11 C7.5 74.05, 0.71 68.41, 0 54.83 M18.28 73.11 C5.49 71.67, 1.61 66.67, 0 54.83 M0 54.83 C0.53 44.89, -1.52 37.85, 0 18.28 M0 54.83 C-0.65 42.64, -1.07 32.6, 0 18.28 M0 18.28 C0.96 6.39, 7.41 0.31, 18.28 0 M0 18.28 C-1.87 4.35, 7.7 -2.27, 18.28 0" stroke="#1e1e1e" stroke-width="1" fill="none"></path></g><g transform="translate(84.23458099365234 148.140625) rotate(0 50.159950256347656 12.5)"><text x="50.159950256347656" y="0" font-family="Virgil, Segoe UI Emoji" font-size="20px" fill="#1e1e1e" text-anchor="middle" style="white-space: pre;" direction="ltr" dominant-baseline="text-before-edge">k/client-go</text></g><g stroke-linecap="round"><g transform="translate(283.3984375 230.7578125) rotate(0 -18.38034277844241 -15.386309756310652)"><path d="M0.46 -1.08 C-5.62 -6.5, -30.4 -26.87, -36.57 -31.75 M-0.76 0.97 C-6.93 -4.38, -31.17 -25.04, -37.22 -30.58" stroke="#1e1e1e" stroke-width="1" fill="none"></path></g><g transform="translate(283.3984375 230.7578125) rotate(0 -18.38034277844241 -15.386309756310652)"><path d="M-16.46 -20.81 C-22.42 -23.31, -26.57 -28.08, -38.15 -31.74 M-13.96 -21.97 C-23.84 -25.47, -33.18 -28.95, -36.58 -30.45" stroke="#1e1e1e" stroke-width="1" fill="none"></path></g><g transform="translate(283.3984375 230.7578125) rotate(0 -18.38034277844241 -15.386309756310652)"><path d="M-27.4 -8.38 C-30.28 -14.51, -31.26 -22.88, -38.15 -31.74 M-24.89 -9.54 C-30.48 -17.91, -35.56 -26.24, -36.58 -30.45" stroke="#1e1e1e" stroke-width="1" fill="none"></path></g></g><mask></mask><g stroke-linecap="round"><g transform="translate(251.31640625 159.54090895740285) rotate(0 18.039281613565947 -0.06921350236098078)"><path d="M0.18 -1.08 C6.2 -0.86, 31.09 0.55, 37.26 0.46 M-1.18 0.97 C4.59 0.94, 30.11 -0.81, 36.39 -1.11" stroke="#1e1e1e" stroke-width="1" fill="none"></path></g><g transform="translate(251.31640625 159.54090895740285) rotate(0 18.039281613565947 -0.06921350236098078)"><path d="M17.68 6.47 C27.77 3.47, 31.31 -0.68, 36.26 0.06 M18.58 5.76 C23 3.95, 26.94 2.49, 35.95 -2.03" stroke="#1e1e1e" stroke-width="1" fill="none"></path></g><g transform="translate(251.31640625 159.54090895740285) rotate(0 18.039281613565947 -0.06921350236098078)"><path d="M16.94 -6.2 C27.23 -4.2, 31.06 -3.34, 36.26 0.06 M17.83 -6.92 C22.33 -5.95, 26.44 -4.64, 35.95 -2.03" stroke="#1e1e1e" stroke-width="1" fill="none"></path></g></g><mask></mask><g stroke-linecap="round"><g transform="translate(566.42578125 339.984375) rotate(0 -26.817030256241594 -22.54227172248062)"><path d="M-0.93 -0.13 C-9.88 -7.55, -44.95 -37.73, -53.96 -44.95 M0.78 -1.25 C-8.23 -8.51, -44.98 -36.57, -54.41 -43.96" stroke="#1e1e1e" stroke-width="1" fill="none"></path></g><g transform="translate(566.42578125 339.984375) rotate(0 -26.817030256241594 -22.54227172248062)"><path d="M-26.05 -33.27 C-35.49 -37.79, -41 -40.59, -53.55 -43.22 M-25.75 -34.67 C-36.47 -37.25, -46.74 -41.25, -55.29 -43.87" stroke="#1e1e1e" stroke-width="1" fill="none"></path></g><g transform="translate(566.42578125 339.984375) rotate(0 -26.817030256241594 -22.54227172248062)"><path d="M-38.6 -17.03 C-44.47 -25.99, -46.49 -33.3, -53.55 -43.22 M-38.3 -18.43 C-44.6 -26.8, -50.39 -36.59, -55.29 -43.87" stroke="#1e1e1e" stroke-width="1" fill="none"></path></g></g><mask></mask><g stroke-linecap="round"><g transform="translate(561.32421875 157.6484375) rotate(0 -18.802614913396553 -0.33121010560543596)"><path d="M1.12 0.4 C-5.28 0.66, -31.61 0.58, -38.11 0.64 M0.25 -0.44 C-6.27 -0.48, -32.31 -1.15, -38.72 -1.3" stroke="#1e1e1e" stroke-width="1" fill="none"></path></g><g transform="translate(561.32421875 157.6484375) rotate(0 -18.802614913396553 -0.33121010560543596)"><path d="M-19.71 -6.44 C-25.75 -3.95, -31.45 -2.22, -37.51 -0.02 M-20.88 -7.83 C-24.44 -5.43, -29.17 -5.61, -39.22 -1.1" stroke="#1e1e1e" stroke-width="1" fill="none"></path></g><g transform="translate(561.32421875 157.6484375) rotate(0 -18.802614913396553 -0.33121010560543596)"><path d="M-20.04 6.81 C-25.87 5.04, -31.46 2.51, -37.51 -0.02 M-21.2 5.43 C-24.67 4.9, -29.33 1.79, -39.22 -1.1" stroke="#1e1e1e" stroke-width="1" fill="none"></path></g></g><mask></mask></svg>