<svg version="1.1" viewBox="0.0 0.0 785.0 323.0" fill="none" stroke="none" stroke-linecap="square" stroke-miterlimit="10" width="785" height="323" xmlns:xlink="http://www.w3.org/1999/xlink" xmlns="http://www.w3.org/2000/svg"><path fill="#ffffff" d="M0 0L785.0 0L785.0 323.0L0 323.0L0 0Z" fill-rule="nonzero"/><path stroke="#333333" stroke-width="1.0" stroke-linecap="butt" d="M75.5 286.5L768.5 286.5" fill-rule="nonzero"/><path stroke="#cccccc" stroke-width="1.0" stroke-linecap="butt" d="M75.5 198.5L768.5 198.5" fill-rule="nonzero"/><path stroke="#cccccc" stroke-width="1.0" stroke-linecap="butt" d="M75.5 111.5L768.5 111.5" fill-rule="nonzero"/><path stroke="#cccccc" stroke-width="1.0" stroke-linecap="butt" d="M75.5 23.5L768.5 23.5" fill-rule="nonzero"/><clipPath id="id_0"><path d="M75.15 23.15L768.85 23.15L768.85 286.85L75.15 286.85L75.15 23.15Z" clip-rule="nonzero"/></clipPath><path stroke="#000000" stroke-width="0.0" stroke-linecap="butt" stroke-opacity="0.0" clip-path="url(#id_0)" d="M205.0 287.0L121.0 287.0L121.0 201.0C121.0 199.89543 121.89543 199.0 123.0 199.0L203.0 199.0C204.10457 199.0 205.0 199.89543 205.0 201.0Z" fill-rule="nonzero"/><path fill="#434343" clip-path="url(#id_0)" d="M205.0 287.0L121.0 287.0L121.0 201.0C121.0 199.89543 121.89543 199.0 123.0 199.0L203.0 199.0C204.10457 199.0 205.0 199.89543 205.0 201.0Z" fill-rule="nonzero"/><path stroke="#000000" stroke-width="0.0" stroke-linecap="butt" stroke-opacity="0.0" clip-path="url(#id_0)" d="M334.0 287.0L250.0 287.0L250.0 211.0C250.0 209.89543 250.89543 209.0 252.0 209.0L332.0 209.0C333.10458 209.0 334.0 209.89543 334.0 211.0Z" fill-rule="nonzero"/><path fill="#434343" clip-path="url(#id_0)" d="M334.0 287.0L250.0 287.0L250.0 211.0C250.0 209.89543 250.89543 209.0 252.0 209.0L332.0 209.0C333.10458 209.0 334.0 209.89543 334.0 211.0Z" fill-rule="nonzero"/><path stroke="#000000" stroke-width="0.0" stroke-linecap="butt" stroke-opacity="0.0" clip-path="url(#id_0)" d="M464.0 287.0L380.0 287.0L380.0 218.0C380.0 216.89543 380.89542 216.0 382.0 216.0L462.0 216.0C463.10458 216.0 464.0 216.89543 464.0 218.0Z" fill-rule="nonzero"/><path fill="#434343" clip-path="url(#id_0)" d="M464.0 287.0L380.0 287.0L380.0 218.0C380.0 216.89543 380.89542 216.0 382.0 216.0L462.0 216.0C463.10458 216.0 464.0 216.89543 464.0 218.0Z" fill-rule="nonzero"/><path stroke="#000000" stroke-width="0.0" stroke-linecap="butt" stroke-opacity="0.0" clip-path="url(#id_0)" d="M594.0 287.0L510.0 287.0L510.0 211.0C510.0 209.89543 510.89542 209.0 512.0 209.0L592.0 209.0C593.10455 209.0 594.0 209.89543 594.0 211.0Z" fill-rule="nonzero"/><path fill="#434343" clip-path="url(#id_0)" d="M594.0 287.0L510.0 287.0L510.0 211.0C510.0 209.89543 510.89542 209.0 512.0 209.0L592.0 209.0C593.10455 209.0 594.0 209.89543 594.0 211.0Z" fill-rule="nonzero"/><path stroke="#000000" stroke-width="0.0" stroke-linecap="butt" stroke-opacity="0.0" clip-path="url(#id_0)" d="M723.0 287.0L639.0 287.0L639.0 67.0C639.0 65.89543 639.89545 65.0 641.0 65.0L721.0 65.0C722.10455 65.0 723.0 65.89543 723.0 67.0Z" fill-rule="nonzero"/><path fill="#434343" clip-path="url(#id_0)" d="M723.0 287.0L639.0 287.0L639.0 67.0C639.0 65.89543 639.89545 65.0 641.0 65.0L721.0 65.0C722.10455 65.0 723.0 65.89543 723.0 67.0Z" fill-rule="nonzero"/><path stroke="#ffffff" stroke-width="3.0" stroke-linejoin="round" stroke-linecap="round" d="M151.375 184.16096L151.375 182.09846L147.65625 182.09846L147.65625 181.12971L151.57812 175.56721L152.4375 175.56721L152.4375 181.12971L153.59375 181.12971L153.59375 182.09846L152.4375 182.09846L152.4375 184.16096L151.375 184.16096ZM151.375 181.12971L151.375 177.27034L148.6875 181.12971L151.375 181.12971ZM155.59375 184.16096L155.59375 182.95784L156.79688 182.95784L156.79688 184.16096L155.59375 184.16096ZM158.15625 182.17659L159.17188 182.08284Q159.29688 182.80159 159.65625 183.12971Q160.03125 183.44221 160.59375 183.44221Q161.07812 183.44221 161.4375 183.22346Q161.8125 182.98909 162.04688 182.62971Q162.28125 182.25471 162.4375 181.62971Q162.59375 180.98909 162.59375 180.33284Q162.59375 180.25471 162.59375 180.11409Q162.28125 180.61409 161.73438 180.94221Q161.1875 181.25471 160.54688 181.25471Q159.46875 181.25471 158.73438 180.48909Q158.0 179.70784 158.0 178.44221Q158.0 177.12971 158.76562 176.33284Q159.54688 175.53596 160.70312 175.53596Q161.53125 175.53596 162.21875 175.98909Q162.92188 176.44221 163.28125 177.28596Q163.64062 178.11409 163.64062 179.69221Q163.64062 181.33284 163.28125 182.31721Q162.9375 183.28596 162.21875 183.80159Q161.51562 184.30159 160.57812 184.30159Q159.5625 184.30159 158.92188 183.75471Q158.28125 183.19221 158.15625 182.17659ZM162.46875 178.37971Q162.46875 177.47346 161.98438 176.94221Q161.51562 176.41096 160.82812 176.41096Q160.125 176.41096 159.59375 176.98909Q159.07812 177.55159 159.07812 178.47346Q159.07812 179.28596 159.57812 179.80159Q160.07812 180.31721 160.79688 180.31721Q161.53125 180.31721 162.0 179.80159Q162.46875 179.28596 162.46875 178.37971ZM166.625 179.50471Q165.96875 179.25471 165.64062 178.81721Q165.32812 178.36409 165.32812 177.75471Q165.32812 176.81721 166.0 176.17659Q166.6875 175.53596 167.79688 175.53596Q168.92188 175.53596 169.60938 176.19221Q170.29688 176.84846 170.29688 177.78596Q170.29688 178.37971 169.98438 178.81721Q169.67188 179.25471 169.03125 179.50471Q169.82812 179.75471 170.23438 180.33284Q170.64062 180.91096 170.64062 181.70784Q170.64062 182.80159 169.85938 183.55159Q169.09375 184.30159 167.8125 184.30159Q166.54688 184.30159 165.76562 183.55159Q164.98438 182.80159 164.98438 181.67659Q164.98438 180.83284 165.40625 180.27034Q165.84375 179.70784 166.625 179.50471ZM166.40625 177.70784Q166.40625 178.31721 166.79688 178.70784Q167.20312 179.09846 167.82812 179.09846Q168.4375 179.09846 168.82812 178.72346Q169.21875 178.33284 169.21875 177.77034Q169.21875 177.19221 168.8125 176.80159Q168.40625 176.39534 167.8125 176.39534Q167.20312 176.39534 166.79688 176.78596Q166.40625 177.17659 166.40625 177.70784ZM166.07812 181.67659Q166.07812 182.12971 166.28125 182.55159Q166.5 182.97346 166.92188 183.20784Q167.34375 183.44221 167.82812 183.44221Q168.57812 183.44221 169.0625 182.95784Q169.5625 182.47346 169.5625 181.72346Q169.5625 180.95784 169.0625 180.45784Q168.5625 179.95784 167.79688 179.95784Q167.04688 179.95784 166.5625 180.45784Q166.07812 180.94221 166.07812 181.67659ZM173.625 179.50471Q172.96875 179.25471 172.64062 178.81721Q172.32812 178.36409 172.32812 177.75471Q172.32812 176.81721 173.0 176.17659Q173.6875 175.53596 174.79688 175.53596Q175.92188 175.53596 176.60938 176.19221Q177.29688 176.84846 177.29688 177.78596Q177.29688 178.37971 176.98438 178.81721Q176.67188 179.25471 176.03125 179.50471Q176.82812 179.75471 177.23438 180.33284Q177.64062 180.91096 177.64062 181.70784Q177.64062 182.80159 176.85938 183.55159Q176.09375 184.30159 174.8125 184.30159Q173.54688 184.30159 172.76562 183.55159Q171.98438 182.80159 171.98438 181.67659Q171.98438 180.83284 172.40625 180.27034Q172.84375 179.70784 173.625 179.50471ZM173.40625 177.70784Q173.40625 178.31721 173.79688 178.70784Q174.20312 179.09846 174.82812 179.09846Q175.4375 179.09846 175.82812 178.72346Q176.21875 178.33284 176.21875 177.77034Q176.21875 177.19221 175.8125 176.80159Q175.40625 176.39534 174.8125 176.39534Q174.20312 176.39534 173.79688 176.78596Q173.40625 177.17659 173.40625 177.70784ZM173.07812 181.67659Q173.07812 182.12971 173.28125 182.55159Q173.5 182.97346 173.92188 183.20784Q174.34375 183.44221 174.82812 183.44221Q175.57812 183.44221 176.0625 182.95784Q176.5625 182.47346 176.5625 181.72346Q176.5625 180.95784 176.0625 180.45784Q175.5625 179.95784 174.79688 179.95784Q174.04688 179.95784 173.5625 180.45784Q173.07812 180.94221 173.07812 181.67659Z" fill-rule="nonzero"/><path fill="#434343" d="M151.375 184.16096L151.375 182.09846L147.65625 182.09846L147.65625 181.12971L151.57812 175.56721L152.4375 175.56721L152.4375 181.12971L153.59375 181.12971L153.59375 182.09846L152.4375 182.09846L152.4375 184.16096L151.375 184.16096ZM151.375 181.12971L151.375 177.27034L148.6875 181.12971L151.375 181.12971ZM155.59375 184.16096L155.59375 182.95784L156.79688 182.95784L156.79688 184.16096L155.59375 184.16096ZM158.15625 182.17659L159.17188 182.08284Q159.29688 182.80159 159.65625 183.12971Q160.03125 183.44221 160.59375 183.44221Q161.07812 183.44221 161.4375 183.22346Q161.8125 182.98909 162.04688 182.62971Q162.28125 182.25471 162.4375 181.62971Q162.59375 180.98909 162.59375 180.33284Q162.59375 180.25471 162.59375 180.11409Q162.28125 180.61409 161.73438 180.94221Q161.1875 181.25471 160.54688 181.25471Q159.46875 181.25471 158.73438 180.48909Q158.0 179.70784 158.0 178.44221Q158.0 177.12971 158.76562 176.33284Q159.54688 175.53596 160.70312 175.53596Q161.53125 175.53596 162.21875 175.98909Q162.92188 176.44221 163.28125 177.28596Q163.64062 178.11409 163.64062 179.69221Q163.64062 181.33284 163.28125 182.31721Q162.9375 183.28596 162.21875 183.80159Q161.51562 184.30159 160.57812 184.30159Q159.5625 184.30159 158.92188 183.75471Q158.28125 183.19221 158.15625 182.17659ZM162.46875 178.37971Q162.46875 177.47346 161.98438 176.94221Q161.51562 176.41096 160.82812 176.41096Q160.125 176.41096 159.59375 176.98909Q159.07812 177.55159 159.07812 178.47346Q159.07812 179.28596 159.57812 179.80159Q160.07812 180.31721 160.79688 180.31721Q161.53125 180.31721 162.0 179.80159Q162.46875 179.28596 162.46875 178.37971ZM166.625 179.50471Q165.96875 179.25471 165.64062 178.81721Q165.32812 178.36409 165.32812 177.75471Q165.32812 176.81721 166.0 176.17659Q166.6875 175.53596 167.79688 175.53596Q168.92188 175.53596 169.60938 176.19221Q170.29688 176.84846 170.29688 177.78596Q170.29688 178.37971 169.98438 178.81721Q169.67188 179.25471 169.03125 179.50471Q169.82812 179.75471 170.23438 180.33284Q170.64062 180.91096 170.64062 181.70784Q170.64062 182.80159 169.85938 183.55159Q169.09375 184.30159 167.8125 184.30159Q166.54688 184.30159 165.76562 183.55159Q164.98438 182.80159 164.98438 181.67659Q164.98438 180.83284 165.40625 180.27034Q165.84375 179.70784 166.625 179.50471ZM166.40625 177.70784Q166.40625 178.31721 166.79688 178.70784Q167.20312 179.09846 167.82812 179.09846Q168.4375 179.09846 168.82812 178.72346Q169.21875 178.33284 169.21875 177.77034Q169.21875 177.19221 168.8125 176.80159Q168.40625 176.39534 167.8125 176.39534Q167.20312 176.39534 166.79688 176.78596Q166.40625 177.17659 166.40625 177.70784ZM166.07812 181.67659Q166.07812 182.12971 166.28125 182.55159Q166.5 182.97346 166.92188 183.20784Q167.34375 183.44221 167.82812 183.44221Q168.57812 183.44221 169.0625 182.95784Q169.5625 182.47346 169.5625 181.72346Q169.5625 180.95784 169.0625 180.45784Q168.5625 179.95784 167.79688 179.95784Q167.04688 179.95784 166.5625 180.45784Q166.07812 180.94221 166.07812 181.67659ZM173.625 179.50471Q172.96875 179.25471 172.64062 178.81721Q172.32812 178.36409 172.32812 177.75471Q172.32812 176.81721 173.0 176.17659Q173.6875 175.53596 174.79688 175.53596Q175.92188 175.53596 176.60938 176.19221Q177.29688 176.84846 177.29688 177.78596Q177.29688 178.37971 176.98438 178.81721Q176.67188 179.25471 176.03125 179.50471Q176.82812 179.75471 177.23438 180.33284Q177.64062 180.91096 177.64062 181.70784Q177.64062 182.80159 176.85938 183.55159Q176.09375 184.30159 174.8125 184.30159Q173.54688 184.30159 172.76562 183.55159Q171.98438 182.80159 171.98438 181.67659Q171.98438 180.83284 172.40625 180.27034Q172.84375 179.70784 173.625 179.50471ZM173.40625 177.70784Q173.40625 178.31721 173.79688 178.70784Q174.20312 179.09846 174.82812 179.09846Q175.4375 179.09846 175.82812 178.72346Q176.21875 178.33284 176.21875 177.77034Q176.21875 177.19221 175.8125 176.80159Q175.40625 176.39534 174.8125 176.39534Q174.20312 176.39534 173.79688 176.78596Q173.40625 177.17659 173.40625 177.70784ZM173.07812 181.67659Q173.07812 182.12971 173.28125 182.55159Q173.5 182.97346 173.92188 183.20784Q174.34375 183.44221 174.82812 183.44221Q175.57812 183.44221 176.0625 182.95784Q176.5625 182.47346 176.5625 181.72346Q176.5625 180.95784 176.0625 180.45784Q175.5625 179.95784 174.79688 179.95784Q174.04688 179.95784 173.5625 180.45784Q173.07812 180.94221 173.07812 181.67659Z" fill-rule="nonzero"/><path stroke="#ffffff" stroke-width="3.0" stroke-linejoin="round" stroke-linecap="round" d="M280.375 194.42767L280.375 192.36517L276.65625 192.36517L276.65625 191.39642L280.57812 185.83392L281.4375 185.83392L281.4375 191.39642L282.59375 191.39642L282.59375 192.36517L281.4375 192.36517L281.4375 194.42767L280.375 194.42767ZM280.375 191.39642L280.375 187.53705L277.6875 191.39642L280.375 191.39642ZM284.59375 194.42767L284.59375 193.22455L285.79688 193.22455L285.79688 194.42767L284.59375 194.42767ZM290.375 194.42767L290.375 192.36517L286.65625 192.36517L286.65625 191.39642L290.57812 185.83392L291.4375 185.83392L291.4375 191.39642L292.59375 191.39642L292.59375 192.36517L291.4375 192.36517L291.4375 194.42767L290.375 194.42767ZM290.375 191.39642L290.375 187.53705L287.6875 191.39642L290.375 191.39642ZM294.0 190.1933Q294.0 188.66205 294.3125 187.74017Q294.625 186.80267 295.23438 186.30267Q295.85938 185.80267 296.79688 185.80267Q297.48438 185.80267 298.0 186.08392Q298.53125 186.36517 298.875 186.89642Q299.21875 187.41205 299.40625 188.16205Q299.59375 188.91205 299.59375 190.1933Q299.59375 191.70892 299.28125 192.6308Q298.98438 193.55267 298.35938 194.0683Q297.75 194.5683 296.79688 194.5683Q295.5625 194.5683 294.84375 193.67767Q294.0 192.61517 294.0 190.1933ZM295.07812 190.1933Q295.07812 192.30267 295.57812 193.0058Q296.07812 193.70892 296.79688 193.70892Q297.53125 193.70892 298.01562 193.0058Q298.51562 192.30267 298.51562 190.1933Q298.51562 188.0683 298.01562 187.3808Q297.53125 186.67767 296.78125 186.67767Q296.0625 186.67767 295.625 187.28705Q295.07812 188.0683 295.07812 190.1933ZM304.375 194.42767L304.375 192.36517L300.65625 192.36517L300.65625 191.39642L304.57812 185.83392L305.4375 185.83392L305.4375 191.39642L306.59375 191.39642L306.59375 192.36517L305.4375 192.36517L305.4375 194.42767L304.375 194.42767ZM304.375 191.39642L304.375 187.53705L301.6875 191.39642L304.375 191.39642Z" fill-rule="nonzero"/><path fill="#434343" d="M280.375 194.42767L280.375 192.36517L276.65625 192.36517L276.65625 191.39642L280.57812 185.83392L281.4375 185.83392L281.4375 191.39642L282.59375 191.39642L282.59375 192.36517L281.4375 192.36517L281.4375 194.42767L280.375 194.42767ZM280.375 191.39642L280.375 187.53705L277.6875 191.39642L280.375 191.39642ZM284.59375 194.42767L284.59375 193.22455L285.79688 193.22455L285.79688 194.42767L284.59375 194.42767ZM290.375 194.42767L290.375 192.36517L286.65625 192.36517L286.65625 191.39642L290.57812 185.83392L291.4375 185.83392L291.4375 191.39642L292.59375 191.39642L292.59375 192.36517L291.4375 192.36517L291.4375 194.42767L290.375 194.42767ZM290.375 191.39642L290.375 187.53705L287.6875 191.39642L290.375 191.39642ZM294.0 190.1933Q294.0 188.66205 294.3125 187.74017Q294.625 186.80267 295.23438 186.30267Q295.85938 185.80267 296.79688 185.80267Q297.48438 185.80267 298.0 186.08392Q298.53125 186.36517 298.875 186.89642Q299.21875 187.41205 299.40625 188.16205Q299.59375 188.91205 299.59375 190.1933Q299.59375 191.70892 299.28125 192.6308Q298.98438 193.55267 298.35938 194.0683Q297.75 194.5683 296.79688 194.5683Q295.5625 194.5683 294.84375 193.67767Q294.0 192.61517 294.0 190.1933ZM295.07812 190.1933Q295.07812 192.30267 295.57812 193.0058Q296.07812 193.70892 296.79688 193.70892Q297.53125 193.70892 298.01562 193.0058Q298.51562 192.30267 298.51562 190.1933Q298.51562 188.0683 298.01562 187.3808Q297.53125 186.67767 296.78125 186.67767Q296.0625 186.67767 295.625 187.28705Q295.07812 188.0683 295.07812 190.1933ZM304.375 194.42767L304.375 192.36517L300.65625 192.36517L300.65625 191.39642L304.57812 185.83392L305.4375 185.83392L305.4375 191.39642L306.59375 191.39642L306.59375 192.36517L305.4375 192.36517L305.4375 194.42767L304.375 194.42767ZM304.375 191.39642L304.375 187.53705L301.6875 191.39642L304.375 191.39642Z" fill-rule="nonzero"/><path stroke="#ffffff" stroke-width="3.0" stroke-linejoin="round" stroke-linecap="round" d="M410.375 201.14323L410.375 199.08073L406.65625 199.08073L406.65625 198.11198L410.57812 192.54948L411.4375 192.54948L411.4375 198.11198L412.59375 198.11198L412.59375 199.08073L411.4375 199.08073L411.4375 201.14323L410.375 201.14323ZM410.375 198.11198L410.375 194.25261L407.6875 198.11198L410.375 198.11198ZM414.59375 201.14323L414.59375 199.94011L415.79688 199.94011L415.79688 201.14323L414.59375 201.14323ZM417.0 196.90886Q417.0 195.37761 417.3125 194.45573Q417.625 193.51823 418.23438 193.01823Q418.85938 192.51823 419.79688 192.51823Q420.48438 192.51823 421.0 192.79948Q421.53125 193.08073 421.875 193.61198Q422.21875 194.12761 422.40625 194.87761Q422.59375 195.62761 422.59375 196.90886Q422.59375 198.42448 422.28125 199.34636Q421.98438 200.26823 421.35938 200.78386Q420.75 201.28386 419.79688 201.28386Q418.5625 201.28386 417.84375 200.39323Q417.0 199.33073 417.0 196.90886ZM418.07812 196.90886Q418.07812 199.01823 418.57812 199.72136Q419.07812 200.42448 419.79688 200.42448Q420.53125 200.42448 421.01562 199.72136Q421.51562 199.01823 421.51562 196.90886Q421.51562 194.78386 421.01562 194.09636Q420.53125 193.39323 419.78125 193.39323Q419.0625 193.39323 418.625 194.00261Q418.07812 194.78386 418.07812 196.90886ZM429.54688 200.12761L429.54688 201.14323L423.85938 201.14323Q423.85938 200.76823 423.98438 200.40886Q424.20312 199.83073 424.67188 199.26823Q425.15625 198.70573 426.0625 197.97136Q427.46875 196.81511 427.95312 196.14323Q428.45312 195.47136 428.45312 194.87761Q428.45312 194.25261 428.0 193.83073Q427.54688 193.39323 426.82812 193.39323Q426.0625 193.39323 425.60938 193.84636Q425.15625 194.29948 425.14062 195.11198L424.0625 195.00261Q424.17188 193.78386 424.89062 193.15886Q425.625 192.51823 426.85938 192.51823Q428.09375 192.51823 428.8125 193.20573Q429.53125 193.89323 429.53125 194.90886Q429.53125 195.42448 429.3125 195.92448Q429.10938 196.40886 428.60938 196.97136Q428.125 197.51823 427.0 198.47136Q426.04688 199.26823 425.76562 199.56511Q425.5 199.84636 425.32812 200.12761L429.54688 200.12761ZM436.54688 200.12761L436.54688 201.14323L430.85938 201.14323Q430.85938 200.76823 430.98438 200.40886Q431.20312 199.83073 431.67188 199.26823Q432.15625 198.70573 433.0625 197.97136Q434.46875 196.81511 434.95312 196.14323Q435.45312 195.47136 435.45312 194.87761Q435.45312 194.25261 435.0 193.83073Q434.54688 193.39323 433.82812 193.39323Q433.0625 193.39323 432.60938 193.84636Q432.15625 194.29948 432.14062 195.11198L431.0625 195.00261Q431.17188 193.78386 431.89062 193.15886Q432.625 192.51823 433.85938 192.51823Q435.09375 192.51823 435.8125 193.20573Q436.53125 193.89323 436.53125 194.90886Q436.53125 195.42448 436.3125 195.92448Q436.10938 196.40886 435.60938 196.97136Q435.125 197.51823 434.0 198.47136Q433.04688 199.26823 432.76562 199.56511Q432.5 199.84636 432.32812 200.12761L436.54688 200.12761Z" fill-rule="nonzero"/><path fill="#434343" d="M410.375 201.14323L410.375 199.08073L406.65625 199.08073L406.65625 198.11198L410.57812 192.54948L411.4375 192.54948L411.4375 198.11198L412.59375 198.11198L412.59375 199.08073L411.4375 199.08073L411.4375 201.14323L410.375 201.14323ZM410.375 198.11198L410.375 194.25261L407.6875 198.11198L410.375 198.11198ZM414.59375 201.14323L414.59375 199.94011L415.79688 199.94011L415.79688 201.14323L414.59375 201.14323ZM417.0 196.90886Q417.0 195.37761 417.3125 194.45573Q417.625 193.51823 418.23438 193.01823Q418.85938 192.51823 419.79688 192.51823Q420.48438 192.51823 421.0 192.79948Q421.53125 193.08073 421.875 193.61198Q422.21875 194.12761 422.40625 194.87761Q422.59375 195.62761 422.59375 196.90886Q422.59375 198.42448 422.28125 199.34636Q421.98438 200.26823 421.35938 200.78386Q420.75 201.28386 419.79688 201.28386Q418.5625 201.28386 417.84375 200.39323Q417.0 199.33073 417.0 196.90886ZM418.07812 196.90886Q418.07812 199.01823 418.57812 199.72136Q419.07812 200.42448 419.79688 200.42448Q420.53125 200.42448 421.01562 199.72136Q421.51562 199.01823 421.51562 196.90886Q421.51562 194.78386 421.01562 194.09636Q420.53125 193.39323 419.78125 193.39323Q419.0625 193.39323 418.625 194.00261Q418.07812 194.78386 418.07812 196.90886ZM429.54688 200.12761L429.54688 201.14323L423.85938 201.14323Q423.85938 200.76823 423.98438 200.40886Q424.20312 199.83073 424.67188 199.26823Q425.15625 198.70573 426.0625 197.97136Q427.46875 196.81511 427.95312 196.14323Q428.45312 195.47136 428.45312 194.87761Q428.45312 194.25261 428.0 193.83073Q427.54688 193.39323 426.82812 193.39323Q426.0625 193.39323 425.60938 193.84636Q425.15625 194.29948 425.14062 195.11198L424.0625 195.00261Q424.17188 193.78386 424.89062 193.15886Q425.625 192.51823 426.85938 192.51823Q428.09375 192.51823 428.8125 193.20573Q429.53125 193.89323 429.53125 194.90886Q429.53125 195.42448 429.3125 195.92448Q429.10938 196.40886 428.60938 196.97136Q428.125 197.51823 427.0 198.47136Q426.04688 199.26823 425.76562 199.56511Q425.5 199.84636 425.32812 200.12761L429.54688 200.12761ZM436.54688 200.12761L436.54688 201.14323L430.85938 201.14323Q430.85938 200.76823 430.98438 200.40886Q431.20312 199.83073 431.67188 199.26823Q432.15625 198.70573 433.0625 197.97136Q434.46875 196.81511 434.95312 196.14323Q435.45312 195.47136 435.45312 194.87761Q435.45312 194.25261 435.0 193.83073Q434.54688 193.39323 433.82812 193.39323Q433.0625 193.39323 432.60938 193.84636Q432.15625 194.29948 432.14062 195.11198L431.0625 195.00261Q431.17188 193.78386 431.89062 193.15886Q432.625 192.51823 433.85938 192.51823Q435.09375 192.51823 435.8125 193.20573Q436.53125 193.89323 436.53125 194.90886Q436.53125 195.42448 436.3125 195.92448Q436.10938 196.40886 435.60938 196.97136Q435.125 197.51823 434.0 198.47136Q433.04688 199.26823 432.76562 199.56511Q432.5 199.84636 432.32812 200.12761L436.54688 200.12761Z" fill-rule="nonzero"/><path stroke="#ffffff" stroke-width="3.0" stroke-linejoin="round" stroke-linecap="round" d="M540.375 194.35736L540.375 192.29486L536.65625 192.29486L536.65625 191.32611L540.5781 185.76361L541.4375 185.76361L541.4375 191.32611L542.59375 191.32611L542.59375 192.29486L541.4375 192.29486L541.4375 194.35736L540.375 194.35736ZM540.375 191.32611L540.375 187.46674L537.6875 191.32611L540.375 191.32611ZM544.59375 194.35736L544.59375 193.15424L545.7969 193.15424L545.7969 194.35736L544.59375 194.35736ZM550.375 194.35736L550.375 192.29486L546.65625 192.29486L546.65625 191.32611L550.5781 185.76361L551.4375 185.76361L551.4375 191.32611L552.59375 191.32611L552.59375 192.29486L551.4375 192.29486L551.4375 194.35736L550.375 194.35736ZM550.375 191.32611L550.375 187.46674L547.6875 191.32611L550.375 191.32611ZM554.0 190.12299Q554.0 188.59174 554.3125 187.66986Q554.625 186.73236 555.2344 186.23236Q555.8594 185.73236 556.7969 185.73236Q557.4844 185.73236 558.0 186.01361Q558.53125 186.29486 558.875 186.82611Q559.21875 187.34174 559.40625 188.09174Q559.59375 188.84174 559.59375 190.12299Q559.59375 191.63861 559.28125 192.56049Q558.9844 193.48236 558.3594 193.99799Q557.75 194.49799 556.7969 194.49799Q555.5625 194.49799 554.84375 193.60736Q554.0 192.54486 554.0 190.12299ZM555.0781 190.12299Q555.0781 192.23236 555.5781 192.93549Q556.0781 193.63861 556.7969 193.63861Q557.53125 193.63861 558.0156 192.93549Q558.5156 192.23236 558.5156 190.12299Q558.5156 187.99799 558.0156 187.31049Q557.53125 186.60736 556.78125 186.60736Q556.0625 186.60736 555.625 187.21674Q555.0781 187.99799 555.0781 190.12299ZM562.625 189.70111Q561.96875 189.45111 561.6406 189.01361Q561.3281 188.56049 561.3281 187.95111Q561.3281 187.01361 562.0 186.37299Q562.6875 185.73236 563.7969 185.73236Q564.9219 185.73236 565.6094 186.38861Q566.2969 187.04486 566.2969 187.98236Q566.2969 188.57611 565.9844 189.01361Q565.6719 189.45111 565.03125 189.70111Q565.8281 189.95111 566.2344 190.52924Q566.6406 191.10736 566.6406 191.90424Q566.6406 192.99799 565.8594 193.74799Q565.09375 194.49799 563.8125 194.49799Q562.5469 194.49799 561.7656 193.74799Q560.9844 192.99799 560.9844 191.87299Q560.9844 191.02924 561.40625 190.46674Q561.84375 189.90424 562.625 189.70111ZM562.40625 187.90424Q562.40625 188.51361 562.7969 188.90424Q563.2031 189.29486 563.8281 189.29486Q564.4375 189.29486 564.8281 188.91986Q565.21875 188.52924 565.21875 187.96674Q565.21875 187.38861 564.8125 186.99799Q564.40625 186.59174 563.8125 186.59174Q563.2031 186.59174 562.7969 186.98236Q562.40625 187.37299 562.40625 187.90424ZM562.0781 191.87299Q562.0781 192.32611 562.28125 192.74799Q562.5 193.16986 562.9219 193.40424Q563.34375 193.63861 563.8281 193.63861Q564.5781 193.63861 565.0625 193.15424Q565.5625 192.66986 565.5625 191.91986Q565.5625 191.15424 565.0625 190.65424Q564.5625 190.15424 563.7969 190.15424Q563.0469 190.15424 562.5625 190.65424Q562.0781 191.13861 562.0781 191.87299Z" fill-rule="nonzero"/><path fill="#434343" d="M540.375 194.35736L540.375 192.29486L536.65625 192.29486L536.65625 191.32611L540.5781 185.76361L541.4375 185.76361L541.4375 191.32611L542.59375 191.32611L542.59375 192.29486L541.4375 192.29486L541.4375 194.35736L540.375 194.35736ZM540.375 191.32611L540.375 187.46674L537.6875 191.32611L540.375 191.32611ZM544.59375 194.35736L544.59375 193.15424L545.7969 193.15424L545.7969 194.35736L544.59375 194.35736ZM550.375 194.35736L550.375 192.29486L546.65625 192.29486L546.65625 191.32611L550.5781 185.76361L551.4375 185.76361L551.4375 191.32611L552.59375 191.32611L552.59375 192.29486L551.4375 192.29486L551.4375 194.35736L550.375 194.35736ZM550.375 191.32611L550.375 187.46674L547.6875 191.32611L550.375 191.32611ZM554.0 190.12299Q554.0 188.59174 554.3125 187.66986Q554.625 186.73236 555.2344 186.23236Q555.8594 185.73236 556.7969 185.73236Q557.4844 185.73236 558.0 186.01361Q558.53125 186.29486 558.875 186.82611Q559.21875 187.34174 559.40625 188.09174Q559.59375 188.84174 559.59375 190.12299Q559.59375 191.63861 559.28125 192.56049Q558.9844 193.48236 558.3594 193.99799Q557.75 194.49799 556.7969 194.49799Q555.5625 194.49799 554.84375 193.60736Q554.0 192.54486 554.0 190.12299ZM555.0781 190.12299Q555.0781 192.23236 555.5781 192.93549Q556.0781 193.63861 556.7969 193.63861Q557.53125 193.63861 558.0156 192.93549Q558.5156 192.23236 558.5156 190.12299Q558.5156 187.99799 558.0156 187.31049Q557.53125 186.60736 556.78125 186.60736Q556.0625 186.60736 555.625 187.21674Q555.0781 187.99799 555.0781 190.12299ZM562.625 189.70111Q561.96875 189.45111 561.6406 189.01361Q561.3281 188.56049 561.3281 187.95111Q561.3281 187.01361 562.0 186.37299Q562.6875 185.73236 563.7969 185.73236Q564.9219 185.73236 565.6094 186.38861Q566.2969 187.04486 566.2969 187.98236Q566.2969 188.57611 565.9844 189.01361Q565.6719 189.45111 565.03125 189.70111Q565.8281 189.95111 566.2344 190.52924Q566.6406 191.10736 566.6406 191.90424Q566.6406 192.99799 565.8594 193.74799Q565.09375 194.49799 563.8125 194.49799Q562.5469 194.49799 561.7656 193.74799Q560.9844 192.99799 560.9844 191.87299Q560.9844 191.02924 561.40625 190.46674Q561.84375 189.90424 562.625 189.70111ZM562.40625 187.90424Q562.40625 188.51361 562.7969 188.90424Q563.2031 189.29486 563.8281 189.29486Q564.4375 189.29486 564.8281 188.91986Q565.21875 188.52924 565.21875 187.96674Q565.21875 187.38861 564.8125 186.99799Q564.40625 186.59174 563.8125 186.59174Q563.2031 186.59174 562.7969 186.98236Q562.40625 187.37299 562.40625 187.90424ZM562.0781 191.87299Q562.0781 192.32611 562.28125 192.74799Q562.5 193.16986 562.9219 193.40424Q563.34375 193.63861 563.8281 193.63861Q564.5781 193.63861 565.0625 193.15424Q565.5625 192.66986 565.5625 191.91986Q565.5625 191.15424 565.0625 190.65424Q564.5625 190.15424 563.7969 190.15424Q563.0469 190.15424 562.5625 190.65424Q562.0781 191.13861 562.0781 191.87299Z" fill-rule="nonzero"/><path stroke="#ffffff" stroke-width="3.0" stroke-linejoin="round" stroke-linecap="round" d="M666.46875 49.70912L665.4219 49.70912L665.4219 42.99037Q665.03125 43.349747 664.40625 43.724747Q663.7969 44.08412 663.3125 44.255997L663.3125 43.24037Q664.1875 42.818497 664.84375 42.24037Q665.5156 41.64662 665.7969 41.08412L666.46875 41.08412L666.46875 49.70912ZM675.0469 48.693497L675.0469 49.70912L669.3594 49.70912Q669.3594 49.33412 669.4844 48.974747Q669.7031 48.39662 670.1719 47.83412Q670.65625 47.27162 671.5625 46.537247Q672.96875 45.380997 673.4531 44.70912Q673.9531 44.037247 673.9531 43.443497Q673.9531 42.818497 673.5 42.39662Q673.0469 41.95912 672.3281 41.95912Q671.5625 41.95912 671.1094 42.412247Q670.65625 42.86537 670.6406 43.67787L669.5625 43.568497Q669.6719 42.349747 670.3906 41.724747Q671.125 41.08412 672.3594 41.08412Q673.59375 41.08412 674.3125 41.77162Q675.03125 42.45912 675.03125 43.474747Q675.03125 43.99037 674.8125 44.49037Q674.6094 44.974747 674.1094 45.537247Q673.625 46.08412 672.5 47.037247Q671.5469 47.83412 671.2656 48.130997Q671.0 48.412247 670.8281 48.693497L675.0469 48.693497ZM677.09375 49.70912L677.09375 48.505997L678.2969 48.505997L678.2969 49.70912L677.09375 49.70912ZM684.96875 43.224747L683.9219 43.30287Q683.78125 42.67787 683.53125 42.39662Q683.09375 41.943497 682.46875 41.943497Q681.96875 41.943497 681.5781 42.224747Q681.09375 42.599747 680.7969 43.30287Q680.5156 43.99037 680.5 45.27162Q680.875 44.693497 681.4219 44.412247Q681.9844 44.130997 682.59375 44.130997Q683.6406 44.130997 684.375 44.912247Q685.125 45.693497 685.125 46.912247Q685.125 47.724747 684.7656 48.42787Q684.4219 49.11537 683.8125 49.49037Q683.2031 49.849747 682.4375 49.849747Q681.1094 49.849747 680.28125 48.880997Q679.4531 47.912247 679.4531 45.693497Q679.4531 43.193497 680.375 42.068497Q681.1719 41.08412 682.53125 41.08412Q683.5469 41.08412 684.1875 41.662247Q684.84375 42.224747 684.96875 43.224747ZM680.6719 46.92787Q680.6719 47.474747 680.8906 47.974747Q681.125 48.45912 681.53125 48.724747Q681.9531 48.99037 682.4219 48.99037Q683.0781 48.99037 683.5625 48.45912Q684.0469 47.912247 684.0469 46.99037Q684.0469 46.099747 683.5625 45.58412Q683.09375 45.068497 682.375 45.068497Q681.65625 45.068497 681.15625 45.58412Q680.6719 46.099747 680.6719 46.92787ZM686.5 47.443497L687.5625 47.30287Q687.7344 48.193497 688.1719 48.599747Q688.6094 48.99037 689.2344 48.99037Q689.9844 48.99037 690.5 48.474747Q691.0156 47.95912 691.0156 47.193497Q691.0156 46.474747 690.53125 46.005997Q690.0625 45.52162 689.3281 45.52162Q689.03125 45.52162 688.5781 45.64662L688.7031 44.70912Q688.8125 44.724747 688.875 44.724747Q689.5469 44.724747 690.0781 44.380997Q690.625 44.02162 690.625 43.287247Q690.625 42.70912 690.2344 42.33412Q689.84375 41.943497 689.21875 41.943497Q688.6094 41.943497 688.1875 42.33412Q687.78125 42.724747 687.6719 43.49037L686.6094 43.30287Q686.7969 42.255997 687.4844 41.67787Q688.1719 41.08412 689.1875 41.08412Q689.8906 41.08412 690.4844 41.39662Q691.0781 41.693497 691.3906 42.20912Q691.7031 42.724747 691.7031 43.318497Q691.7031 43.86537 691.40625 44.33412Q691.1094 44.787247 690.53125 45.05287Q691.28125 45.224747 691.7031 45.787247Q692.125 46.33412 692.125 47.17787Q692.125 48.30287 691.2969 49.08412Q690.4844 49.86537 689.2344 49.86537Q688.1094 49.86537 687.3594 49.193497Q686.6094 48.505997 686.5 47.443497ZM698.96875 43.224747L697.9219 43.30287Q697.78125 42.67787 697.53125 42.39662Q697.09375 41.943497 696.46875 41.943497Q695.96875 41.943497 695.5781 42.224747Q695.09375 42.599747 694.7969 43.30287Q694.5156 43.99037 694.5 45.27162Q694.875 44.693497 695.4219 44.412247Q695.9844 44.130997 696.59375 44.130997Q697.6406 44.130997 698.375 44.912247Q699.125 45.693497 699.125 46.912247Q699.125 47.724747 698.7656 48.42787Q698.4219 49.11537 697.8125 49.49037Q697.2031 49.849747 696.4375 49.849747Q695.1094 49.849747 694.28125 48.880997Q693.4531 47.912247 693.4531 45.693497Q693.4531 43.193497 694.375 42.068497Q695.1719 41.08412 696.53125 41.08412Q697.5469 41.08412 698.1875 41.662247Q698.84375 42.224747 698.96875 43.224747ZM694.6719 46.92787Q694.6719 47.474747 694.8906 47.974747Q695.125 48.45912 695.53125 48.724747Q695.9531 48.99037 696.4219 48.99037Q697.0781 48.99037 697.5625 48.45912Q698.0469 47.912247 698.0469 46.99037Q698.0469 46.099747 697.5625 45.58412Q697.09375 45.068497 696.375 45.068497Q695.65625 45.068497 695.15625 45.58412Q694.6719 46.099747 694.6719 46.92787Z" fill-rule="nonzero"/><path fill="#434343" d="M666.46875 49.70912L665.4219 49.70912L665.4219 42.99037Q665.03125 43.349747 664.40625 43.724747Q663.7969 44.08412 663.3125 44.255997L663.3125 43.24037Q664.1875 42.818497 664.84375 42.24037Q665.5156 41.64662 665.7969 41.08412L666.46875 41.08412L666.46875 49.70912ZM675.0469 48.693497L675.0469 49.70912L669.3594 49.70912Q669.3594 49.33412 669.4844 48.974747Q669.7031 48.39662 670.1719 47.83412Q670.65625 47.27162 671.5625 46.537247Q672.96875 45.380997 673.4531 44.70912Q673.9531 44.037247 673.9531 43.443497Q673.9531 42.818497 673.5 42.39662Q673.0469 41.95912 672.3281 41.95912Q671.5625 41.95912 671.1094 42.412247Q670.65625 42.86537 670.6406 43.67787L669.5625 43.568497Q669.6719 42.349747 670.3906 41.724747Q671.125 41.08412 672.3594 41.08412Q673.59375 41.08412 674.3125 41.77162Q675.03125 42.45912 675.03125 43.474747Q675.03125 43.99037 674.8125 44.49037Q674.6094 44.974747 674.1094 45.537247Q673.625 46.08412 672.5 47.037247Q671.5469 47.83412 671.2656 48.130997Q671.0 48.412247 670.8281 48.693497L675.0469 48.693497ZM677.09375 49.70912L677.09375 48.505997L678.2969 48.505997L678.2969 49.70912L677.09375 49.70912ZM684.96875 43.224747L683.9219 43.30287Q683.78125 42.67787 683.53125 42.39662Q683.09375 41.943497 682.46875 41.943497Q681.96875 41.943497 681.5781 42.224747Q681.09375 42.599747 680.7969 43.30287Q680.5156 43.99037 680.5 45.27162Q680.875 44.693497 681.4219 44.412247Q681.9844 44.130997 682.59375 44.130997Q683.6406 44.130997 684.375 44.912247Q685.125 45.693497 685.125 46.912247Q685.125 47.724747 684.7656 48.42787Q684.4219 49.11537 683.8125 49.49037Q683.2031 49.849747 682.4375 49.849747Q681.1094 49.849747 680.28125 48.880997Q679.4531 47.912247 679.4531 45.693497Q679.4531 43.193497 680.375 42.068497Q681.1719 41.08412 682.53125 41.08412Q683.5469 41.08412 684.1875 41.662247Q684.84375 42.224747 684.96875 43.224747ZM680.6719 46.92787Q680.6719 47.474747 680.8906 47.974747Q681.125 48.45912 681.53125 48.724747Q681.9531 48.99037 682.4219 48.99037Q683.0781 48.99037 683.5625 48.45912Q684.0469 47.912247 684.0469 46.99037Q684.0469 46.099747 683.5625 45.58412Q683.09375 45.068497 682.375 45.068497Q681.65625 45.068497 681.15625 45.58412Q680.6719 46.099747 680.6719 46.92787ZM686.5 47.443497L687.5625 47.30287Q687.7344 48.193497 688.1719 48.599747Q688.6094 48.99037 689.2344 48.99037Q689.9844 48.99037 690.5 48.474747Q691.0156 47.95912 691.0156 47.193497Q691.0156 46.474747 690.53125 46.005997Q690.0625 45.52162 689.3281 45.52162Q689.03125 45.52162 688.5781 45.64662L688.7031 44.70912Q688.8125 44.724747 688.875 44.724747Q689.5469 44.724747 690.0781 44.380997Q690.625 44.02162 690.625 43.287247Q690.625 42.70912 690.2344 42.33412Q689.84375 41.943497 689.21875 41.943497Q688.6094 41.943497 688.1875 42.33412Q687.78125 42.724747 687.6719 43.49037L686.6094 43.30287Q686.7969 42.255997 687.4844 41.67787Q688.1719 41.08412 689.1875 41.08412Q689.8906 41.08412 690.4844 41.39662Q691.0781 41.693497 691.3906 42.20912Q691.7031 42.724747 691.7031 43.318497Q691.7031 43.86537 691.40625 44.33412Q691.1094 44.787247 690.53125 45.05287Q691.28125 45.224747 691.7031 45.787247Q692.125 46.33412 692.125 47.17787Q692.125 48.30287 691.2969 49.08412Q690.4844 49.86537 689.2344 49.86537Q688.1094 49.86537 687.3594 49.193497Q686.6094 48.505997 686.5 47.443497ZM698.96875 43.224747L697.9219 43.30287Q697.78125 42.67787 697.53125 42.39662Q697.09375 41.943497 696.46875 41.943497Q695.96875 41.943497 695.5781 42.224747Q695.09375 42.599747 694.7969 43.30287Q694.5156 43.99037 694.5 45.27162Q694.875 44.693497 695.4219 44.412247Q695.9844 44.130997 696.59375 44.130997Q697.6406 44.130997 698.375 44.912247Q699.125 45.693497 699.125 46.912247Q699.125 47.724747 698.7656 48.42787Q698.4219 49.11537 697.8125 49.49037Q697.2031 49.849747 696.4375 49.849747Q695.1094 49.849747 694.28125 48.880997Q693.4531 47.912247 693.4531 45.693497Q693.4531 43.193497 694.375 42.068497Q695.1719 41.08412 696.53125 41.08412Q697.5469 41.08412 698.1875 41.662247Q698.84375 42.224747 698.96875 43.224747ZM694.6719 46.92787Q694.6719 47.474747 694.8906 47.974747Q695.125 48.45912 695.53125 48.724747Q695.9531 48.99037 696.4219 48.99037Q697.0781 48.99037 697.5625 48.45912Q698.0469 47.912247 698.0469 46.99037Q698.0469 46.099747 697.5625 45.58412Q697.09375 45.068497 696.375 45.068497Q695.65625 45.068497 695.15625 45.58412Q694.6719 46.099747 694.6719 46.92787Z" fill-rule="nonzero"/><path fill="#000000" d="M26.212505 200.90625L27.13438 200.75Q27.22813 201.20312 27.22813 201.54688Q27.22813 202.125 27.056255 202.4375Q26.868755 202.75 26.57188 202.89062Q26.275005 203.01562 25.32188 203.01562L21.743755 203.01562L21.743755 203.78125L20.931255 203.78125L20.931255 203.01562L19.38438 203.01562L18.75938 201.96875L20.931255 201.96875L20.931255 200.90625L21.743755 200.90625L21.743755 201.96875L25.38438 201.96875Q25.837505 201.96875 25.962505 201.92188Q26.087505 201.85938 26.16563 201.73438Q26.243755 201.60938 26.243755 201.375Q26.243755 201.1875 26.212505 200.90625ZM19.775005 200.20312L18.556255 200.20312L18.556255 199.14062L19.775005 199.14062L19.775005 200.20312ZM27.150005 200.20312L20.931255 200.20312L20.931255 199.14062L27.150005 199.14062L27.150005 200.20312ZM27.150005 197.20312L20.931255 197.20312L20.931255 196.26562L21.806255 196.26562Q21.337505 195.96875 21.07188 195.48438Q20.79063 195.0 20.79063 194.375Q20.79063 193.6875 21.07188 193.25Q21.35313 192.79688 21.868755 192.625Q20.79063 191.875 20.79063 190.70312Q20.79063 189.76562 21.306255 189.28125Q21.806255 188.78125 22.88438 188.78125L27.150005 188.78125L27.150005 189.82812L23.22813 189.82812Q22.60313 189.82812 22.32188 189.9375Q22.04063 190.03125 21.868755 190.29688Q21.69688 190.5625 21.69688 190.9375Q21.69688 191.59375 22.13438 192.03125Q22.57188 192.45312 23.54063 192.45312L27.150005 192.45312L27.150005 193.51562L23.10313 193.51562Q22.400005 193.51562 22.056255 193.78125Q21.69688 194.03125 21.69688 194.60938Q21.69688 195.0625 21.931255 195.4375Q22.16563 195.8125 22.618755 195.98438Q23.07188 196.15625 23.91563 196.15625L27.150005 196.15625L27.150005 197.20312ZM25.150005 182.95312L25.275005 181.85938Q26.22813 182.10938 26.75938 182.8125Q27.29063 183.51562 27.29063 184.59375Q27.29063 185.95312 26.44688 186.76562Q25.60313 187.5625 24.087505 187.5625Q22.525005 187.5625 21.66563 186.75Q20.79063 185.9375 20.79063 184.65625Q20.79063 183.40625 21.63438 182.625Q22.47813 181.82812 24.025005 181.82812Q24.118755 181.82812 24.306255 181.82812L24.306255 186.46875Q25.337505 186.40625 25.88438 185.89062Q26.41563 185.375 26.41563 184.59375Q26.41563 184.01562 26.118755 183.60938Q25.806255 183.1875 25.150005 182.95312ZM23.44688 186.40625L23.44688 182.9375Q22.650005 183.0 22.25938 183.32812Q21.650005 183.84375 21.650005 184.64062Q21.650005 185.375 22.13438 185.875Q22.618755 186.35938 23.44688 186.40625ZM19.775005 177.20312L18.556255 177.20312L18.556255 176.14062L19.775005 176.14062L19.775005 177.20312ZM27.150005 177.20312L20.931255 177.20312L20.931255 176.14062L27.150005 176.14062L27.150005 177.20312ZM27.150005 174.20312L20.931255 174.20312L20.931255 173.26562L21.806255 173.26562Q20.79063 172.57812 20.79063 171.28125Q20.79063 170.71875 20.993755 170.25Q21.19688 169.76562 21.525005 169.53125Q21.85313 169.29688 22.29063 169.20312Q22.587505 169.15625 23.32188 169.15625L27.150005 169.15625L27.150005 170.20312L23.368755 170.20312Q22.712505 170.20312 22.400005 170.32812Q22.087505 170.45312 21.900005 170.76562Q21.69688 171.07812 21.69688 171.5Q21.69688 172.17188 22.13438 172.67188Q22.556255 173.15625 23.743755 173.15625L27.150005 173.15625L27.150005 174.20312ZM25.29063 164.625L25.13438 163.59375Q25.75938 163.5 26.087505 163.10938Q26.41563 162.70312 26.41563 161.96875Q26.41563 161.25 26.13438 160.90625Q25.837505 160.54688 25.431255 160.54688Q25.07188 160.54688 24.868755 160.85938Q24.72813 161.07812 24.50938 161.9375Q24.212505 163.09375 24.00938 163.54688Q23.79063 163.98438 23.41563 164.21875Q23.04063 164.45312 22.57188 164.45312Q22.16563 164.45312 21.806255 164.26562Q21.44688 164.07812 21.212505 163.75Q21.04063 163.5 20.91563 163.07812Q20.79063 162.65625 20.79063 162.15625Q20.79063 161.4375 21.00938 160.89062Q21.212505 160.32812 21.57188 160.0625Q21.931255 159.79688 22.525005 159.70312L22.66563 160.73438Q22.19688 160.79688 21.931255 161.14062Q21.650005 161.46875 21.650005 162.09375Q21.650005 162.8125 21.900005 163.125Q22.13438 163.4375 22.462505 163.4375Q22.66563 163.4375 22.82188 163.3125Q22.993755 163.17188 23.10313 162.90625Q23.16563 162.75 23.368755 161.96875Q23.681255 160.84375 23.868755 160.40625Q24.056255 159.96875 24.41563 159.71875Q24.775005 159.46875 25.32188 159.46875Q25.85313 159.46875 26.32188 159.78125Q26.775005 160.07812 27.04063 160.65625Q27.29063 161.23438 27.29063 161.96875Q27.29063 163.1875 26.79063 163.82812Q26.275005 164.45312 25.29063 164.625ZM25.150005 153.95312L25.275005 152.85938Q26.22813 153.10938 26.75938 153.8125Q27.29063 154.51562 27.29063 155.59375Q27.29063 156.95312 26.44688 157.76562Q25.60313 158.5625 24.087505 158.5625Q22.525005 158.5625 21.66563 157.75Q20.79063 156.9375 20.79063 155.65625Q20.79063 154.40625 21.63438 153.625Q22.47813 152.82812 24.025005 152.82812Q24.118755 152.82812 24.306255 152.82812L24.306255 157.46875Q25.337505 157.40625 25.88438 156.89062Q26.41563 156.375 26.41563 155.59375Q26.41563 155.01562 26.118755 154.60938Q25.806255 154.1875 25.150005 153.95312ZM23.44688 157.40625L23.44688 153.9375Q22.650005 154.0 22.25938 154.32812Q21.650005 154.84375 21.650005 155.64062Q21.650005 156.375 22.13438 156.875Q22.618755 157.35938 23.44688 157.40625ZM24.868755 147.14062L25.00938 146.10938Q26.07188 146.28125 26.681255 146.98438Q27.29063 147.6875 27.29063 148.70312Q27.29063 149.98438 26.462505 150.76562Q25.618755 151.53125 24.056255 151.53125Q23.056255 151.53125 22.306255 151.20312Q21.54063 150.85938 21.16563 150.1875Q20.79063 149.5 20.79063 148.6875Q20.79063 147.6875 21.306255 147.04688Q21.806255 146.39062 22.75938 146.20312L22.91563 147.23438Q22.29063 147.375 21.97813 147.75Q21.650005 148.125 21.650005 148.65625Q21.650005 149.45312 22.22813 149.95312Q22.79063 150.45312 24.025005 150.45312Q25.29063 150.45312 25.85313 149.96875Q26.41563 149.48438 26.41563 148.71875Q26.41563 148.09375 26.04063 147.6875Q25.66563 147.26562 24.868755 147.14062ZM24.04063 145.59375Q22.306255 145.59375 21.47813 144.64062Q20.79063 143.84375 20.79063 142.6875Q20.79063 141.40625 21.63438 140.59375Q22.462505 139.76562 23.94688 139.76562Q25.150005 139.76562 25.837505 140.125Q26.525005 140.48438 26.91563 141.1875Q27.29063 141.875 27.29063 142.6875Q27.29063 143.98438 26.462505 144.79688Q25.618755 145.59375 24.04063 145.59375ZM24.04063 144.51562Q25.22813 144.51562 25.82188 144.0Q26.41563 143.46875 26.41563 142.6875Q26.41563 141.89062 25.82188 141.375Q25.22813 140.85938 24.00938 140.85938Q22.85313 140.85938 22.25938 141.39062Q21.66563 141.90625 21.66563 142.6875Q21.66563 143.46875 22.25938 144.0Q22.837505 144.51562 24.04063 144.51562ZM27.150005 138.20312L20.931255 138.20312L20.931255 137.26562L21.806255 137.26562Q20.79063 136.57812 20.79063 135.28125Q20.79063 134.71875 20.993755 134.25Q21.19688 133.76562 21.525005 133.53125Q21.85313 133.29688 22.29063 133.20312Q22.587505 133.15625 23.32188 133.15625L27.150005 133.15625L27.150005 134.20312L23.368755 134.20312Q22.712505 134.20312 22.400005 134.32812Q22.087505 134.45312 21.900005 134.76562Q21.69688 135.07812 21.69688 135.5Q21.69688 136.17188 22.13438 136.67188Q22.556255 137.15625 23.743755 137.15625L27.150005 137.15625L27.150005 138.20312ZM27.150005 127.171875L26.368755 127.171875Q27.29063 127.765625 27.29063 128.90625Q27.29063 129.65625 26.88438 130.28125Q26.462505 130.90625 25.72813 131.25Q24.993755 131.59375 24.04063 131.59375Q23.118755 131.59375 22.35313 131.28125Q21.587505 130.96875 21.19688 130.34375Q20.79063 129.71875 20.79063 128.95312Q20.79063 128.39062 21.025005 127.953125Q21.25938 127.515625 21.63438 127.234375L18.556255 127.234375L18.556255 126.1875L27.150005 126.1875L27.150005 127.171875ZM24.04063 130.5Q25.243755 130.5 25.837505 130.0Q26.41563 129.5 26.41563 128.8125Q26.41563 128.125 25.85313 127.640625Q25.29063 127.15625 24.13438 127.15625Q22.85313 127.15625 22.25938 127.65625Q21.66563 128.14062 21.66563 128.85938Q21.66563 129.5625 22.243755 130.03125Q22.806255 130.5 24.04063 130.5ZM25.29063 124.625L25.13438 123.59375Q25.75938 123.5 26.087505 123.109375Q26.41563 122.703125 26.41563 121.96875Q26.41563 121.25 26.13438 120.90625Q25.837505 120.546875 25.431255 120.546875Q25.07188 120.546875 24.868755 120.859375Q24.72813 121.078125 24.50938 121.9375Q24.212505 123.09375 24.00938 123.546875Q23.79063 123.984375 23.41563 124.21875Q23.04063 124.453125 22.57188 124.453125Q22.16563 124.453125 21.806255 124.265625Q21.44688 124.078125 21.212505 123.75Q21.04063 123.5 20.91563 123.078125Q20.79063 122.65625 20.79063 122.15625Q20.79063 121.4375 21.00938 120.890625Q21.212505 120.328125 21.57188 120.0625Q21.931255 119.796875 22.525005 119.703125L22.66563 120.734375Q22.19688 120.796875 21.931255 121.140625Q21.650005 121.46875 21.650005 122.09375Q21.650005 122.8125 21.900005 123.125Q22.13438 123.4375 22.462505 123.4375Q22.66563 123.4375 22.82188 123.3125Q22.993755 123.171875 23.10313 122.90625Q23.16563 122.75 23.368755 121.96875Q23.681255 120.84375 23.868755 120.40625Q24.056255 119.96875 24.41563 119.71875Q24.775005 119.46875 25.32188 119.46875Q25.85313 119.46875 26.32188 119.78125Q26.775005 120.078125 27.04063 120.65625Q27.29063 121.234375 27.29063 121.96875Q27.29063 123.1875 26.79063 123.828125Q26.275005 124.453125 25.29063 124.625Z" fill-rule="nonzero"/><path fill="#000000" d="M62.65 286.61563Q62.65 285.08438 62.9625 284.1625Q63.275 283.225 63.884377 282.725Q64.50938 282.225 65.44688 282.225Q66.13438 282.225 66.65 282.50626Q67.18125 282.7875 67.525 283.31876Q67.86875 283.83438 68.05625 284.58438Q68.24375 285.33438 68.24375 286.61563Q68.24375 288.13126 67.93125 289.05313Q67.63438 289.975 67.00938 290.49063Q66.4 290.99063 65.44688 290.99063Q64.2125 290.99063 63.49375 290.1Q62.65 289.0375 62.65 286.61563ZM63.728127 286.61563Q63.728127 288.725 64.22813 289.42813Q64.72813 290.13126 65.44688 290.13126Q66.18125 290.13126 66.66563 289.42813Q67.16563 288.725 67.16563 286.61563Q67.16563 284.49063 66.66563 283.80313Q66.18125 283.1 65.43125 283.1Q64.7125 283.1 64.275 283.70938Q63.728127 284.49063 63.728127 286.61563Z" fill-rule="nonzero"/><path fill="#000000" d="M62.65 200.7L63.759377 200.60625Q63.884377 201.41875 64.32188 201.825Q64.775 202.23125 65.41563 202.23125Q66.16563 202.23125 66.69688 201.65312Q67.22813 201.075 67.22813 200.1375Q67.22813 199.23125 66.7125 198.71562Q66.2125 198.18437 65.38438 198.18437Q64.88438 198.18437 64.4625 198.41875Q64.05625 198.65312 63.821877 199.0125L62.8375 198.8875L63.665627 194.48125L67.94688 194.48125L67.94688 195.48125L64.50938 195.48125L64.05625 197.79375Q64.82188 197.24687 65.66563 197.24687Q66.79063 197.24687 67.55625 198.02812Q68.3375 198.80937 68.3375 200.04375Q68.3375 201.2 67.66563 202.05937Q66.8375 203.09062 65.41563 203.09062Q64.24375 203.09062 63.49375 202.43437Q62.759377 201.77812 62.65 200.7Z" fill-rule="nonzero"/><path fill="#000000" d="M59.61875 115.05L58.571877 115.05L58.571877 108.33125Q58.18125 108.69063 57.55625 109.06563Q56.946877 109.425 56.4625 109.59688L56.4625 108.58125Q57.3375 108.15938 57.99375 107.58125Q58.665627 106.9875 58.946877 106.425L59.61875 106.425L59.61875 115.05ZM62.65 110.81563Q62.65 109.28438 62.9625 108.3625Q63.275 107.425 63.884377 106.925Q64.50938 106.425 65.44688 106.425Q66.13438 106.425 66.65 106.70625Q67.18125 106.9875 67.525 107.51875Q67.86875 108.03438 68.05625 108.78438Q68.24375 109.53438 68.24375 110.81563Q68.24375 112.33125 67.93125 113.25313Q67.63438 114.175 67.00938 114.69063Q66.4 115.19063 65.44688 115.19063Q64.2125 115.19063 63.49375 114.3Q62.65 113.2375 62.65 110.81563ZM63.728127 110.81563Q63.728127 112.925 64.22813 113.62813Q64.72813 114.33125 65.44688 114.33125Q66.18125 114.33125 66.66563 113.62813Q67.16563 112.925 67.16563 110.81563Q67.16563 108.69063 66.66563 108.00313Q66.18125 107.3 65.43125 107.3Q64.7125 107.3 64.275 107.90938Q63.728127 108.69063 63.728127 110.81563Z" fill-rule="nonzero"/><path fill="#000000" d="M59.61875 27.15L58.571877 27.15L58.571877 20.43125Q58.18125 20.790625 57.55625 21.165625Q56.946877 21.525 56.4625 21.696875L56.4625 20.68125Q57.3375 20.259375 57.99375 19.68125Q58.665627 19.0875 58.946877 18.525L59.61875 18.525L59.61875 27.15ZM62.65 24.9L63.759377 24.80625Q63.884377 25.61875 64.32188 26.025Q64.775 26.43125 65.41563 26.43125Q66.16563 26.43125 66.69688 25.853125Q67.22813 25.275 67.22813 24.3375Q67.22813 23.43125 66.7125 22.915625Q66.2125 22.384375 65.38438 22.384375Q64.88438 22.384375 64.4625 22.61875Q64.05625 22.853125 63.821877 23.2125L62.8375 23.0875L63.665627 18.68125L67.94688 18.68125L67.94688 19.68125L64.50938 19.68125L64.05625 21.99375Q64.82188 21.446875 65.66563 21.446875Q66.79063 21.446875 67.55625 22.228125Q68.3375 23.009375 68.3375 24.24375Q68.3375 25.4 67.66563 26.259375Q66.8375 27.290625 65.41563 27.290625Q64.24375 27.290625 63.49375 26.634375Q62.759377 25.978125 62.65 24.9Z" fill-rule="nonzero"/><path fill="#000000" d="M129.00102 303.85L129.00102 303.06876Q128.40727 303.99063 127.26665 303.99063Q126.51665 303.99063 125.89165 303.58438Q125.26665 303.1625 124.9229 302.42813Q124.57915 301.69376 124.57915 300.74063Q124.57915 299.81876 124.89165 299.05313Q125.20415 298.2875 125.82915 297.89688Q126.45415 297.49063 127.21977 297.49063Q127.78227 297.49063 128.21977 297.725Q128.65727 297.95938 128.93852 298.33438L128.93852 295.25626L129.9854 295.25626L129.9854 303.85L129.00102 303.85ZM125.6729 300.74063Q125.6729 301.94376 126.1729 302.5375Q126.6729 303.11563 127.3604 303.11563Q128.0479 303.11563 128.53227 302.55313Q129.01665 301.99063 129.01665 300.83438Q129.01665 299.55313 128.51665 298.95938Q128.03227 298.36563 127.31352 298.36563Q126.6104 298.36563 126.14165 298.94376Q125.6729 299.50626 125.6729 300.74063ZM136.21977 301.85L137.31352 301.975Q137.06352 302.92813 136.3604 303.45938Q135.65727 303.99063 134.57915 303.99063Q133.21977 303.99063 132.40727 303.14688Q131.6104 302.30313 131.6104 300.7875Q131.6104 299.225 132.4229 298.36563Q133.2354 297.49063 134.51665 297.49063Q135.76665 297.49063 136.5479 298.33438Q137.34477 299.17813 137.34477 300.725Q137.34477 300.81876 137.34477 301.00626L132.70415 301.00626Q132.76665 302.0375 133.28227 302.58438Q133.7979 303.11563 134.57915 303.11563Q135.15727 303.11563 135.56352 302.81876Q135.9854 302.50626 136.21977 301.85ZM132.76665 300.14688L136.2354 300.14688Q136.1729 299.35 135.84477 298.95938Q135.32915 298.35 134.53227 298.35Q133.7979 298.35 133.2979 298.83438Q132.81352 299.31876 132.76665 300.14688ZM139.21977 303.85L139.21977 298.44376L138.28227 298.44376L138.28227 297.63126L139.21977 297.63126L139.21977 296.95938Q139.21977 296.33438 139.32915 296.0375Q139.4854 295.61563 139.8604 295.36563Q140.25102 295.11563 140.93852 295.11563Q141.39165 295.11563 141.9229 295.225L141.76665 296.13126Q141.43852 296.08438 141.14165 296.08438Q140.65727 296.08438 140.45415 296.2875Q140.26665 296.49063 140.26665 297.05313L140.26665 297.63126L141.4854 297.63126L141.4854 298.44376L140.26665 298.44376L140.26665 303.85L139.21977 303.85ZM146.03227 303.08438Q145.43852 303.58438 144.89165 303.7875Q144.3604 303.99063 143.7354 303.99063Q142.70415 303.99063 142.15727 303.49063Q141.6104 302.99063 141.6104 302.20938Q141.6104 301.75626 141.81352 301.38126Q142.01665 300.99063 142.3604 300.77188Q142.70415 300.5375 143.12602 300.42813Q143.4229 300.33438 144.06352 300.25626Q145.32915 300.11563 145.93852 299.89688Q145.93852 299.67813 145.93852 299.63126Q145.93852 298.975 145.64165 298.70938Q145.2354 298.36563 144.43852 298.36563Q143.70415 298.36563 143.34477 298.63126Q142.9854 298.88126 142.81352 299.5375L141.78227 299.39688Q141.9229 298.74063 142.25102 298.33438Q142.57915 297.92813 143.18852 297.70938Q143.7979 297.49063 144.59477 297.49063Q145.39165 297.49063 145.89165 297.67813Q146.39165 297.86563 146.62602 298.14688Q146.8604 298.42813 146.95415 298.86563Q147.00102 299.13126 147.00102 299.83438L147.00102 301.24063Q147.00102 302.70938 147.06352 303.1Q147.14165 303.49063 147.34477 303.85L146.2354 303.85Q146.07915 303.52188 146.03227 303.08438ZM145.93852 300.725Q145.3604 300.95938 144.21977 301.13126Q143.56352 301.225 143.2979 301.35Q143.03227 301.45938 142.87602 301.67813Q142.7354 301.89688 142.7354 302.17813Q142.7354 302.6 143.0479 302.88126Q143.37602 303.1625 143.9854 303.1625Q144.59477 303.1625 145.06352 302.89688Q145.5479 302.63126 145.76665 302.1625Q145.93852 301.80313 145.93852 301.11563L145.93852 300.725ZM153.0479 303.85L153.0479 302.92813Q152.31352 303.99063 151.06352 303.99063Q150.51665 303.99063 150.03227 303.7875Q149.56352 303.56876 149.32915 303.25626Q149.09477 302.92813 149.00102 302.45938Q148.93852 302.1625 148.93852 301.475L148.93852 297.63126L150.00102 297.63126L150.00102 301.08438Q150.00102 301.89688 150.06352 302.19376Q150.15727 302.6 150.46977 302.85Q150.7979 303.08438 151.28227 303.08438Q151.75102 303.08438 152.15727 302.85Q152.57915 302.6 152.75102 302.17813Q152.93852 301.75626 152.93852 300.95938L152.93852 297.63126L153.9854 297.63126L153.9854 303.85L153.0479 303.85ZM155.93852 303.85L155.93852 295.25626L157.00102 295.25626L157.00102 303.85L155.93852 303.85ZM161.26665 302.9125L161.4229 303.83438Q160.96977 303.92813 160.62602 303.92813Q160.0479 303.92813 159.7354 303.75626Q159.4229 303.56876 159.28227 303.27188Q159.15727 302.975 159.15727 302.02188L159.15727 298.44376L158.39165 298.44376L158.39165 297.63126L159.15727 297.63126L159.15727 296.08438L160.20415 295.45938L160.20415 297.63126L161.26665 297.63126L161.26665 298.44376L160.20415 298.44376L160.20415 302.08438Q160.20415 302.5375 160.25102 302.6625Q160.31352 302.7875 160.43852 302.86563Q160.56352 302.94376 160.7979 302.94376Q160.9854 302.94376 161.26665 302.9125ZM169.00102 303.85L169.00102 303.06876Q168.40727 303.99063 167.26665 303.99063Q166.51665 303.99063 165.89165 303.58438Q165.26665 303.1625 164.9229 302.42813Q164.57915 301.69376 164.57915 300.74063Q164.57915 299.81876 164.89165 299.05313Q165.20415 298.2875 165.82915 297.89688Q166.45415 297.49063 167.21977 297.49063Q167.78227 297.49063 168.21977 297.725Q168.65727 297.95938 168.93852 298.33438L168.93852 295.25626L169.9854 295.25626L169.9854 303.85L169.00102 303.85ZM165.6729 300.74063Q165.6729 301.94376 166.1729 302.5375Q166.6729 303.11563 167.3604 303.11563Q168.0479 303.11563 168.53227 302.55313Q169.01665 301.99063 169.01665 300.83438Q169.01665 299.55313 168.51665 298.95938Q168.03227 298.36563 167.31352 298.36563Q166.6104 298.36563 166.14165 298.94376Q165.6729 299.50626 165.6729 300.74063ZM171.57915 300.74063Q171.57915 299.00626 172.53227 298.17813Q173.32915 297.49063 174.4854 297.49063Q175.76665 297.49063 176.57915 298.33438Q177.40727 299.1625 177.40727 300.64688Q177.40727 301.85 177.0479 302.5375Q176.68852 303.225 175.9854 303.61563Q175.2979 303.99063 174.4854 303.99063Q173.18852 303.99063 172.37602 303.1625Q171.57915 302.31876 171.57915 300.74063ZM172.65727 300.74063Q172.65727 301.92813 173.1729 302.52188Q173.70415 303.11563 174.4854 303.11563Q175.28227 303.11563 175.7979 302.52188Q176.31352 301.92813 176.31352 300.70938Q176.31352 299.55313 175.78227 298.95938Q175.26665 298.36563 174.4854 298.36563Q173.70415 298.36563 173.1729 298.95938Q172.65727 299.5375 172.65727 300.74063ZM183.03227 301.56876L184.06352 301.70938Q183.89165 302.77188 183.18852 303.38126Q182.4854 303.99063 181.46977 303.99063Q180.18852 303.99063 179.40727 303.1625Q178.64165 302.31876 178.64165 300.75626Q178.64165 299.75626 178.96977 299.00626Q179.31352 298.24063 179.9854 297.86563Q180.6729 297.49063 181.4854 297.49063Q182.4854 297.49063 183.12602 298.00626Q183.78227 298.50626 183.96977 299.45938L182.93852 299.61563Q182.7979 298.99063 182.4229 298.67813Q182.0479 298.35 181.51665 298.35Q180.71977 298.35 180.21977 298.92813Q179.71977 299.49063 179.71977 300.725Q179.71977 301.99063 180.20415 302.55313Q180.68852 303.11563 181.45415 303.11563Q182.07915 303.11563 182.4854 302.74063Q182.90727 302.36563 183.03227 301.56876ZM184.96977 303.85L184.96977 295.25626L186.03227 295.25626L186.03227 300.1625L188.51665 297.63126L189.89165 297.63126L187.50102 299.92813L190.12602 303.85L188.82915 303.85L186.76665 300.6625L186.03227 301.38126L186.03227 303.85L184.96977 303.85ZM195.21977 301.85L196.31352 301.975Q196.06352 302.92813 195.3604 303.45938Q194.65727 303.99063 193.57915 303.99063Q192.21977 303.99063 191.40727 303.14688Q190.6104 302.30313 190.6104 300.7875Q190.6104 299.225 191.4229 298.36563Q192.2354 297.49063 193.51665 297.49063Q194.76665 297.49063 195.5479 298.33438Q196.34477 299.17813 196.34477 300.725Q196.34477 300.81876 196.34477 301.00626L191.70415 301.00626Q191.76665 302.0375 192.28227 302.58438Q192.7979 303.11563 193.57915 303.11563Q194.15727 303.11563 194.56352 302.81876Q194.9854 302.50626 195.21977 301.85ZM191.76665 300.14688L195.2354 300.14688Q195.1729 299.35 194.84477 298.95938Q194.32915 298.35 193.53227 298.35Q192.7979 298.35 192.2979 298.83438Q191.81352 299.31876 191.76665 300.14688ZM197.95415 303.85L197.95415 297.63126L198.90727 297.63126L198.90727 298.56876Q199.26665 297.9125 199.56352 297.70938Q199.87602 297.49063 200.25102 297.49063Q200.78227 297.49063 201.32915 297.81876L200.96977 298.80313Q200.57915 298.56876 200.20415 298.56876Q199.84477 298.56876 199.56352 298.7875Q199.2979 298.99063 199.18852 299.36563Q199.00102 299.92813 199.00102 300.58438L199.00102 303.85L197.95415 303.85Z" fill-rule="nonzero"/><path fill="#000000" d="M219.66457 303.85L219.66457 303.06876Q219.07082 303.99063 217.93019 303.99063Q217.18019 303.99063 216.55519 303.58438Q215.93019 303.1625 215.58644 302.42813Q215.24269 301.69376 215.24269 300.74063Q215.24269 299.81876 215.55519 299.05313Q215.86769 298.2875 216.49269 297.89688Q217.11769 297.49063 217.88332 297.49063Q218.44582 297.49063 218.88332 297.725Q219.32082 297.95938 219.60207 298.33438L219.60207 295.25626L220.64894 295.25626L220.64894 303.85L219.66457 303.85ZM216.33644 300.74063Q216.33644 301.94376 216.83644 302.5375Q217.33644 303.11563 218.02394 303.11563Q218.71144 303.11563 219.19582 302.55313Q219.68019 301.99063 219.68019 300.83438Q219.68019 299.55313 219.18019 298.95938Q218.69582 298.36563 217.97707 298.36563Q217.27394 298.36563 216.80519 298.94376Q216.33644 299.50626 216.33644 300.74063ZM226.88332 301.85L227.97707 301.975Q227.72707 302.92813 227.02394 303.45938Q226.32082 303.99063 225.24269 303.99063Q223.88332 303.99063 223.07082 303.14688Q222.27394 302.30313 222.27394 300.7875Q222.27394 299.225 223.08644 298.36563Q223.89894 297.49063 225.18019 297.49063Q226.43019 297.49063 227.21144 298.33438Q228.00832 299.17813 228.00832 300.725Q228.00832 300.81876 228.00832 301.00626L223.36769 301.00626Q223.43019 302.0375 223.94582 302.58438Q224.46144 303.11563 225.24269 303.11563Q225.82082 303.11563 226.22707 302.81876Q226.64894 302.50626 226.88332 301.85ZM223.43019 300.14688L226.89894 300.14688Q226.83644 299.35 226.50832 298.95938Q225.99269 298.35 225.19582 298.35Q224.46144 298.35 223.96144 298.83438Q223.47707 299.31876 223.43019 300.14688ZM229.88332 303.85L229.88332 298.44376L228.94582 298.44376L228.94582 297.63126L229.88332 297.63126L229.88332 296.95938Q229.88332 296.33438 229.99269 296.0375Q230.14894 295.61563 230.52394 295.36563Q230.91457 295.11563 231.60207 295.11563Q232.05519 295.11563 232.58644 295.225L232.43019 296.13126Q232.10207 296.08438 231.80519 296.08438Q231.32082 296.08438 231.11769 296.2875Q230.93019 296.49063 230.93019 297.05313L230.93019 297.63126L232.14894 297.63126L232.14894 298.44376L230.93019 298.44376L230.93019 303.85L229.88332 303.85ZM236.69582 303.08438Q236.10207 303.58438 235.55519 303.7875Q235.02394 303.99063 234.39894 303.99063Q233.36769 303.99063 232.82082 303.49063Q232.27394 302.99063 232.27394 302.20938Q232.27394 301.75626 232.47707 301.38126Q232.68019 300.99063 233.02394 300.77188Q233.36769 300.5375 233.78957 300.42813Q234.08644 300.33438 234.72707 300.25626Q235.99269 300.11563 236.60207 299.89688Q236.60207 299.67813 236.60207 299.63126Q236.60207 298.975 236.30519 298.70938Q235.89894 298.36563 235.10207 298.36563Q234.36769 298.36563 234.00832 298.63126Q233.64894 298.88126 233.47707 299.5375L232.44582 299.39688Q232.58644 298.74063 232.91457 298.33438Q233.24269 297.92813 233.85207 297.70938Q234.46144 297.49063 235.25832 297.49063Q236.05519 297.49063 236.55519 297.67813Q237.05519 297.86563 237.28957 298.14688Q237.52394 298.42813 237.61769 298.86563Q237.66457 299.13126 237.66457 299.83438L237.66457 301.24063Q237.66457 302.70938 237.72707 303.1Q237.80519 303.49063 238.00832 303.85L236.89894 303.85Q236.74269 303.52188 236.69582 303.08438ZM236.60207 300.725Q236.02394 300.95938 234.88332 301.13126Q234.22707 301.225 233.96144 301.35Q233.69582 301.45938 233.53957 301.67813Q233.39894 301.89688 233.39894 302.17813Q233.39894 302.6 233.71144 302.88126Q234.03957 303.1625 234.64894 303.1625Q235.25832 303.1625 235.72707 302.89688Q236.21144 302.63126 236.43019 302.1625Q236.60207 301.80313 236.60207 301.11563L236.60207 300.725ZM243.71144 303.85L243.71144 302.92813Q242.97707 303.99063 241.72707 303.99063Q241.18019 303.99063 240.69582 303.7875Q240.22707 303.56876 239.99269 303.25626Q239.75832 302.92813 239.66457 302.45938Q239.60207 302.1625 239.60207 301.475L239.60207 297.63126L240.66457 297.63126L240.66457 301.08438Q240.66457 301.89688 240.72707 302.19376Q240.82082 302.6 241.13332 302.85Q241.46144 303.08438 241.94582 303.08438Q242.41457 303.08438 242.82082 302.85Q243.24269 302.6 243.41457 302.17813Q243.60207 301.75626 243.60207 300.95938L243.60207 297.63126L244.64894 297.63126L244.64894 303.85L243.71144 303.85ZM246.60207 303.85L246.60207 295.25626L247.66457 295.25626L247.66457 303.85L246.60207 303.85ZM251.93019 302.9125L252.08644 303.83438Q251.63332 303.92813 251.28957 303.92813Q250.71144 303.92813 250.39894 303.75626Q250.08644 303.56876 249.94582 303.27188Q249.82082 302.975 249.82082 302.02188L249.82082 298.44376L249.05519 298.44376L249.05519 297.63126L249.82082 297.63126L249.82082 296.08438L250.86769 295.45938L250.86769 297.63126L251.93019 297.63126L251.93019 298.44376L250.86769 298.44376L250.86769 302.08438Q250.86769 302.5375 250.91457 302.6625Q250.97707 302.7875 251.10207 302.86563Q251.22707 302.94376 251.46144 302.94376Q251.64894 302.94376 251.93019 302.9125ZM259.66455 303.85L259.66455 303.06876Q259.0708 303.99063 257.93018 303.99063Q257.18018 303.99063 256.55518 303.58438Q255.93019 303.1625 255.58644 302.42813Q255.24269 301.69376 255.24269 300.74063Q255.24269 299.81876 255.55519 299.05313Q255.86769 298.2875 256.49268 297.89688Q257.11768 297.49063 257.8833 297.49063Q258.4458 297.49063 258.8833 297.725Q259.3208 297.95938 259.60205 298.33438L259.60205 295.25626L260.64893 295.25626L260.64893 303.85L259.66455 303.85ZM256.33643 300.74063Q256.33643 301.94376 256.83643 302.5375Q257.33643 303.11563 258.02393 303.11563Q258.71143 303.11563 259.1958 302.55313Q259.68018 301.99063 259.68018 300.83438Q259.68018 299.55313 259.18018 298.95938Q258.6958 298.36563 257.97705 298.36563Q257.27393 298.36563 256.80518 298.94376Q256.33643 299.50626 256.33643 300.74063ZM262.24268 300.74063Q262.24268 299.00626 263.1958 298.17813Q263.99268 297.49063 265.14893 297.49063Q266.43018 297.49063 267.24268 298.33438Q268.0708 299.1625 268.0708 300.64688Q268.0708 301.85 267.71143 302.5375Q267.35205 303.225 266.64893 303.61563Q265.96143 303.99063 265.14893 303.99063Q263.85205 303.99063 263.03955 303.1625Q262.24268 302.31876 262.24268 300.74063ZM263.3208 300.74063Q263.3208 301.92813 263.83643 302.52188Q264.36768 303.11563 265.14893 303.11563Q265.9458 303.11563 266.46143 302.52188Q266.97705 301.92813 266.97705 300.70938Q266.97705 299.55313 266.4458 298.95938Q265.93018 298.36563 265.14893 298.36563Q264.36768 298.36563 263.83643 298.95938Q263.3208 299.5375 263.3208 300.74063ZM273.6958 301.56876L274.72705 301.70938Q274.55518 302.77188 273.85205 303.38126Q273.14893 303.99063 272.1333 303.99063Q270.85205 303.99063 270.0708 303.1625Q269.30518 302.31876 269.30518 300.75626Q269.30518 299.75626 269.6333 299.00626Q269.97705 298.24063 270.64893 297.86563Q271.33643 297.49063 272.14893 297.49063Q273.14893 297.49063 273.78955 298.00626Q274.4458 298.50626 274.6333 299.45938L273.60205 299.61563Q273.46143 298.99063 273.08643 298.67813Q272.71143 298.35 272.18018 298.35Q271.3833 298.35 270.8833 298.92813Q270.3833 299.49063 270.3833 300.725Q270.3833 301.99063 270.86768 302.55313Q271.35205 303.11563 272.11768 303.11563Q272.74268 303.11563 273.14893 302.74063Q273.5708 302.36563 273.6958 301.56876ZM275.6333 303.85L275.6333 295.25626L276.6958 295.25626L276.6958 300.1625L279.18018 297.63126L280.55518 297.63126L278.16455 299.92813L280.78955 303.85L279.49268 303.85L277.43018 300.6625L276.6958 301.38126L276.6958 303.85L275.6333 303.85ZM285.8833 301.85L286.97705 301.975Q286.72705 302.92813 286.02393 303.45938Q285.3208 303.99063 284.24268 303.99063Q282.8833 303.99063 282.0708 303.14688Q281.27393 302.30313 281.27393 300.7875Q281.27393 299.225 282.08643 298.36563Q282.89893 297.49063 284.18018 297.49063Q285.43018 297.49063 286.21143 298.33438Q287.0083 299.17813 287.0083 300.725Q287.0083 300.81876 287.0083 301.00626L282.36768 301.00626Q282.43018 302.0375 282.9458 302.58438Q283.46143 303.11563 284.24268 303.11563Q284.8208 303.11563 285.22705 302.81876Q285.64893 302.50626 285.8833 301.85ZM282.43018 300.14688L285.89893 300.14688Q285.83643 299.35 285.5083 298.95938Q284.99268 298.35 284.1958 298.35Q283.46143 298.35 282.96143 298.83438Q282.47705 299.31876 282.43018 300.14688ZM288.61768 303.85L288.61768 297.63126L289.5708 297.63126L289.5708 298.56876Q289.93018 297.9125 290.22705 297.70938Q290.53955 297.49063 290.91455 297.49063Q291.4458 297.49063 291.99268 297.81876L291.6333 298.80313Q291.24268 298.56876 290.86768 298.56876Q290.5083 298.56876 290.22705 298.7875Q289.96143 298.99063 289.85205 299.36563Q289.66455 299.92813 289.66455 300.58438L289.66455 303.85L288.61768 303.85ZM296.77393 303.85L294.86768 297.63126L295.96143 297.63126L296.9458 301.225L297.3208 302.55313Q297.35205 302.45938 297.64893 301.27188L298.6333 297.63126L299.71143 297.63126L300.64893 301.24063L300.96143 302.42813L301.3208 301.225L302.3833 297.63126L303.41455 297.63126L301.46143 303.85L300.36768 303.85L299.3833 300.11563L299.1333 299.06876L297.8833 303.85L296.77393 303.85ZM303.83643 303.99063L306.3208 295.11563L307.16455 295.11563L304.68018 303.99063L303.83643 303.99063ZM307.24268 300.74063Q307.24268 299.00626 308.1958 298.17813Q308.99268 297.49063 310.14893 297.49063Q311.43018 297.49063 312.24268 298.33438Q313.0708 299.1625 313.0708 300.64688Q313.0708 301.85 312.71143 302.5375Q312.35205 303.225 311.64893 303.61563Q310.96143 303.99063 310.14893 303.99063Q308.85205 303.99063 308.03955 303.1625Q307.24268 302.31876 307.24268 300.74063ZM308.3208 300.74063Q308.3208 301.92813 308.83643 302.52188Q309.36768 303.11563 310.14893 303.11563Q310.9458 303.11563 311.46143 302.52188Q311.97705 301.92813 311.97705 300.70938Q311.97705 299.55313 311.4458 298.95938Q310.93018 298.36563 310.14893 298.36563Q309.36768 298.36563 308.83643 298.95938Q308.3208 299.5375 308.3208 300.74063ZM321.6958 303.08438Q321.10205 303.58438 320.55518 303.7875Q320.02393 303.99063 319.39893 303.99063Q318.36768 303.99063 317.8208 303.49063Q317.27393 302.99063 317.27393 302.20938Q317.27393 301.75626 317.47705 301.38126Q317.68018 300.99063 318.02393 300.77188Q318.36768 300.5375 318.78955 300.42813Q319.08643 300.33438 319.72705 300.25626Q320.99268 300.11563 321.60205 299.89688Q321.60205 299.67813 321.60205 299.63126Q321.60205 298.975 321.30518 298.70938Q320.89893 298.36563 320.10205 298.36563Q319.36768 298.36563 319.0083 298.63126Q318.64893 298.88126 318.47705 299.5375L317.4458 299.39688Q317.58643 298.74063 317.91455 298.33438Q318.24268 297.92813 318.85205 297.70938Q319.46143 297.49063 320.2583 297.49063Q321.05518 297.49063 321.55518 297.67813Q322.05518 297.86563 322.28955 298.14688Q322.52393 298.42813 322.61768 298.86563Q322.66455 299.13126 322.66455 299.83438L322.66455 301.24063Q322.66455 302.70938 322.72705 303.1Q322.80518 303.49063 323.0083 303.85L321.89893 303.85Q321.74268 303.52188 321.6958 303.08438ZM321.60205 300.725Q321.02393 300.95938 319.8833 301.13126Q319.22705 301.225 318.96143 301.35Q318.6958 301.45938 318.53955 301.67813Q318.39893 301.89688 318.39893 302.17813Q318.39893 302.6 318.71143 302.88126Q319.03955 303.1625 319.64893 303.1625Q320.2583 303.1625 320.72705 302.89688Q321.21143 302.63126 321.43018 302.1625Q321.60205 301.80313 321.60205 301.11563L321.60205 300.725ZM324.6333 306.24063L324.6333 297.63126L325.58643 297.63126L325.58643 298.42813Q325.93018 297.95938 326.35205 297.725Q326.78955 297.49063 327.39893 297.49063Q328.1958 297.49063 328.80518 297.89688Q329.41455 298.30313 329.71143 299.05313Q330.02393 299.80313 330.02393 300.69376Q330.02393 301.64688 329.68018 302.4125Q329.35205 303.17813 328.6958 303.58438Q328.03955 303.99063 327.3208 303.99063Q326.78955 303.99063 326.36768 303.77188Q325.9458 303.5375 325.68018 303.20938L325.68018 306.24063L324.6333 306.24063ZM325.58643 300.77188Q325.58643 301.975 326.0708 302.55313Q326.55518 303.11563 327.24268 303.11563Q327.9458 303.11563 328.4458 302.52188Q328.9458 301.92813 328.9458 300.67813Q328.9458 299.49063 328.46143 298.9125Q327.97705 298.31876 327.28955 298.31876Q326.61768 298.31876 326.10205 298.94376Q325.58643 299.56876 325.58643 300.77188ZM331.6333 306.24063L331.6333 297.63126L332.58643 297.63126L332.58643 298.42813Q332.93018 297.95938 333.35205 297.725Q333.78955 297.49063 334.39893 297.49063Q335.1958 297.49063 335.80518 297.89688Q336.41455 298.30313 336.71143 299.05313Q337.02393 299.80313 337.02393 300.69376Q337.02393 301.64688 336.68018 302.4125Q336.35205 303.17813 335.6958 303.58438Q335.03955 303.99063 334.3208 303.99063Q333.78955 303.99063 333.36768 303.77188Q332.9458 303.5375 332.68018 303.20938L332.68018 306.24063L331.6333 306.24063ZM332.58643 300.77188Q332.58643 301.975 333.0708 302.55313Q333.55518 303.11563 334.24268 303.11563Q334.9458 303.11563 335.4458 302.52188Q335.9458 301.92813 335.9458 300.67813Q335.9458 299.49063 335.46143 298.9125Q334.97705 298.31876 334.28955 298.31876Q333.61768 298.31876 333.10205 298.94376Q332.58643 299.56876 332.58643 300.77188ZM342.6958 303.08438Q342.10205 303.58438 341.55518 303.7875Q341.02393 303.99063 340.39893 303.99063Q339.36768 303.99063 338.8208 303.49063Q338.27393 302.99063 338.27393 302.20938Q338.27393 301.75626 338.47705 301.38126Q338.68018 300.99063 339.02393 300.77188Q339.36768 300.5375 339.78955 300.42813Q340.08643 300.33438 340.72705 300.25626Q341.99268 300.11563 342.60205 299.89688Q342.60205 299.67813 342.60205 299.63126Q342.60205 298.975 342.30518 298.70938Q341.89893 298.36563 341.10205 298.36563Q340.36768 298.36563 340.0083 298.63126Q339.64893 298.88126 339.47705 299.5375L338.4458 299.39688Q338.58643 298.74063 338.91455 298.33438Q339.24268 297.92813 339.85205 297.70938Q340.46143 297.49063 341.2583 297.49063Q342.05518 297.49063 342.55518 297.67813Q343.05518 297.86563 343.28955 298.14688Q343.52393 298.42813 343.61768 298.86563Q343.66455 299.13126 343.66455 299.83438L343.66455 301.24063Q343.66455 302.70938 343.72705 303.1Q343.80518 303.49063 344.0083 303.85L342.89893 303.85Q342.74268 303.52188 342.6958 303.08438ZM342.60205 300.725Q342.02393 300.95938 340.8833 301.13126Q340.22705 301.225 339.96143 301.35Q339.6958 301.45938 339.53955 301.67813Q339.39893 301.89688 339.39893 302.17813Q339.39893 302.6 339.71143 302.88126Q340.03955 303.1625 340.64893 303.1625Q341.2583 303.1625 341.72705 302.89688Q342.21143 302.63126 342.43018 302.1625Q342.60205 301.80313 342.60205 301.11563L342.60205 300.725ZM345.61768 303.85L345.61768 297.63126L346.5708 297.63126L346.5708 298.56876Q346.93018 297.9125 347.22705 297.70938Q347.53955 297.49063 347.91455 297.49063Q348.4458 297.49063 348.99268 297.81876L348.6333 298.80313Q348.24268 298.56876 347.86768 298.56876Q347.5083 298.56876 347.22705 298.7875Q346.96143 298.99063 346.85205 299.36563Q346.66455 299.92813 346.66455 300.58438L346.66455 303.85L345.61768 303.85ZM349.6333 303.85L349.6333 297.63126L350.5708 297.63126L350.5708 298.50626Q350.86768 298.0375 351.35205 297.77188Q351.83643 297.49063 352.46143 297.49063Q353.14893 297.49063 353.58643 297.77188Q354.03955 298.05313 354.21143 298.56876Q354.96143 297.49063 356.1333 297.49063Q357.0708 297.49063 357.55518 298.00626Q358.05518 298.50626 358.05518 299.58438L358.05518 303.85L357.0083 303.85L357.0083 299.92813Q357.0083 299.30313 356.89893 299.02188Q356.80518 298.74063 356.53955 298.56876Q356.27393 298.39688 355.89893 298.39688Q355.24268 298.39688 354.80518 298.83438Q354.3833 299.27188 354.3833 300.24063L354.3833 303.85L353.3208 303.85L353.3208 299.80313Q353.3208 299.1 353.05518 298.75626Q352.80518 298.39688 352.22705 298.39688Q351.77393 298.39688 351.39893 298.63126Q351.02393 298.86563 350.85205 299.31876Q350.68018 299.77188 350.68018 300.61563L350.68018 303.85L349.6333 303.85ZM359.24268 300.74063Q359.24268 299.00626 360.1958 298.17813Q360.99268 297.49063 362.14893 297.49063Q363.43018 297.49063 364.24268 298.33438Q365.0708 299.1625 365.0708 300.64688Q365.0708 301.85 364.71143 302.5375Q364.35205 303.225 363.64893 303.61563Q362.96143 303.99063 362.14893 303.99063Q360.85205 303.99063 360.03955 303.1625Q359.24268 302.31876 359.24268 300.74063ZM360.3208 300.74063Q360.3208 301.92813 360.83643 302.52188Q361.36768 303.11563 362.14893 303.11563Q362.9458 303.11563 363.46143 302.52188Q363.97705 301.92813 363.97705 300.70938Q363.97705 299.55313 363.4458 298.95938Q362.93018 298.36563 362.14893 298.36563Q361.36768 298.36563 360.83643 298.95938Q360.3208 299.5375 360.3208 300.74063ZM366.61768 303.85L366.61768 297.63126L367.5708 297.63126L367.5708 298.56876Q367.93018 297.9125 368.22705 297.70938Q368.53955 297.49063 368.91455 297.49063Q369.4458 297.49063 369.99268 297.81876L369.6333 298.80313Q369.24268 298.56876 368.86768 298.56876Q368.5083 298.56876 368.22705 298.7875Q367.96143 298.99063 367.85205 299.36563Q367.66455 299.92813 367.66455 300.58438L367.66455 303.85L366.61768 303.85Z" fill-rule="nonzero"/><path fill="#000000" d="M397.32812 303.85L397.32812 303.06876Q396.73438 303.99063 395.59375 303.99063Q394.84375 303.99063 394.21875 303.58438Q393.59375 303.1625 393.25 302.42813Q392.90625 301.69376 392.90625 300.74063Q392.90625 299.81876 393.21875 299.05313Q393.53125 298.2875 394.15625 297.89688Q394.78125 297.49063 395.54688 297.49063Q396.10938 297.49063 396.54688 297.725Q396.98438 297.95938 397.26562 298.33438L397.26562 295.25626L398.3125 295.25626L398.3125 303.85L397.32812 303.85ZM394.0 300.74063Q394.0 301.94376 394.5 302.5375Q395.0 303.11563 395.6875 303.11563Q396.375 303.11563 396.85938 302.55313Q397.34375 301.99063 397.34375 300.83438Q397.34375 299.55313 396.84375 298.95938Q396.35938 298.36563 395.64062 298.36563Q394.9375 298.36563 394.46875 298.94376Q394.0 299.50626 394.0 300.74063ZM404.54688 301.85L405.64062 301.975Q405.39062 302.92813 404.6875 303.45938Q403.98438 303.99063 402.90625 303.99063Q401.54688 303.99063 400.73438 303.14688Q399.9375 302.30313 399.9375 300.7875Q399.9375 299.225 400.75 298.36563Q401.5625 297.49063 402.84375 297.49063Q404.09375 297.49063 404.875 298.33438Q405.67188 299.17813 405.67188 300.725Q405.67188 300.81876 405.67188 301.00626L401.03125 301.00626Q401.09375 302.0375 401.60938 302.58438Q402.125 303.11563 402.90625 303.11563Q403.48438 303.11563 403.89062 302.81876Q404.3125 302.50626 404.54688 301.85ZM401.09375 300.14688L404.5625 300.14688Q404.5 299.35 404.17188 298.95938Q403.65625 298.35 402.85938 298.35Q402.125 298.35 401.625 298.83438Q401.14062 299.31876 401.09375 300.14688ZM407.54688 303.85L407.54688 298.44376L406.60938 298.44376L406.60938 297.63126L407.54688 297.63126L407.54688 296.95938Q407.54688 296.33438 407.65625 296.0375Q407.8125 295.61563 408.1875 295.36563Q408.57812 295.11563 409.26562 295.11563Q409.71875 295.11563 410.25 295.225L410.09375 296.13126Q409.76562 296.08438 409.46875 296.08438Q408.98438 296.08438 408.78125 296.2875Q408.59375 296.49063 408.59375 297.05313L408.59375 297.63126L409.8125 297.63126L409.8125 298.44376L408.59375 298.44376L408.59375 303.85L407.54688 303.85ZM414.35938 303.08438Q413.76562 303.58438 413.21875 303.7875Q412.6875 303.99063 412.0625 303.99063Q411.03125 303.99063 410.48438 303.49063Q409.9375 302.99063 409.9375 302.20938Q409.9375 301.75626 410.14062 301.38126Q410.34375 300.99063 410.6875 300.77188Q411.03125 300.5375 411.45312 300.42813Q411.75 300.33438 412.39062 300.25626Q413.65625 300.11563 414.26562 299.89688Q414.26562 299.67813 414.26562 299.63126Q414.26562 298.975 413.96875 298.70938Q413.5625 298.36563 412.76562 298.36563Q412.03125 298.36563 411.67188 298.63126Q411.3125 298.88126 411.14062 299.5375L410.10938 299.39688Q410.25 298.74063 410.57812 298.33438Q410.90625 297.92813 411.51562 297.70938Q412.125 297.49063 412.92188 297.49063Q413.71875 297.49063 414.21875 297.67813Q414.71875 297.86563 414.95312 298.14688Q415.1875 298.42813 415.28125 298.86563Q415.32812 299.13126 415.32812 299.83438L415.32812 301.24063Q415.32812 302.70938 415.39062 303.1Q415.46875 303.49063 415.67188 303.85L414.5625 303.85Q414.40625 303.52188 414.35938 303.08438ZM414.26562 300.725Q413.6875 300.95938 412.54688 301.13126Q411.89062 301.225 411.625 301.35Q411.35938 301.45938 411.20312 301.67813Q411.0625 301.89688 411.0625 302.17813Q411.0625 302.6 411.375 302.88126Q411.70312 303.1625 412.3125 303.1625Q412.92188 303.1625 413.39062 302.89688Q413.875 302.63126 414.09375 302.1625Q414.26562 301.80313 414.26562 301.11563L414.26562 300.725ZM421.375 303.85L421.375 302.92813Q420.64062 303.99063 419.39062 303.99063Q418.84375 303.99063 418.35938 303.7875Q417.89062 303.56876 417.65625 303.25626Q417.42188 302.92813 417.32812 302.45938Q417.26562 302.1625 417.26562 301.475L417.26562 297.63126L418.32812 297.63126L418.32812 301.08438Q418.32812 301.89688 418.39062 302.19376Q418.48438 302.6 418.79688 302.85Q419.125 303.08438 419.60938 303.08438Q420.07812 303.08438 420.48438 302.85Q420.90625 302.6 421.07812 302.17813Q421.26562 301.75626 421.26562 300.95938L421.26562 297.63126L422.3125 297.63126L422.3125 303.85L421.375 303.85ZM424.26562 303.85L424.26562 295.25626L425.32812 295.25626L425.32812 303.85L424.26562 303.85ZM429.59375 302.9125L429.75 303.83438Q429.29688 303.92813 428.95312 303.92813Q428.375 303.92813 428.0625 303.75626Q427.75 303.56876 427.60938 303.27188Q427.48438 302.975 427.48438 302.02188L427.48438 298.44376L426.71875 298.44376L426.71875 297.63126L427.48438 297.63126L427.48438 296.08438L428.53125 295.45938L428.53125 297.63126L429.59375 297.63126L429.59375 298.44376L428.53125 298.44376L428.53125 302.08438Q428.53125 302.5375 428.57812 302.6625Q428.64062 302.7875 428.76562 302.86563Q428.89062 302.94376 429.125 302.94376Q429.3125 302.94376 429.59375 302.9125ZM433.29688 303.85L433.29688 295.25626L434.35938 295.25626L434.35938 300.1625L436.84375 297.63126L438.21875 297.63126L435.82812 299.92813L438.45312 303.85L437.15625 303.85L435.09375 300.6625L434.35938 301.38126L434.35938 303.85L433.29688 303.85ZM440.625 299.19376Q439.96875 298.94376 439.64062 298.50626Q439.32812 298.05313 439.32812 297.44376Q439.32812 296.50626 440.0 295.86563Q440.6875 295.225 441.79688 295.225Q442.92188 295.225 443.60938 295.88126Q444.29688 296.5375 444.29688 297.475Q444.29688 298.06876 443.98438 298.50626Q443.67188 298.94376 443.03125 299.19376Q443.82812 299.44376 444.23438 300.02188Q444.64062 300.6 444.64062 301.39688Q444.64062 302.49063 443.85938 303.24063Q443.09375 303.99063 441.8125 303.99063Q440.54688 303.99063 439.76562 303.24063Q438.98438 302.49063 438.98438 301.36563Q438.98438 300.52188 439.40625 299.95938Q439.84375 299.39688 440.625 299.19376ZM440.40625 297.39688Q440.40625 298.00626 440.79688 298.39688Q441.20312 298.7875 441.82812 298.7875Q442.4375 298.7875 442.82812 298.4125Q443.21875 298.02188 443.21875 297.45938Q443.21875 296.88126 442.8125 296.49063Q442.40625 296.08438 441.8125 296.08438Q441.20312 296.08438 440.79688 296.475Q440.40625 296.86563 440.40625 297.39688ZM440.07812 301.36563Q440.07812 301.81876 440.28125 302.24063Q440.5 302.6625 440.92188 302.89688Q441.34375 303.13126 441.82812 303.13126Q442.57812 303.13126 443.0625 302.64688Q443.5625 302.1625 443.5625 301.4125Q443.5625 300.64688 443.0625 300.14688Q442.5625 299.64688 441.79688 299.64688Q441.04688 299.64688 440.5625 300.14688Q440.07812 300.63126 440.07812 301.36563ZM445.875 301.99063L446.90625 301.83438Q447.0 302.45938 447.39062 302.7875Q447.79688 303.11563 448.53125 303.11563Q449.25 303.11563 449.59375 302.83438Q449.95312 302.5375 449.95312 302.13126Q449.95312 301.77188 449.64062 301.56876Q449.42188 301.42813 448.5625 301.20938Q447.40625 300.9125 446.95312 300.70938Q446.51562 300.49063 446.28125 300.11563Q446.04688 299.74063 446.04688 299.27188Q446.04688 298.86563 446.23438 298.50626Q446.42188 298.14688 446.75 297.9125Q447.0 297.74063 447.42188 297.61563Q447.84375 297.49063 448.34375 297.49063Q449.0625 297.49063 449.60938 297.70938Q450.17188 297.9125 450.4375 298.27188Q450.70312 298.63126 450.79688 299.225L449.76562 299.36563Q449.70312 298.89688 449.35938 298.63126Q449.03125 298.35 448.40625 298.35Q447.6875 298.35 447.375 298.6Q447.0625 298.83438 447.0625 299.1625Q447.0625 299.36563 447.1875 299.52188Q447.32812 299.69376 447.59375 299.80313Q447.75 299.86563 448.53125 300.06876Q449.65625 300.38126 450.09375 300.56876Q450.53125 300.75626 450.78125 301.11563Q451.03125 301.475 451.03125 302.02188Q451.03125 302.55313 450.71875 303.02188Q450.42188 303.475 449.84375 303.74063Q449.26562 303.99063 448.53125 303.99063Q447.3125 303.99063 446.67188 303.49063Q446.04688 302.975 445.875 301.99063Z" fill-rule="nonzero"/><path fill="#000000" d="M509.96042 303.85L509.96042 297.63126L510.89792 297.63126L510.89792 298.50626Q511.58542 297.49063 512.8823 297.49063Q513.4448 297.49063 513.9136 297.69376Q514.39795 297.89688 514.6323 298.225Q514.8667 298.55313 514.96045 298.99063Q515.0073 299.2875 515.0073 300.02188L515.0073 303.85L513.96045 303.85L513.96045 300.06876Q513.96045 299.4125 513.83545 299.1Q513.71045 298.7875 513.39795 298.6Q513.08545 298.39688 512.6636 298.39688Q511.99167 298.39688 511.49167 298.83438Q511.0073 299.25626 511.0073 300.44376L511.0073 303.85L509.96042 303.85ZM521.21045 301.85L522.3042 301.975Q522.0542 302.92813 521.3511 303.45938Q520.64795 303.99063 519.5698 303.99063Q518.21045 303.99063 517.39795 303.14688Q516.6011 302.30313 516.6011 300.7875Q516.6011 299.225 517.4136 298.36563Q518.2261 297.49063 519.5073 297.49063Q520.7573 297.49063 521.5386 298.33438Q522.33545 299.17813 522.33545 300.725Q522.33545 300.81876 522.33545 301.00626L517.6948 301.00626Q517.7573 302.0375 518.27295 302.58438Q518.7886 303.11563 519.5698 303.11563Q520.14795 303.11563 520.5542 302.81876Q520.9761 302.50626 521.21045 301.85ZM517.7573 300.14688L521.2261 300.14688Q521.1636 299.35 520.83545 298.95938Q520.3198 298.35 519.52295 298.35Q518.7886 298.35 518.2886 298.83438Q517.8042 299.31876 517.7573 300.14688ZM525.1011 303.85L523.1948 297.63126L524.2886 297.63126L525.27295 301.225L525.64795 302.55313Q525.6792 302.45938 525.9761 301.27188L526.96045 297.63126L528.0386 297.63126L528.9761 301.24063L529.2886 302.42813L529.64795 301.225L530.71045 297.63126L531.7417 297.63126L529.7886 303.85L528.6948 303.85L527.71045 300.11563L527.46045 299.06876L526.21045 303.85L525.1011 303.85ZM535.96045 303.85L535.96045 295.25626L537.02295 295.25626L537.02295 300.1625L539.5073 297.63126L540.8823 297.63126L538.4917 299.92813L541.1167 303.85L539.8198 303.85L537.7573 300.6625L537.02295 301.38126L537.02295 303.85L535.96045 303.85ZM543.2886 299.19376Q542.6323 298.94376 542.3042 298.50626Q541.9917 298.05313 541.9917 297.44376Q541.9917 296.50626 542.6636 295.86563Q543.3511 295.225 544.46045 295.225Q545.58545 295.225 546.27295 295.88126Q546.96045 296.5375 546.96045 297.475Q546.96045 298.06876 546.64795 298.50626Q546.33545 298.94376 545.6948 299.19376Q546.4917 299.44376 546.89795 300.02188Q547.3042 300.6 547.3042 301.39688Q547.3042 302.49063 546.52295 303.24063Q545.7573 303.99063 544.4761 303.99063Q543.21045 303.99063 542.4292 303.24063Q541.64795 302.49063 541.64795 301.36563Q541.64795 300.52188 542.0698 299.95938Q542.5073 299.39688 543.2886 299.19376ZM543.0698 297.39688Q543.0698 298.00626 543.46045 298.39688Q543.8667 298.7875 544.4917 298.7875Q545.1011 298.7875 545.4917 298.4125Q545.8823 298.02188 545.8823 297.45938Q545.8823 296.88126 545.4761 296.49063Q545.0698 296.08438 544.4761 296.08438Q543.8667 296.08438 543.46045 296.475Q543.0698 296.86563 543.0698 297.39688ZM542.7417 301.36563Q542.7417 301.81876 542.9448 302.24063Q543.1636 302.6625 543.58545 302.89688Q544.0073 303.13126 544.4917 303.13126Q545.2417 303.13126 545.7261 302.64688Q546.2261 302.1625 546.2261 301.4125Q546.2261 300.64688 545.7261 300.14688Q545.2261 299.64688 544.46045 299.64688Q543.71045 299.64688 543.2261 300.14688Q542.7417 300.63126 542.7417 301.36563ZM548.5386 301.99063L549.5698 301.83438Q549.6636 302.45938 550.0542 302.7875Q550.46045 303.11563 551.1948 303.11563Q551.9136 303.11563 552.2573 302.83438Q552.6167 302.5375 552.6167 302.13126Q552.6167 301.77188 552.3042 301.56876Q552.08545 301.42813 551.2261 301.20938Q550.0698 300.9125 549.6167 300.70938Q549.1792 300.49063 548.9448 300.11563Q548.71045 299.74063 548.71045 299.27188Q548.71045 298.86563 548.89795 298.50626Q549.08545 298.14688 549.4136 297.9125Q549.6636 297.74063 550.08545 297.61563Q550.5073 297.49063 551.0073 297.49063Q551.7261 297.49063 552.27295 297.70938Q552.83545 297.9125 553.1011 298.27188Q553.3667 298.63126 553.46045 299.225L552.4292 299.36563Q552.3667 298.89688 552.02295 298.63126Q551.6948 298.35 551.0698 298.35Q550.3511 298.35 550.0386 298.6Q549.7261 298.83438 549.7261 299.1625Q549.7261 299.36563 549.8511 299.52188Q549.9917 299.69376 550.2573 299.80313Q550.4136 299.86563 551.1948 300.06876Q552.3198 300.38126 552.7573 300.56876Q553.1948 300.75626 553.4448 301.11563Q553.6948 301.475 553.6948 302.02188Q553.6948 302.55313 553.3823 303.02188Q553.08545 303.475 552.5073 303.74063Q551.9292 303.99063 551.1948 303.99063Q549.9761 303.99063 549.33545 303.49063Q548.71045 302.975 548.5386 301.99063ZM561.9917 303.85L561.9917 303.06876Q561.39795 303.99063 560.2573 303.99063Q559.5073 303.99063 558.8823 303.58438Q558.2573 303.1625 557.9136 302.42813Q557.5698 301.69376 557.5698 300.74063Q557.5698 299.81876 557.8823 299.05313Q558.1948 298.2875 558.8198 297.89688Q559.4448 297.49063 560.21045 297.49063Q560.77295 297.49063 561.21045 297.725Q561.64795 297.95938 561.9292 298.33438L561.9292 295.25626L562.9761 295.25626L562.9761 303.85L561.9917 303.85ZM558.6636 300.74063Q558.6636 301.94376 559.1636 302.5375Q559.6636 303.11563 560.3511 303.11563Q561.0386 303.11563 561.52295 302.55313Q562.0073 301.99063 562.0073 300.83438Q562.0073 299.55313 561.5073 298.95938Q561.02295 298.36563 560.3042 298.36563Q559.6011 298.36563 559.1323 298.94376Q558.6636 299.50626 558.6636 300.74063ZM569.21045 301.85L570.3042 301.975Q570.0542 302.92813 569.3511 303.45938Q568.64795 303.99063 567.5698 303.99063Q566.21045 303.99063 565.39795 303.14688Q564.6011 302.30313 564.6011 300.7875Q564.6011 299.225 565.4136 298.36563Q566.2261 297.49063 567.5073 297.49063Q568.7573 297.49063 569.5386 298.33438Q570.33545 299.17813 570.33545 300.725Q570.33545 300.81876 570.33545 301.00626L565.6948 301.00626Q565.7573 302.0375 566.27295 302.58438Q566.7886 303.11563 567.5698 303.11563Q568.14795 303.11563 568.5542 302.81876Q568.9761 302.50626 569.21045 301.85ZM565.7573 300.14688L569.2261 300.14688Q569.1636 299.35 568.83545 298.95938Q568.3198 298.35 567.52295 298.35Q566.7886 298.35 566.2886 298.83438Q565.8042 299.31876 565.7573 300.14688ZM572.21045 303.85L572.21045 298.44376L571.27295 298.44376L571.27295 297.63126L572.21045 297.63126L572.21045 296.95938Q572.21045 296.33438 572.3198 296.0375Q572.4761 295.61563 572.8511 295.36563Q573.2417 295.11563 573.9292 295.11563Q574.3823 295.11563 574.9136 295.225L574.7573 296.13126Q574.4292 296.08438 574.1323 296.08438Q573.64795 296.08438 573.4448 296.2875Q573.2573 296.49063 573.2573 297.05313L573.2573 297.63126L574.4761 297.63126L574.4761 298.44376L573.2573 298.44376L573.2573 303.85L572.21045 303.85ZM579.02295 303.08438Q578.4292 303.58438 577.8823 303.7875Q577.3511 303.99063 576.7261 303.99063Q575.6948 303.99063 575.14795 303.49063Q574.6011 302.99063 574.6011 302.20938Q574.6011 301.75626 574.8042 301.38126Q575.0073 300.99063 575.3511 300.77188Q575.6948 300.5375 576.1167 300.42813Q576.4136 300.33438 577.0542 300.25626Q578.3198 300.11563 578.9292 299.89688Q578.9292 299.67813 578.9292 299.63126Q578.9292 298.975 578.6323 298.70938Q578.2261 298.36563 577.4292 298.36563Q576.6948 298.36563 576.33545 298.63126Q575.9761 298.88126 575.8042 299.5375L574.77295 299.39688Q574.9136 298.74063 575.2417 298.33438Q575.5698 297.92813 576.1792 297.70938Q576.7886 297.49063 577.58545 297.49063Q578.3823 297.49063 578.8823 297.67813Q579.3823 297.86563 579.6167 298.14688Q579.8511 298.42813 579.9448 298.86563Q579.9917 299.13126 579.9917 299.83438L579.9917 301.24063Q579.9917 302.70938 580.0542 303.1Q580.1323 303.49063 580.33545 303.85L579.2261 303.85Q579.0698 303.52188 579.02295 303.08438ZM578.9292 300.725Q578.3511 300.95938 577.21045 301.13126Q576.5542 301.225 576.2886 301.35Q576.02295 301.45938 575.8667 301.67813Q575.7261 301.89688 575.7261 302.17813Q575.7261 302.6 576.0386 302.88126Q576.3667 303.1625 576.9761 303.1625Q577.58545 303.1625 578.0542 302.89688Q578.5386 302.63126 578.7573 302.1625Q578.9292 301.80313 578.9292 301.11563L578.9292 300.725ZM586.0386 303.85L586.0386 302.92813Q585.3042 303.99063 584.0542 303.99063Q583.5073 303.99063 583.02295 303.7875Q582.5542 303.56876 582.3198 303.25626Q582.08545 302.92813 581.9917 302.45938Q581.9292 302.1625 581.9292 301.475L581.9292 297.63126L582.9917 297.63126L582.9917 301.08438Q582.9917 301.89688 583.0542 302.19376Q583.14795 302.6 583.46045 302.85Q583.7886 303.08438 584.27295 303.08438Q584.7417 303.08438 585.14795 302.85Q585.5698 302.6 585.7417 302.17813Q585.9292 301.75626 585.9292 300.95938L585.9292 297.63126L586.9761 297.63126L586.9761 303.85L586.0386 303.85ZM588.9292 303.85L588.9292 295.25626L589.9917 295.25626L589.9917 303.85L588.9292 303.85ZM594.2573 302.9125L594.4136 303.83438Q593.96045 303.92813 593.6167 303.92813Q593.0386 303.92813 592.7261 303.75626Q592.4136 303.56876 592.27295 303.27188Q592.14795 302.975 592.14795 302.02188L592.14795 298.44376L591.3823 298.44376L591.3823 297.63126L592.14795 297.63126L592.14795 296.08438L593.1948 295.45938L593.1948 297.63126L594.2573 297.63126L594.2573 298.44376L593.1948 298.44376L593.1948 302.08438Q593.1948 302.5375 593.2417 302.6625Q593.3042 302.7875 593.4292 302.86563Q593.5542 302.94376 593.7886 302.94376Q593.9761 302.94376 594.2573 302.9125Z" fill-rule="nonzero"/><path fill="#000000" d="M644.8427 303.85L642.48334 297.63126L643.5927 297.63126L644.93646 301.35Q645.1396 301.95938 645.3271 302.6Q645.4677 302.11563 645.7177 301.42813L647.10834 297.63126L648.18646 297.63126L645.8271 303.85L644.8427 303.85ZM653.37396 301.85L654.4677 301.975Q654.2177 302.92813 653.5146 303.45938Q652.81146 303.99063 651.73334 303.99063Q650.37396 303.99063 649.56146 303.14688Q648.7646 302.30313 648.7646 300.7875Q648.7646 299.225 649.5771 298.36563Q650.3896 297.49063 651.67084 297.49063Q652.92084 297.49063 653.7021 298.33438Q654.49896 299.17813 654.49896 300.725Q654.49896 300.81876 654.49896 301.00626L649.85834 301.00626Q649.92084 302.0375 650.43646 302.58438Q650.9521 303.11563 651.73334 303.11563Q652.31146 303.11563 652.7177 302.81876Q653.1396 302.50626 653.37396 301.85ZM649.92084 300.14688L653.3896 300.14688Q653.3271 299.35 652.99896 298.95938Q652.48334 298.35 651.68646 298.35Q650.9521 298.35 650.4521 298.83438Q649.9677 299.31876 649.92084 300.14688ZM656.10834 303.85L656.10834 297.63126L657.06146 297.63126L657.06146 298.56876Q657.42084 297.9125 657.7177 297.70938Q658.0302 297.49063 658.4052 297.49063Q658.93646 297.49063 659.48334 297.81876L659.12396 298.80313Q658.73334 298.56876 658.35834 298.56876Q657.99896 298.56876 657.7177 298.7875Q657.4521 298.99063 657.3427 299.36563Q657.1552 299.92813 657.1552 300.58438L657.1552 303.85L656.10834 303.85ZM661.0927 303.85L660.10834 303.85L660.10834 295.25626L661.17084 295.25626L661.17084 298.31876Q661.8427 297.49063 662.87396 297.49063Q663.4521 297.49063 663.9521 297.725Q664.4677 297.94376 664.79584 298.36563Q665.1396 298.7875 665.3271 299.38126Q665.5146 299.975 665.5146 300.64688Q665.5146 302.24063 664.7177 303.11563Q663.92084 303.99063 662.8271 303.99063Q661.7177 303.99063 661.0927 303.06876L661.0927 303.85ZM661.0771 300.69376Q661.0771 301.80313 661.3896 302.30313Q661.8896 303.11563 662.73334 303.11563Q663.42084 303.11563 663.92084 302.52188Q664.43646 301.92813 664.43646 300.725Q664.43646 299.50626 663.9521 298.92813Q663.4677 298.35 662.7802 298.35Q662.0927 298.35 661.5771 298.95938Q661.0771 299.55313 661.0771 300.69376ZM666.73334 300.74063Q666.73334 299.00626 667.68646 298.17813Q668.48334 297.49063 669.6396 297.49063Q670.92084 297.49063 671.73334 298.33438Q672.56146 299.1625 672.56146 300.64688Q672.56146 301.85 672.2021 302.5375Q671.8427 303.225 671.1396 303.61563Q670.4521 303.99063 669.6396 303.99063Q668.3427 303.99063 667.5302 303.1625Q666.73334 302.31876 666.73334 300.74063ZM667.81146 300.74063Q667.81146 301.92813 668.3271 302.52188Q668.85834 303.11563 669.6396 303.11563Q670.43646 303.11563 670.9521 302.52188Q671.4677 301.92813 671.4677 300.70938Q671.4677 299.55313 670.93646 298.95938Q670.42084 298.36563 669.6396 298.36563Q668.85834 298.36563 668.3271 298.95938Q667.81146 299.5375 667.81146 300.74063ZM673.7021 301.99063L674.73334 301.83438Q674.8271 302.45938 675.2177 302.7875Q675.62396 303.11563 676.35834 303.11563Q677.0771 303.11563 677.42084 302.83438Q677.7802 302.5375 677.7802 302.13126Q677.7802 301.77188 677.4677 301.56876Q677.24896 301.42813 676.3896 301.20938Q675.23334 300.9125 674.7802 300.70938Q674.3427 300.49063 674.10834 300.11563Q673.87396 299.74063 673.87396 299.27188Q673.87396 298.86563 674.06146 298.50626Q674.24896 298.14688 674.5771 297.9125Q674.8271 297.74063 675.24896 297.61563Q675.67084 297.49063 676.17084 297.49063Q676.8896 297.49063 677.43646 297.70938Q677.99896 297.9125 678.2646 298.27188Q678.5302 298.63126 678.62396 299.225L677.5927 299.36563Q677.5302 298.89688 677.18646 298.63126Q676.85834 298.35 676.23334 298.35Q675.5146 298.35 675.2021 298.6Q674.8896 298.83438 674.8896 299.1625Q674.8896 299.36563 675.0146 299.52188Q675.1552 299.69376 675.42084 299.80313Q675.5771 299.86563 676.35834 300.06876Q677.48334 300.38126 677.92084 300.56876Q678.35834 300.75626 678.60834 301.11563Q678.85834 301.475 678.85834 302.02188Q678.85834 302.55313 678.54584 303.02188Q678.24896 303.475 677.67084 303.74063Q677.0927 303.99063 676.35834 303.99063Q675.1396 303.99063 674.49896 303.49063Q673.87396 302.975 673.7021 301.99063ZM684.37396 301.85L685.4677 301.975Q685.2177 302.92813 684.5146 303.45938Q683.81146 303.99063 682.73334 303.99063Q681.37396 303.99063 680.56146 303.14688Q679.7646 302.30313 679.7646 300.7875Q679.7646 299.225 680.5771 298.36563Q681.3896 297.49063 682.67084 297.49063Q683.92084 297.49063 684.7021 298.33438Q685.49896 299.17813 685.49896 300.725Q685.49896 300.81876 685.49896 301.00626L680.85834 301.00626Q680.92084 302.0375 681.43646 302.58438Q681.9521 303.11563 682.73334 303.11563Q683.31146 303.11563 683.7177 302.81876Q684.1396 302.50626 684.37396 301.85ZM680.92084 300.14688L684.3896 300.14688Q684.3271 299.35 683.99896 298.95938Q683.48334 298.35 682.68646 298.35Q681.9521 298.35 681.4521 298.83438Q680.9677 299.31876 680.92084 300.14688ZM690.12396 303.85L690.12396 297.63126L691.06146 297.63126L691.06146 298.50626Q691.35834 298.0375 691.8427 297.77188Q692.3271 297.49063 692.9521 297.49063Q693.6396 297.49063 694.0771 297.77188Q694.5302 298.05313 694.7021 298.56876Q695.4521 297.49063 696.62396 297.49063Q697.56146 297.49063 698.04584 298.00626Q698.54584 298.50626 698.54584 299.58438L698.54584 303.85L697.49896 303.85L697.49896 299.92813Q697.49896 299.30313 697.3896 299.02188Q697.29584 298.74063 697.0302 298.56876Q696.7646 298.39688 696.3896 298.39688Q695.73334 298.39688 695.29584 298.83438Q694.87396 299.27188 694.87396 300.24063L694.87396 303.85L693.81146 303.85L693.81146 299.80313Q693.81146 299.1 693.54584 298.75626Q693.29584 298.39688 692.7177 298.39688Q692.2646 298.39688 691.8896 298.63126Q691.5146 298.86563 691.3427 299.31876Q691.17084 299.77188 691.17084 300.61563L691.17084 303.85L690.12396 303.85ZM699.73334 300.74063Q699.73334 299.00626 700.68646 298.17813Q701.48334 297.49063 702.6396 297.49063Q703.92084 297.49063 704.73334 298.33438Q705.56146 299.1625 705.56146 300.64688Q705.56146 301.85 705.2021 302.5375Q704.8427 303.225 704.1396 303.61563Q703.4521 303.99063 702.6396 303.99063Q701.3427 303.99063 700.5302 303.1625Q699.73334 302.31876 699.73334 300.74063ZM700.81146 300.74063Q700.81146 301.92813 701.3271 302.52188Q701.85834 303.11563 702.6396 303.11563Q703.43646 303.11563 703.9521 302.52188Q704.4677 301.92813 704.4677 300.70938Q704.4677 299.55313 703.93646 298.95938Q703.42084 298.36563 702.6396 298.36563Q701.85834 298.36563 701.3271 298.95938Q700.81146 299.5375 700.81146 300.74063ZM711.1552 303.85L711.1552 303.06876Q710.56146 303.99063 709.42084 303.99063Q708.67084 303.99063 708.04584 303.58438Q707.42084 303.1625 707.0771 302.42813Q706.73334 301.69376 706.73334 300.74063Q706.73334 299.81876 707.04584 299.05313Q707.35834 298.2875 707.98334 297.89688Q708.60834 297.49063 709.37396 297.49063Q709.93646 297.49063 710.37396 297.725Q710.81146 297.95938 711.0927 298.33438L711.0927 295.25626L712.1396 295.25626L712.1396 303.85L711.1552 303.85ZM707.8271 300.74063Q707.8271 301.94376 708.3271 302.5375Q708.8271 303.11563 709.5146 303.11563Q710.2021 303.11563 710.68646 302.55313Q711.17084 301.99063 711.17084 300.83438Q711.17084 299.55313 710.67084 298.95938Q710.18646 298.36563 709.4677 298.36563Q708.7646 298.36563 708.29584 298.94376Q707.8271 299.50626 707.8271 300.74063ZM718.37396 301.85L719.4677 301.975Q719.2177 302.92813 718.5146 303.45938Q717.81146 303.99063 716.73334 303.99063Q715.37396 303.99063 714.56146 303.14688Q713.7646 302.30313 713.7646 300.7875Q713.7646 299.225 714.5771 298.36563Q715.3896 297.49063 716.67084 297.49063Q717.92084 297.49063 718.7021 298.33438Q719.49896 299.17813 719.49896 300.725Q719.49896 300.81876 719.49896 301.00626L714.85834 301.00626Q714.92084 302.0375 715.43646 302.58438Q715.9521 303.11563 716.73334 303.11563Q717.31146 303.11563 717.7177 302.81876Q718.1396 302.50626 718.37396 301.85ZM714.92084 300.14688L718.3896 300.14688Q718.3271 299.35 717.99896 298.95938Q717.48334 298.35 716.68646 298.35Q715.9521 298.35 715.4521 298.83438Q714.9677 299.31876 714.92084 300.14688Z" fill-rule="nonzero"/></svg>