<svg width="3474" height="1513" xmlns="http://www.w3.org/2000/svg" xmlns:xlink="http://www.w3.org/1999/xlink" xml:space="preserve" overflow="hidden"><defs><filter id="fx0" x="-10%" y="-10%" width="120%" height="120%" filterUnits="userSpaceOnUse" primitiveUnits="userSpaceOnUse"><feComponentTransfer color-interpolation-filters="sRGB"><feFuncR type="discrete" tableValues="0.000000 0.000000"/><feFuncG type="discrete" tableValues="0.000000 0.000000"/><feFuncB type="discrete" tableValues="0.000000 0.000000"/><feFuncA type="linear" slope="0.501961" intercept="0.000000"/></feComponentTransfer><feGaussianBlur stdDeviation="6.875000 6.875000"/></filter><filter id="fx1" x="-10%" y="-10%" width="120%" height="120%" filterUnits="userSpaceOnUse" primitiveUnits="userSpaceOnUse"><feComponentTransfer color-interpolation-filters="sRGB"><feFuncR type="discrete" tableValues="0.000000 0.000000"/><feFuncG type="discrete" tableValues="0.000000 0.000000"/><feFuncB type="discrete" tableValues="0.000000 0.000000"/><feFuncA type="linear" slope="0.501961" intercept="0.000000"/></feComponentTransfer><feGaussianBlur stdDeviation="6.875000 6.875000"/></filter><filter id="fx2" x="-10%" y="-10%" width="120%" height="120%" filterUnits="userSpaceOnUse" primitiveUnits="userSpaceOnUse"><feComponentTransfer color-interpolation-filters="sRGB"><feFuncR type="discrete" tableValues="0.000000 0.000000"/><feFuncG type="discrete" tableValues="0.000000 0.000000"/><feFuncB type="discrete" tableValues="0.000000 0.000000"/><feFuncA type="linear" slope="0.501961" intercept="0.000000"/></feComponentTransfer><feGaussianBlur stdDeviation="6.875000 6.875000"/></filter><filter id="fx3" x="-10%" y="-10%" width="120%" height="120%" filterUnits="userSpaceOnUse" primitiveUnits="userSpaceOnUse"><feComponentTransfer color-interpolation-filters="sRGB"><feFuncR type="discrete" tableValues="0.000000 0.000000"/><feFuncG type="discrete" tableValues="0.000000 0.000000"/><feFuncB type="discrete" tableValues="0.000000 0.000000"/><feFuncA type="linear" slope="0.501961" intercept="0.000000"/></feComponentTransfer><feGaussianBlur stdDeviation="6.875000 6.875000"/></filter><filter id="fx4" x="-10%" y="-10%" width="120%" height="120%" filterUnits="userSpaceOnUse" primitiveUnits="userSpaceOnUse"><feComponentTransfer color-interpolation-filters="sRGB"><feFuncR type="discrete" tableValues="0.000000 0.000000"/><feFuncG type="discrete" tableValues="0.000000 0.000000"/><feFuncB type="discrete" tableValues="0.000000 0.000000"/><feFuncA type="linear" slope="0.501961" intercept="0.000000"/></feComponentTransfer><feGaussianBlur stdDeviation="6.875000 6.875000"/></filter><filter id="fx5" x="-10%" y="-10%" width="120%" height="120%" filterUnits="userSpaceOnUse" primitiveUnits="userSpaceOnUse"><feComponentTransfer color-interpolation-filters="sRGB"><feFuncR type="discrete" tableValues="0.000000 0.000000"/><feFuncG type="discrete" tableValues="0.000000 0.000000"/><feFuncB type="discrete" tableValues="0.000000 0.000000"/><feFuncA type="linear" slope="0.501961" intercept="0.000000"/></feComponentTransfer><feGaussianBlur stdDeviation="6.875000 6.875000"/></filter><filter id="fx6" x="-10%" y="-10%" width="120%" height="120%" filterUnits="userSpaceOnUse" primitiveUnits="userSpaceOnUse"><feComponentTransfer color-interpolation-filters="sRGB"><feFuncR type="discrete" tableValues="0.000000 0.000000"/><feFuncG type="discrete" tableValues="0.000000 0.000000"/><feFuncB type="discrete" tableValues="0.000000 0.000000"/><feFuncA type="linear" slope="0.501961" intercept="0.000000"/></feComponentTransfer><feGaussianBlur stdDeviation="6.875000 6.875000"/></filter><filter id="fx7" x="-10%" y="-10%" width="120%" height="120%" filterUnits="userSpaceOnUse" primitiveUnits="userSpaceOnUse"><feComponentTransfer color-interpolation-filters="sRGB"><feFuncR type="discrete" tableValues="0.000000 0.000000"/><feFuncG type="discrete" tableValues="0.000000 0.000000"/><feFuncB type="discrete" tableValues="0.000000 0.000000"/><feFuncA type="linear" slope="0.501961" intercept="0.000000"/></feComponentTransfer><feGaussianBlur stdDeviation="6.875000 6.875000"/></filter><filter id="fx8" x="-10%" y="-10%" width="120%" height="120%" filterUnits="userSpaceOnUse" primitiveUnits="userSpaceOnUse"><feComponentTransfer color-interpolation-filters="sRGB"><feFuncR type="discrete" tableValues="0.000000 0.000000"/><feFuncG type="discrete" tableValues="0.000000 0.000000"/><feFuncB type="discrete" tableValues="0.000000 0.000000"/><feFuncA type="linear" slope="0.501961" intercept="0.000000"/></feComponentTransfer><feGaussianBlur stdDeviation="6.875000 6.875000"/></filter><filter id="fx9" x="-10%" y="-10%" width="120%" height="120%" filterUnits="userSpaceOnUse" primitiveUnits="userSpaceOnUse"><feComponentTransfer color-interpolation-filters="sRGB"><feFuncR type="discrete" tableValues="0.000000 0.000000"/><feFuncG type="discrete" tableValues="0.000000 0.000000"/><feFuncB type="discrete" tableValues="0.000000 0.000000"/><feFuncA type="linear" slope="0.501961" intercept="0.000000"/></feComponentTransfer><feGaussianBlur stdDeviation="6.875000 6.875000"/></filter><clipPath id="clip10"><rect x="426" y="705" width="3474" height="1513"/></clipPath><clipPath id="clip11"><rect x="1.37494" y="1.24988" width="994.25" height="1293.25"/></clipPath><clipPath id="clip12"><rect x="0" y="0" width="997" height="1296"/></clipPath><clipPath id="clip13"><rect x="1.37494" y="1.25012" width="871.25" height="473.25"/></clipPath><clipPath id="clip14"><rect x="0" y="0" width="874" height="476"/></clipPath><clipPath id="clip15"><rect x="-20.625" y="-20.625" width="471.25" height="258.25"/></clipPath><clipPath id="clip16"><rect x="0" y="0" width="430" height="217"/></clipPath><clipPath id="clip17"><rect x="1.37518" y="1.25" width="876.25" height="504.25"/></clipPath><clipPath id="clip18"><rect x="0" y="0" width="879" height="507"/></clipPath><clipPath id="clip19"><rect x="-20.625" y="-20.625" width="427.25" height="258.25"/></clipPath><clipPath id="clip20"><rect x="0" y="0" width="386" height="217"/></clipPath><clipPath id="clip21"><rect x="1.375" y="1.25012" width="1730.25" height="1181.25"/></clipPath><clipPath id="clip22"><rect x="0" y="0" width="1733" height="1184"/></clipPath><clipPath id="clip23"><rect x="1.375" y="1.24988" width="771.25" height="227.25"/></clipPath><clipPath id="clip24"><rect x="0" y="0" width="774" height="230"/></clipPath><clipPath id="clip25"><rect x="1.375" y="1.25" width="538.25" height="247.25"/></clipPath><clipPath id="clip26"><rect x="0" y="0" width="541" height="250"/></clipPath><clipPath id="clip27"><rect x="1.375" y="1.25" width="538.25" height="247.25"/></clipPath><clipPath id="clip28"><rect x="0" y="0" width="541" height="250"/></clipPath><clipPath id="clip29"><rect x="1.375" y="1.24988" width="421.25" height="370.243"/></clipPath><clipPath id="clip30"><rect x="0" y="0" width="424" height="373"/></clipPath></defs><g clip-path="url(#clip10)" transform="translate(-426 -705)"><g clip-path="url(#clip11)" filter="url(#fx0)" transform="translate(647 774)"><g clip-path="url(#clip12)"><path d="M21.9999 180.711C21.9999 92.9881 93.1132 21.8749 180.836 21.8749L816.164 21.8749C903.887 21.8749 975 92.9881 975 180.711L975 1115.04C975 1202.76 903.887 1273.87 816.164 1273.87L180.836 1273.87C93.1132 1273.87 21.9999 1202.76 21.9999 1115.04Z" fill="#CCCCCC" fill-rule="evenodd" fill-opacity="1"/></g></g><path d="M669 947.836C669 860.113 740.113 789 827.836 789L1463.16 789C1550.89 789 1622 860.113 1622 947.836L1622 1882.16C1622 1969.89 1550.89 2041 1463.16 2041L827.836 2041C740.113 2041 669 1969.89 669 1882.16Z" fill="#CCCCCC" fill-rule="evenodd" fill-opacity="1"/><g clip-path="url(#clip13)" filter="url(#fx1)" transform="translate(714 935)"><g clip-path="url(#clip14)"><path d="M21.9999 21.8751 779.999 21.8751 852 93.8766 852 453.875 21.9999 453.875Z" fill="#3D85C6" fill-rule="evenodd" fill-opacity="1"/></g></g><g clip-path="url(#clip15)" filter="url(#fx2)" transform="translate(918 963)"><g clip-path="url(#clip16)"><path d="M39.1899-37.0825C39.1899-34.4617 38.7576-32.0977 37.8931-29.9902 37.0285-27.8828 35.7924-26.0861 34.1848-24.6001 32.5772-23.1141 30.6049-21.9658 28.2678-21.1553 25.9307-20.3447 23.1411-19.9395 19.8989-19.9395L13.9414-19.9395 13.9414-1.05371C13.9414-0.837565 13.8806-0.648437 13.759-0.486328 13.6374-0.324219 13.4483-0.195882 13.1916-0.101318 12.935-0.00675456 12.5837 0.0743001 12.1379 0.141846 11.6921 0.209391 11.1315 0.243164 10.4561 0.243164 9.7806 0.243164 9.21997 0.209391 8.77417 0.141846 8.32837 0.0743001 7.97038-0.00675456 7.70019-0.101318 7.43001-0.195882 7.24088-0.324219 7.13281-0.486328 7.02474-0.648437 6.9707-0.837565 6.9707-1.05371L6.9707-49.4434C6.9707-50.5241 7.25439-51.2941 7.82178-51.7534 8.38916-52.2127 9.02409-52.4424 9.72656-52.4424L20.9526-52.4424C22.0874-52.4424 23.1749-52.3951 24.2151-52.3005 25.2553-52.206 26.4846-52.0033 27.9031-51.6926 29.3215-51.3819 30.767-50.801 32.2395-49.9499 33.712-49.0989 34.9616-48.0519 35.9883-46.8091 37.015-45.5662 37.8053-44.1275 38.3591-42.4929 38.913-40.8583 39.1899-39.0548 39.1899-37.0825ZM31.8545-36.5151C31.8545-38.6496 31.456-40.4328 30.6589-41.8647 29.8619-43.2967 28.8757-44.3639 27.7004-45.0664 26.5251-45.7689 25.3093-46.2147 24.053-46.4038 22.7966-46.5929 21.5741-46.6875 20.3853-46.6875L13.9414-46.6875 13.9414-25.6538 20.2231-25.6538C22.3306-25.6538 24.08-25.924 25.4714-26.4644 26.8629-27.0047 28.0314-27.7545 28.977-28.7136 29.9227-29.6728 30.6387-30.821 31.125-32.1584 31.6113-33.4958 31.8545-34.9481 31.8545-36.5151ZM82.5179-19.6558C82.5179-16.6838 82.1261-13.9482 81.3426-11.449 80.5591-8.94979 79.3905-6.79508 77.837-4.98486 76.2834-3.17464 74.3381-1.76294 72.0011-0.749756 69.664 0.263428 66.9554 0.770019 63.8753 0.770019 60.8763 0.770019 58.2623 0.324219 56.0333-0.567383 53.8043-1.45898 51.9468-2.75586 50.4608-4.45801 48.9748-6.16016 47.867-8.22705 47.1375-10.6587 46.408-13.0903 46.0433-15.8462 46.0433-18.9263 46.0433-21.8983 46.4283-24.6339 47.1983-27.1331 47.9683-29.6322 49.1301-31.7869 50.6837-33.5972 52.2372-35.4074 54.1758-36.8123 56.4993-37.812 58.8229-38.8117 61.5382-39.3115 64.6453-39.3115 67.6444-39.3115 70.2584-38.8657 72.4874-37.9741 74.7164-37.0825 76.5739-35.7856 78.0599-34.0835 79.5459-32.3813 80.6604-30.3144 81.4034-27.8828 82.1464-25.4512 82.5179-22.7088 82.5179-19.6558ZM75.5877-19.21C75.5877-21.1823 75.4037-23.0465 75.0355-24.8027 74.6674-26.5589 74.0608-28.099 73.2156-29.4228 72.3704-30.7467 71.2254-31.7937 69.7806-32.5637 68.3358-33.3337 66.5364-33.7187 64.3825-33.7187 62.3925-33.7187 60.6818-33.3675 59.2505-32.665 57.8191-31.9626 56.64-30.9696 55.7132-29.6863 54.7863-28.4029 54.098-26.8831 53.6482-25.127 53.1984-23.3708 52.9735-21.4525 52.9735-19.3721 52.9735-17.3727 53.1575-15.495 53.5257-13.7388 53.8938-11.9826 54.5072-10.4493 55.3658-9.13892 56.2245-7.82853 57.3763-6.78833 58.8211-6.01831 60.266-5.24829 62.0653-4.86328 64.2192-4.86328 66.1822-4.86328 67.8862-5.21452 69.331-5.91699 70.7758-6.61947 71.9617-7.60563 72.8885-8.87549 73.8154-10.1453 74.497-11.6584 74.9333-13.4145 75.3696-15.1707 75.5877-17.1025 75.5877-19.21ZM123.385-1.01318C123.385-0.797038 123.337-0.60791 123.243-0.445801 123.148-0.283691 122.986-0.155355 122.757-0.060791 122.527 0.0337728 122.223 0.108073 121.845 0.162109 121.466 0.216146 121.007 0.243164 120.467 0.243164 119.899 0.243164 119.427 0.216146 119.048 0.162109 118.67 0.108073 118.359 0.0337728 118.116-0.060791 117.873-0.155355 117.697-0.283691 117.589-0.445801 117.481-0.60791 117.427-0.797038 117.427-1.01318L117.427-5.83594C115.509-3.75553 113.516-2.13444 111.449-0.972656 109.383 0.189128 107.12 0.770019 104.661 0.770019 101.986 0.770019 99.7033 0.249919 97.812-0.790283 95.9207-1.83048 94.3875-3.23543 93.2122-5.00513 92.0369-6.77482 91.179-8.85522 90.6387-11.2463 90.0983-13.6375 89.8281-16.1569 89.8281-18.8047 89.8281-21.9388 90.1658-24.769 90.8413-27.2952 91.5168-29.8214 92.5164-31.9761 93.8403-33.7593 95.1642-35.5425 96.8056-36.9137 98.7644-37.8728 100.723-38.8319 102.986-39.3115 105.553-39.3115 107.687-39.3115 109.639-38.8455 111.409-37.9133 113.179-36.9812 114.928-35.61 116.657-33.7998L116.657-54.9956C116.657-55.1847 116.704-55.3671 116.799-55.5427 116.894-55.7183 117.076-55.8534 117.346-55.948 117.616-56.0426 117.961-56.1236 118.38-56.1912 118.798-56.2587 119.332-56.2925 119.98-56.2925 120.656-56.2925 121.21-56.2587 121.642-56.1912 122.074-56.1236 122.412-56.0426 122.655-55.948 122.898-55.8534 123.081-55.7183 123.202-55.5427 123.324-55.3671 123.385-55.1847 123.385-54.9956ZM116.657-26.667C114.847-28.9095 113.098-30.6184 111.409-31.7937 109.72-32.969 107.957-33.5566 106.12-33.5566 104.418-33.5566 102.972-33.1514 101.784-32.3408 100.595-31.5303 99.629-30.463 98.886-29.1392 98.143-27.8153 97.6026-26.3158 97.2649-24.6406 96.9272-22.9655 96.7583-21.2633 96.7583-19.5342 96.7583-17.6969 96.9001-15.9002 97.1838-14.144 97.4675-12.3879 97.9606-10.8276 98.6631-9.46313 99.3656-8.09871 100.298-7.00448 101.459-6.18042 102.621-5.35636 104.08-4.94433 105.836-4.94434 106.728-4.94433 107.586-5.06592 108.41-5.30908 109.234-5.55225 110.078-5.95752 110.943-6.5249 111.807-7.09228 112.713-7.82853 113.658-8.73364 114.604-9.63875 115.604-10.7533 116.657-12.0771ZM164.616-14.7114C164.616-12.2528 164.164-10.0643 163.259-8.146 162.354-6.2277 161.097-4.59985 159.49-3.26245 157.882-1.92505 155.991-0.91862 153.816-0.243164 151.641 0.432292 149.297 0.770019 146.784 0.770019 145.028 0.770019 143.4 0.621419 141.901 0.324219 140.401 0.0270182 139.064-0.337728 137.889-0.770019 136.713-1.20231 135.727-1.64811 134.93-2.10742 134.133-2.56673 133.579-2.9585 133.268-3.28271 132.958-3.60693 132.728-4.01896 132.579-4.5188 132.431-5.01864 132.357-5.68734 132.357-6.5249 132.357-7.1193 132.384-7.61239 132.438-8.00415 132.492-8.39591 132.573-8.71338 132.681-8.95654 132.789-9.19971 132.924-9.36857 133.086-9.46313 133.248-9.5577 133.437-9.60498 133.653-9.60498 134.032-9.60498 134.565-9.37532 135.254-8.91601 135.943-8.45671 136.828-7.95687 137.909-7.4165 138.99-6.87614 140.293-6.36955 141.82-5.89673 143.346-5.42391 145.109-5.1875 147.109-5.1875 148.622-5.1875 150.006-5.39014 151.263-5.79541 152.519-6.20068 153.6-6.77482 154.505-7.51782 155.41-8.26082 156.106-9.17269 156.592-10.2534 157.078-11.3341 157.321-12.5635 157.321-13.9414 157.321-15.4274 156.984-16.6973 156.308-17.751 155.633-18.8047 154.741-19.7301 153.633-20.5271 152.526-21.3241 151.263-22.0536 149.844-22.7156 148.426-23.3775 146.973-24.053 145.487-24.7419 144.001-25.4309 142.556-26.1942 141.151-27.0317 139.746-27.8693 138.49-28.8555 137.382-29.9902 136.274-31.125 135.376-32.4556 134.687-33.9822 133.998-35.5087 133.653-37.3392 133.653-39.4736 133.653-41.6621 134.052-43.6142 134.849-45.3298 135.646-47.0455 136.754-48.4842 138.172-49.646 139.591-50.8078 141.279-51.6926 143.238-52.3005 145.197-52.9084 147.311-53.2124 149.581-53.2124 150.742-53.2124 151.911-53.1111 153.086-52.9084 154.262-52.7058 155.369-52.4356 156.41-52.0979 157.45-51.7602 158.375-51.3819 159.186-50.9631 159.996-50.5443 160.53-50.2066 160.787-49.9499 161.043-49.6933 161.212-49.4906 161.293-49.342 161.374-49.1934 161.442-49.0043 161.496-48.7747 161.55-48.545 161.59-48.2681 161.617-47.9438 161.644-47.6196 161.658-47.2008 161.658-46.6875 161.658-46.2012 161.638-45.7689 161.597-45.3906 161.557-45.0124 161.496-44.6949 161.415-44.4382 161.334-44.1816 161.219-43.9924 161.07-43.8708 160.922-43.7493 160.753-43.6885 160.564-43.6885 160.266-43.6885 159.8-43.8776 159.165-44.2559 158.531-44.6341 157.754-45.0596 156.835-45.5325 155.916-46.0053 154.829-46.4376 153.573-46.8293 152.316-47.2211 150.905-47.417 149.338-47.417 147.879-47.417 146.609-47.2211 145.528-46.8293 144.447-46.4376 143.556-45.9175 142.853-45.269 142.151-44.6206 141.624-43.8506 141.273-42.959 140.921-42.0674 140.746-41.1217 140.746-40.1221 140.746-38.6631 141.083-37.4067 141.759-36.353 142.434-35.2993 143.333-34.3672 144.454-33.5566 145.575-32.7461 146.852-32.0031 148.284-31.3276 149.716-30.6522 151.175-29.97 152.661-29.281 154.147-28.592 155.606-27.8355 157.038-27.0115 158.47-26.1874 159.746-25.2148 160.868-24.0935 161.989-22.9722 162.894-21.6484 163.583-20.1218 164.272-18.5953 164.616-16.7918 164.616-14.7114ZM207.049-19.8179C207.049-16.6297 206.704-13.7658 206.016-11.2261 205.327-8.68636 204.313-6.53166 202.976-4.76196 201.639-2.99227 199.984-1.62785 198.011-0.668701 196.039 0.290446 193.783 0.770019 191.243 0.770019 190.163 0.770019 189.163 0.661947 188.244 0.445801 187.326 0.229655 186.427-0.108073 185.549-0.567383 184.671-1.02669 183.8-1.60758 182.935-2.31006 182.071-3.01253 181.152-3.83659 180.179-4.78223L180.179 13.4551C180.179 13.6712 180.125 13.8603 180.017 14.0225 179.909 14.1846 179.734 14.3197 179.49 14.4277 179.247 14.5358 178.909 14.6169 178.477 14.6709 178.045 14.7249 177.491 14.752 176.816 14.752 176.167 14.752 175.627 14.7249 175.194 14.6709 174.762 14.6169 174.418 14.5358 174.161 14.4277 173.904 14.3197 173.729 14.1846 173.634 14.0225 173.54 13.8603 173.492 13.6712 173.492 13.4551L173.492-37.4878C173.492-37.7309 173.533-37.9268 173.614-38.0754 173.695-38.224 173.857-38.3524 174.1-38.4604 174.343-38.5685 174.654-38.6428 175.032-38.6833 175.411-38.7239 175.87-38.7441 176.41-38.7441 176.978-38.7441 177.444-38.7239 177.809-38.6833 178.173-38.6428 178.477-38.5685 178.72-38.4604 178.964-38.3524 179.132-38.224 179.227-38.0754 179.322-37.9268 179.369-37.7309 179.369-37.4878L179.369-32.584C180.477-33.7187 181.544-34.7049 182.57-35.5425 183.597-36.38 184.631-37.0758 185.671-37.6296 186.711-38.1835 187.778-38.6023 188.872-38.886 189.967-39.1697 191.122-39.3115 192.338-39.3115 194.985-39.3115 197.241-38.7982 199.106-37.7715 200.97-36.7448 202.49-35.3398 203.665-33.5566 204.84-31.7734 205.698-29.6998 206.238-27.3357 206.779-24.9716 207.049-22.4657 207.049-19.8179ZM200.119-19.0478C200.119-20.9121 199.976-22.7156 199.691-24.4583 199.405-26.2009 198.916-27.7477 198.223-29.0986 197.53-30.4495 196.599-31.5303 195.43-32.3408 194.261-33.1514 192.806-33.5566 191.067-33.5566 190.197-33.5566 189.34-33.4283 188.498-33.1716 187.655-32.915 186.799-32.5097 185.929-31.9558 185.059-31.4019 184.148-30.6724 183.197-29.7673 182.245-28.8622 181.239-27.7477 180.179-26.4238L180.179-11.915C182.028-9.67252 183.781-7.95687 185.44-6.76807 187.098-5.57926 188.838-4.98486 190.659-4.98486 192.344-4.98486 193.792-5.39014 195.001-6.20068 196.211-7.01123 197.19-8.09196 197.937-9.44287 198.685-10.7938 199.235-12.3068 199.589-13.9819 199.942-15.6571 200.119-17.3457 200.119-19.0478ZM248.159-20.8311C248.159-19.7773 247.894-19.0276 247.365-18.5818 246.836-18.136 246.232-17.9131 245.553-17.9131L221.533-17.9131C221.533-15.8867 221.736-14.063 222.143-12.4419 222.55-10.8208 223.229-9.42936 224.179-8.26758 225.13-7.10579 226.365-6.21419 227.886-5.59277 229.406-4.97135 231.266-4.66064 233.465-4.66064 235.202-4.66064 236.75-4.80249 238.107-5.08618 239.465-5.36987 240.639-5.68734 241.63-6.03857 242.621-6.38981 243.436-6.70727 244.074-6.99097 244.712-7.27466 245.194-7.4165 245.52-7.4165 245.71-7.4165 245.879-7.36922 246.028-7.27466 246.178-7.18009 246.293-7.03825 246.375-6.84912 246.456-6.65999 246.517-6.39657 246.558-6.05884 246.599-5.72111 246.619-5.30908 246.619-4.82275 246.619-4.47152 246.605-4.16756 246.578-3.91089 246.551-3.65422 246.518-3.42456 246.477-3.22192 246.437-3.01929 246.369-2.83691 246.274-2.6748 246.18-2.5127 246.058-2.35734 245.91-2.20874 245.761-2.06014 245.322-1.81698 244.593-1.47925 243.863-1.14152 242.917-0.810547 241.756-0.486328 240.594-0.162109 239.25 0.128337 237.723 0.38501 236.197 0.641683 234.569 0.770019 232.84 0.770019 229.841 0.770019 227.213 0.351237 224.957-0.486328 222.701-1.32389 220.803-2.56673 219.263-4.21484 217.723-5.86296 216.561-7.92985 215.778-10.4155 214.994-12.9012 214.602-15.7922 214.602-19.0884 214.602-22.2225 215.008-25.0391 215.818-27.5383 216.629-30.0375 217.797-32.1584 219.324-33.9011 220.85-35.6438 222.694-36.9812 224.856-37.9133 227.017-38.8455 229.435-39.3115 232.11-39.3115 234.974-39.3115 237.412-38.8522 239.425-37.9336 241.438-37.015 243.093-35.7789 244.39-34.2253 245.687-32.6718 246.639-30.8481 247.247-28.7541 247.855-26.6602 248.159-24.4245 248.159-22.0469ZM241.431-22.8169C241.513-26.3293 240.731-29.0851 239.087-31.0845 237.442-33.0838 235.003-34.0835 231.768-34.0835 230.109-34.0835 228.655-33.7728 227.405-33.1514 226.154-32.5299 225.107-31.7059 224.265-30.6792 223.422-29.6525 222.769-28.4569 222.307-27.0925 221.845-25.7281 221.587-24.3029 221.533-22.8169ZM284.505-6.56543C284.505-6.10612 284.492-5.7076 284.465-5.36987 284.438-5.03214 284.39-4.74845 284.323-4.5188 284.255-4.28914 284.174-4.08651 284.08-3.91089 283.985-3.73527 283.769-3.4786 283.431-3.14087 283.093-2.80314 282.519-2.38436 281.709-1.88452 280.898-1.38468 279.986-0.938883 278.973-0.547119 277.96-0.155355 276.859 0.162109 275.67 0.405273 274.481 0.648437 273.252 0.770019 271.982 0.770019 269.361 0.770019 267.038 0.337728 265.012-0.526855 262.985-1.39144 261.29-2.65454 259.925-4.31616 258.561-5.97778 257.521-8.01766 256.805-10.4358 256.089-12.8539 255.731-15.6436 255.731-18.8047 255.731-22.3981 256.17-25.4849 257.048-28.0652 257.926-30.6454 259.128-32.7596 260.655-34.4077 262.181-36.0558 263.978-37.2784 266.045-38.0754 268.112-38.8725 270.348-39.271 272.752-39.271 273.914-39.271 275.042-39.1629 276.136-38.9468 277.231-38.7306 278.237-38.4469 279.156-38.0957 280.074-37.7445 280.891-37.3392 281.607-36.8799 282.323-36.4206 282.844-36.0288 283.168-35.7046 283.492-35.3804 283.715-35.1237 283.836-34.9346 283.958-34.7454 284.059-34.5225 284.14-34.2659 284.221-34.0092 284.276-33.7187 284.303-33.3945 284.33-33.0703 284.343-32.665 284.343-32.1787 284.343-31.125 284.221-30.3888 283.978-29.97 283.735-29.5512 283.438-29.3418 283.087-29.3418 282.681-29.3418 282.215-29.5647 281.689-30.0105 281.162-30.4563 280.493-30.9494 279.682-31.4897 278.872-32.0301 277.892-32.5232 276.744-32.969 275.596-33.4148 274.238-33.6377 272.671-33.6377 269.456-33.6377 266.991-32.4016 265.275-29.9294 263.559-27.4573 262.701-23.8706 262.701-19.1694 262.701-16.8188 262.924-14.7587 263.37-12.989 263.816-11.2193 264.471-9.74007 265.336-8.55127 266.2-7.36247 267.261-6.47762 268.517-5.89673 269.773-5.31584 271.212-5.02539 272.833-5.02539 274.373-5.02539 275.724-5.26855 276.886-5.75488 278.048-6.24121 279.054-6.77482 279.905-7.35571 280.756-7.9366 281.472-8.46346 282.053-8.93628 282.634-9.4091 283.087-9.64551 283.411-9.64551 283.6-9.64551 283.762-9.59147 283.897-9.4834 284.032-9.37532 284.147-9.19295 284.242-8.93628 284.336-8.6796 284.404-8.35539 284.444-7.96362 284.485-7.57186 284.505-7.10579 284.505-6.56543Z" fill="#FFFFFF" fill-rule="nonzero" fill-opacity="1" transform="matrix(1 0 0 1 71.4234 124)"/></g></g><path d="M736 950 1494 950 1566 1022 1566 1382 736 1382Z" fill="#3D85C6" fill-rule="evenodd" fill-opacity="1"/><text fill="#FFFFFF" fill-opacity="1" font-family="Calibri,Calibri_MSFontService,sans-serif" font-style="normal" font-variant="normal" font-weight="400" font-stretch="normal" font-size="83" text-anchor="start" direction="ltr" writing-mode="lr-tb" unicode-bidi="normal" text-decoration="none" transform="matrix(1 0 0 1 989.423 1080)">PodSpec</text><g clip-path="url(#clip17)" filter="url(#fx3)" transform="translate(709 1469)"><g clip-path="url(#clip18)"><path d="M22.0002 21.875 779.832 21.875 857 99.0432 857 484.875 22.0002 484.875Z" fill="#3D85C6" fill-rule="evenodd" fill-opacity="1"/></g></g><g clip-path="url(#clip19)" filter="url(#fx4)" transform="translate(936 1501)"><g clip-path="url(#clip20)"><path d="M46.6064-2.87744C46.6064-2.33708 46.5157-1.87777 46.3341-1.49951 46.1526-1.12126 45.9152-0.810547 45.6218-0.567383 45.3284-0.324219 45-0.1486 44.6367-0.0405273 44.2735 0.0675456 43.9101 0.121582 43.5466 0.121582L41.2416 0.121582C40.5151 0.121582 39.8793 0.0472819 39.3343-0.101318 38.7893-0.249919 38.2724-0.520101 37.7835-0.911865 37.2947-1.30363 36.8057-1.83724 36.3166-2.5127 35.8275-3.18815 35.3086-4.05273 34.7598-5.10644L18.7616-34.9346C17.9253-36.4746 17.0824-38.0889 16.2328-39.7776 15.3832-41.4662 14.5924-43.1076 13.8604-44.7017L13.7793-44.7017C13.8333-42.7563 13.8739-40.7705 13.9009-38.7441 13.9279-36.7178 13.9414-34.7049 13.9414-32.7056L13.9414-1.05371C13.9414-0.864583 13.8844-0.68221 13.7704-0.506592 13.6564-0.330973 13.464-0.195882 13.1932-0.101318 12.9224-0.00675456 12.566 0.0743001 12.124 0.141846 11.682 0.209391 11.1188 0.243164 10.4345 0.243164 9.7502 0.243164 9.18715 0.209391 8.74536 0.141846 8.30357 0.0743001 7.95433-0.00675456 7.69766-0.101318 7.44099-0.195882 7.25566-0.330973 7.14168-0.506592 7.02769-0.68221 6.9707-0.864583 6.9707-1.05371L6.9707-49.4434C6.9707-50.5241 7.27751-51.2941 7.89112-51.7534 8.50472-52.2127 9.17395-52.4424 9.8988-52.4424L13.3291-52.4424C14.1375-52.4424 14.8137-52.3748 15.3576-52.2397 15.9016-52.1047 16.3896-51.8818 16.8217-51.571 17.2538-51.2603 17.672-50.828 18.0765-50.2742 18.4809-49.7203 18.9052-49.0246 19.3493-48.187L31.6481-25.1675C32.4054-23.7625 33.1366-22.3914 33.8416-21.054 34.5466-19.7165 35.2255-18.3994 35.8784-17.1025 36.5313-15.8057 37.1775-14.5291 37.8171-13.2727 38.4566-12.0164 39.0899-10.7533 39.7168-9.4834L39.7573-9.4834C39.7033-11.6178 39.6695-13.8401 39.656-16.1501 39.6425-18.4602 39.6357-20.6825 39.6357-22.8169L39.6357-51.2671C39.6357-51.4562 39.6927-51.6318 39.8067-51.7939 39.9207-51.9561 40.1131-52.0979 40.3839-52.2195 40.6547-52.3411 41.0111-52.4289 41.4531-52.4829 41.8951-52.5369 42.4724-52.564 43.185-52.564 43.8124-52.564 44.3541-52.5369 44.8103-52.4829 45.2664-52.4289 45.6228-52.3411 45.8795-52.2195 46.1362-52.0979 46.3215-51.9561 46.4355-51.7939 46.5494-51.6318 46.6064-51.4562 46.6064-51.2671ZM93.4033-19.6558C93.4033-16.6838 93.0115-13.9482 92.228-11.449 91.4445-8.94979 90.2759-6.79508 88.7224-4.98486 87.1689-3.17464 85.2235-1.76294 82.8865-0.749756 80.5494 0.263428 77.8408 0.770019 74.7607 0.770019 71.7617 0.770019 69.1477 0.324219 66.9187-0.567383 64.6897-1.45898 62.8322-2.75586 61.3462-4.45801 59.8602-6.16016 58.7524-8.22705 58.0229-10.6587 57.2934-13.0903 56.9287-15.8462 56.9287-18.9263 56.9287-21.8983 57.3137-24.6339 58.0837-27.1331 58.8538-29.6322 60.0155-31.7869 61.5691-33.5972 63.1226-35.4074 65.0612-36.8123 67.3848-37.812 69.7083-38.8117 72.4237-39.3115 75.5308-39.3115 78.5298-39.3115 81.1438-38.8657 83.3728-37.9741 85.6018-37.0825 87.4593-35.7856 88.9453-34.0835 90.4313-32.3813 91.5458-30.3144 92.2888-27.8828 93.0318-25.4512 93.4033-22.7088 93.4033-19.6558ZM86.4731-19.21C86.4731-21.1823 86.2891-23.0465 85.921-24.8027 85.5528-26.5589 84.9462-28.099 84.101-29.4228 83.2559-30.7467 82.1109-31.7937 80.666-32.5637 79.2212-33.3337 77.4218-33.7187 75.268-33.7187 73.2779-33.7187 71.5672-33.3675 70.1359-32.665 68.7045-31.9626 67.5254-30.9696 66.5986-29.6863 65.6717-28.4029 64.9834-26.8831 64.5336-25.127 64.0838-23.3708 63.8589-21.4525 63.8589-19.3721 63.8589-17.3727 64.0429-15.495 64.4111-13.7388 64.7792-11.9826 65.3926-10.4493 66.2513-9.13892 67.1099-7.82853 68.2617-6.78833 69.7065-6.01831 71.1514-5.24829 72.9507-4.86328 75.1046-4.86328 77.0676-4.86328 78.7716-5.21452 80.2164-5.91699 81.6613-6.61947 82.8471-7.60563 83.774-8.87549 84.7008-10.1453 85.3824-11.6584 85.8187-13.4145 86.255-15.1707 86.4731-17.1025 86.4731-19.21ZM134.27-1.01318C134.27-0.797038 134.223-0.60791 134.128-0.445801 134.034-0.283691 133.872-0.155355 133.642-0.060791 133.412 0.0337728 133.108 0.108073 132.73 0.162109 132.352 0.216146 131.893 0.243164 131.352 0.243164 130.785 0.243164 130.312 0.216146 129.934 0.162109 129.555 0.108073 129.245 0.0337728 129.002-0.060791 128.758-0.155355 128.583-0.283691 128.475-0.445801 128.367-0.60791 128.313-0.797038 128.313-1.01318L128.313-5.83594C126.394-3.75553 124.402-2.13444 122.335-0.972656 120.268 0.189128 118.005 0.770019 115.547 0.770019 112.872 0.770019 110.589 0.249919 108.697-0.790283 106.806-1.83048 105.273-3.23543 104.098-5.00513 102.922-6.77482 102.064-8.85522 101.524-11.2463 100.984-13.6375 100.714-16.1569 100.714-18.8047 100.714-21.9388 101.051-24.769 101.727-27.2952 102.402-29.8214 103.402-31.9761 104.726-33.7593 106.05-35.5425 107.691-36.9137 109.65-37.8728 111.609-38.8319 113.871-39.3115 116.438-39.3115 118.573-39.3115 120.525-38.8455 122.294-37.9133 124.064-36.9812 125.813-35.61 127.543-33.7998L127.543-54.9956C127.543-55.1847 127.59-55.3671 127.684-55.5427 127.779-55.7183 127.961-55.8534 128.232-55.948 128.502-56.0426 128.846-56.1236 129.265-56.1912 129.684-56.2587 130.217-56.2925 130.866-56.2925 131.541-56.2925 132.095-56.2587 132.527-56.1912 132.96-56.1236 133.298-56.0426 133.541-55.948 133.784-55.8534 133.966-55.7183 134.088-55.5427 134.209-55.3671 134.27-55.1847 134.27-54.9956ZM127.543-26.667C125.732-28.9095 123.983-30.6184 122.294-31.7937 120.606-32.969 118.843-33.5566 117.006-33.5566 115.303-33.5566 113.858-33.1514 112.669-32.3408 111.48-31.5303 110.514-30.463 109.771-29.1392 109.028-27.8153 108.488-26.3158 108.15-24.6406 107.813-22.9655 107.644-21.2633 107.644-19.5342 107.644-17.6969 107.786-15.9002 108.069-14.144 108.353-12.3879 108.846-10.8276 109.548-9.46313 110.251-8.09871 111.183-7.00448 112.345-6.18042 113.507-5.35636 114.966-4.94433 116.722-4.94434 117.613-4.94433 118.471-5.06592 119.295-5.30908 120.119-5.55225 120.964-5.95752 121.828-6.5249 122.693-7.09228 123.598-7.82853 124.544-8.73364 125.489-9.63875 126.489-10.7533 127.543-12.0771ZM177.69-20.8311C177.69-19.7773 177.426-19.0276 176.896-18.5818 176.367-18.136 175.763-17.9131 175.084-17.9131L151.064-17.9131C151.064-15.8867 151.267-14.063 151.675-12.4419 152.082-10.8208 152.76-9.42936 153.711-8.26758 154.661-7.10579 155.896-6.21419 157.417-5.59277 158.937-4.97135 160.797-4.66064 162.996-4.66064 164.734-4.66064 166.281-4.80249 167.639-5.08618 168.996-5.36987 170.17-5.68734 171.161-6.03857 172.152-6.38981 172.967-6.70727 173.605-6.99097 174.243-7.27466 174.725-7.4165 175.051-7.4165 175.241-7.4165 175.41-7.36922 175.56-7.27466 175.709-7.18009 175.824-7.03825 175.906-6.84912 175.987-6.65999 176.048-6.39657 176.089-6.05884 176.13-5.72111 176.15-5.30908 176.15-4.82275 176.15-4.47152 176.137-4.16756 176.11-3.91089 176.083-3.65422 176.049-3.42456 176.008-3.22192 175.968-3.01929 175.9-2.83691 175.806-2.6748 175.711-2.5127 175.59-2.35734 175.441-2.20874 175.292-2.06014 174.853-1.81698 174.124-1.47925 173.394-1.14152 172.449-0.810547 171.287-0.486328 170.125-0.162109 168.781 0.128337 167.254 0.38501 165.728 0.641683 164.1 0.770019 162.371 0.770019 159.372 0.770019 156.744 0.351237 154.488-0.486328 152.232-1.32389 150.334-2.56673 148.794-4.21484 147.254-5.86296 146.092-7.92985 145.309-10.4155 144.525-12.9012 144.134-15.7922 144.134-19.0884 144.134-22.2225 144.539-25.0391 145.349-27.5383 146.16-30.0375 147.329-32.1584 148.855-33.9011 150.382-35.6438 152.226-36.9812 154.387-37.9133 156.548-38.8455 158.967-39.3115 161.641-39.3115 164.505-39.3115 166.944-38.8522 168.957-37.9336 170.969-37.015 172.624-35.7789 173.921-34.2253 175.218-32.6718 176.17-30.8481 176.778-28.7541 177.386-26.6602 177.69-24.4245 177.69-22.0469ZM170.963-22.8169C171.044-26.3293 170.262-29.0851 168.618-31.0845 166.974-33.0838 164.534-34.0835 161.299-34.0835 159.641-34.0835 158.186-33.7728 156.936-33.1514 155.685-32.5299 154.639-31.7059 153.796-30.6792 152.953-29.6525 152.301-28.4569 151.839-27.0925 151.376-25.7281 151.118-24.3029 151.064-22.8169Z" fill="#FFFFFF" fill-rule="nonzero" fill-opacity="1" transform="matrix(1 0 0 1 71.4651 123)"/><path d="M40.3652-2.5127C40.7165-1.91829 40.9259-1.44548 40.9934-1.09424 41.061-0.743001 40.9731-0.466064 40.73-0.263428 40.4868-0.060791 40.0883 0.0743001 39.5344 0.141846 38.9805 0.209391 38.2443 0.243164 37.3257 0.243164 36.4611 0.243164 35.7856 0.2229 35.2993 0.182373 34.813 0.141846 34.428 0.0675456 34.1443-0.0405273 33.8606-0.1486 33.6444-0.276937 33.4958-0.425537 33.3472-0.574137 33.2189-0.770019 33.1108-1.01318L21.439-21.8848 9.64551-1.01318C9.51042-0.770019 9.36182-0.567383 9.19971-0.405273 9.0376-0.243164 8.8147-0.114827 8.531-0.0202637 8.24731 0.0743001 7.8623 0.141846 7.37598 0.182373 6.88965 0.2229 6.24121 0.243164 5.43066 0.243164 4.53906 0.243164 3.83659 0.209391 3.32324 0.141846 2.8099 0.0743001 2.4519-0.060791 2.24927-0.263428 2.04663-0.466064 1.97908-0.743001 2.04663-1.09424 2.11418-1.44548 2.32357-1.91829 2.6748-2.5127L16.981-26.6265 3.32324-49.9297C2.99902-50.5241 2.78963-51.0037 2.69507-51.3684 2.6005-51.7332 2.6613-52.0168 2.87744-52.2195 3.09359-52.4221 3.47184-52.5505 4.01221-52.6045 4.55257-52.6585 5.29557-52.6855 6.24121-52.6855 7.05176-52.6855 7.7137-52.6653 8.22705-52.6248 8.7404-52.5842 9.14567-52.5167 9.44287-52.4221 9.74007-52.3276 9.95622-52.1925 10.0913-52.0168 10.2264-51.8412 10.375-51.6453 10.5371-51.4292L21.8037-31.814 32.9893-51.4292C33.1243-51.6453 33.2594-51.8412 33.3945-52.0168 33.5296-52.1925 33.7255-52.3276 33.9822-52.4221 34.2388-52.5167 34.5968-52.5842 35.0561-52.6248 35.5155-52.6653 36.1369-52.6855 36.9204-52.6855 37.758-52.6855 38.4402-52.6518 38.967-52.5842 39.4939-52.5167 39.8721-52.3883 40.1018-52.1992 40.3315-52.0101 40.4193-51.7332 40.3652-51.3684 40.3112-51.0037 40.1221-50.5241 39.7978-49.9297L26.1807-26.7886Z" fill="#FFFFFF" fill-rule="nonzero" fill-opacity="1" transform="matrix(1 0 0 1 271.986 123)"/></g></g><path d="M731 1484 1488.83 1484 1566 1561.17 1566 1947 731 1947Z" fill="#3D85C6" fill-rule="evenodd" fill-opacity="1"/><text fill="#FFFFFF" fill-opacity="1" font-family="Calibri,Calibri_MSFontService,sans-serif" font-style="normal" font-variant="normal" font-weight="400" font-stretch="normal" font-size="83" text-anchor="start" direction="ltr" writing-mode="lr-tb" unicode-bidi="normal" text-decoration="none" transform="matrix(1 0 0 1 1007.47 1618)">Node <tspan fill="#FFFFFF" fill-opacity="1" font-family="Calibri,Calibri_MSFontService,sans-serif" font-style="normal" font-variant="normal" font-weight="400" font-stretch="normal" font-size="83" text-anchor="start" direction="ltr" writing-mode="lr-tb" unicode-bidi="normal" text-decoration="none" x="200.521" y="0">X</tspan><tspan fill="#595959" fill-opacity="1" font-family="Calibri,Calibri_MSFontService,sans-serif" font-style="normal" font-variant="normal" font-weight="400" font-stretch="normal" font-size="73" text-anchor="start" direction="ltr" writing-mode="lr-tb" unicode-bidi="normal" text-decoration="none" x="-105.724" y="-743">API server</tspan></text><path d="M816.5 1242C816.5 1228.47 827.469 1217.5 841 1217.5L1386 1217.5C1399.53 1217.5 1410.5 1228.47 1410.5 1242L1410.5 1340C1410.5 1353.53 1399.53 1364.5 1386 1364.5L841 1364.5C827.469 1364.5 816.5 1353.53 816.5 1340Z" stroke="#FFFFFF" stroke-width="3.4375" stroke-linecap="butt" stroke-linejoin="round" stroke-miterlimit="10" stroke-dasharray="3.4375 10.3125" stroke-opacity="1" fill="none" fill-rule="evenodd"/><path d="M775.5 1729.67C775.5 1711.9 789.902 1697.5 807.668 1697.5L1489.33 1697.5C1507.1 1697.5 1521.5 1711.9 1521.5 1729.67L1521.5 1858.33C1521.5 1876.1 1507.1 1890.5 1489.33 1890.5L807.668 1890.5C789.902 1890.5 775.5 1876.1 775.5 1858.33Z" stroke="#FFFFFF" stroke-width="3.4375" stroke-linecap="butt" stroke-linejoin="round" stroke-miterlimit="10" stroke-dasharray="3.4375 10.3125" stroke-opacity="1" fill="none" fill-rule="evenodd"/><g clip-path="url(#clip21)" filter="url(#fx5)" transform="translate(2167 1034)"><g clip-path="url(#clip22)"><path d="M22 211.878C22 106.943 107.067 21.8751 212.003 21.8751L1521 21.8751C1625.93 21.8751 1711 106.943 1711 211.878L1711 971.872C1711 1076.81 1625.93 1161.88 1521 1161.88L212.003 1161.88C107.067 1161.88 22 1076.81 22 971.872Z" fill="#EFEFEF" fill-rule="evenodd" fill-opacity="1"/></g></g><path d="M2189 1239C2189 1134.07 2274.07 1049 2379 1049L3688 1049C3792.93 1049 3878 1134.07 3878 1239L3878 1999C3878 2103.93 3792.93 2189 3688 2189L2379 2189C2274.07 2189 2189 2103.93 2189 1999Z" fill="#EFEFEF" fill-rule="evenodd" fill-opacity="1"/><g clip-path="url(#clip23)" filter="url(#fx6)" transform="translate(2201 774)"><g clip-path="url(#clip24)"><path d="M22 52.8751C22 35.7542 35.8793 21.8749 53.0003 21.8749L721 21.8749C738.121 21.8749 752 35.7542 752 52.8751L752 176.875C752 193.996 738.121 207.875 721 207.875L53.0003 207.875C35.8793 207.875 22 193.996 22 176.875Z" fill="#CCCCCC" fill-rule="evenodd" fill-opacity="1"/></g></g><path d="M2223 820C2223 802.879 2236.88 789 2254 789L2922 789C2939.12 789 2953 802.879 2953 820L2953 944C2953 961.121 2939.12 975 2922 975L2254 975C2236.88 975 2223 961.121 2223 944Z" fill="#CCCCCC" fill-rule="evenodd" fill-opacity="1"/><text fill="#595959" fill-opacity="1" font-family="Calibri,Calibri_MSFontService,sans-serif" font-style="normal" font-variant="normal" font-weight="400" font-stretch="normal" font-size="64" text-anchor="start" direction="ltr" writing-mode="lr-tb" unicode-bidi="normal" text-decoration="none" transform="matrix(1 0 0 1 2434.58 904)">Scheduler</text><g clip-path="url(#clip25)" filter="url(#fx7)" transform="translate(3000 1250)"><g clip-path="url(#clip26)"><path d="M22 56.209C22 37.2469 37.3718 21.875 56.334 21.875L484.666 21.875C503.628 21.875 519 37.2469 519 56.209L519 193.541C519 212.503 503.628 227.875 484.666 227.875L56.334 227.875C37.3718 227.875 22 212.503 22 193.541Z" fill="#C9DAF8" fill-rule="evenodd" fill-opacity="1"/></g></g><path d="M3022 1299.33C3022 1280.37 3037.37 1265 3056.33 1265L3484.67 1265C3503.63 1265 3519 1280.37 3519 1299.33L3519 1436.67C3519 1455.63 3503.63 1471 3484.67 1471L3056.33 1471C3037.37 1471 3022 1455.63 3022 1436.67Z" fill="#C9DAF8" fill-rule="evenodd" fill-opacity="1"/><text fill="#434343" fill-opacity="1" font-family="Calibri,Calibri_MSFontService,sans-serif" font-style="normal" font-variant="normal" font-weight="400" font-stretch="normal" font-size="73" text-anchor="start" direction="ltr" writing-mode="lr-tb" unicode-bidi="normal" text-decoration="none" transform="matrix(1 0 0 1 3150.61 1392)">runtime</text><g clip-path="url(#clip27)" filter="url(#fx8)" transform="translate(3000 1898)"><g clip-path="url(#clip28)"><path d="M22 56.209C22 37.2469 37.3718 21.875 56.334 21.875L484.666 21.875C503.628 21.875 519 37.2469 519 56.209L519 193.541C519 212.503 503.628 227.875 484.666 227.875L56.334 227.875C37.3718 227.875 22 212.503 22 193.541Z" fill="#C9DAF8" fill-rule="evenodd" fill-opacity="1"/></g></g><path d="M3022 1947.33C3022 1928.37 3037.37 1913 3056.33 1913L3484.67 1913C3503.63 1913 3519 1928.37 3519 1947.33L3519 2084.67C3519 2103.63 3503.63 2119 3484.67 2119L3056.33 2119C3037.37 2119 3022 2103.63 3022 2084.67Z" fill="#C9DAF8" fill-rule="evenodd" fill-opacity="1"/><text fill="#434343" fill-opacity="1" font-family="Calibri,Calibri_MSFontService,sans-serif" font-style="normal" font-variant="normal" font-weight="400" font-stretch="normal" font-size="73" text-anchor="start" direction="ltr" writing-mode="lr-tb" unicode-bidi="normal" text-decoration="none" transform="matrix(1 0 0 1 3170.25 2042)">system</text><path d="M3134.22 1487.83 3134.32 1894.31 3130.89 1894.31 3130.79 1487.83ZM3132.5 1487.83 3118.76 1497 3132.5 1469.5 3146.26 1497ZM3132.6 1894.31 3146.35 1885.14 3132.61 1912.64 3118.85 1885.14Z" fill="#595959" fill-rule="nonzero" fill-opacity="1"/><path d="M3410.22 1475.5 3410.32 1900.3 3406.89 1900.31 3406.78 1475.5ZM3394.75 1475.5C3394.75 1467.91 3400.9 1461.75 3408.5 1461.75 3416.09 1461.75 3422.25 1467.9 3422.25 1475.5 3422.25 1483.09 3416.1 1489.25 3408.5 1489.25 3400.91 1489.25 3394.75 1483.1 3394.75 1475.5ZM3408.6 1900.31 3422.35 1891.14 3408.61 1918.64 3394.85 1891.14Z" fill="#595959" fill-rule="nonzero" fill-opacity="1"/><path d="M3003.23 1334.45 2660.49 1333.22 2660.51 1329.78 3003.25 1331.01ZM3003.24 1332.73 2994.12 1318.95 3021.57 1332.8 2994.02 1346.45ZM2660.45 1345.25C2652.86 1345.22 2646.72 1339.04 2646.75 1331.45 2646.78 1323.86 2652.96 1317.72 2660.55 1317.75 2668.14 1317.78 2674.28 1323.96 2674.25 1331.55 2674.22 1339.14 2668.04 1345.28 2660.45 1345.25Z" fill="#595959" fill-rule="nonzero" fill-opacity="1"/><path d="M1.6527e-06-1.71875 356.981-1.71841 356.981 1.71909-1.6527e-06 1.71875ZM-1.32216e-05 13.75C-7.59393 13.75-13.75 7.5939-13.75-1.32216e-05-13.75-7.59393-7.5939-13.75 1.32216e-05-13.75 7.59393-13.75 13.75-7.5939 13.75 1.32216e-05 13.75 7.59393 7.5939 13.75-1.32216e-05 13.75ZM356.981 0.000343264 347.814-13.7497 375.314 0.000360892 347.814 13.7503Z" fill="#595959" fill-rule="nonzero" fill-opacity="1" transform="matrix(-1 0 0 1 3021.81 1395.5)"/><path d="M17.669 5.16299 855.624 337.714 854.356 340.909 16.401 8.35807ZM17.0405 6.76269 20.4887 22.9244 0 0 30.6327-2.63631ZM860.062 326.531C867.121 329.332 870.572 337.325 867.771 344.383 864.969 351.441 856.977 354.893 849.918 352.091 842.86 349.29 839.409 341.297 842.21 334.239 845.011 327.181 853.004 323.729 860.062 326.531Z" fill="#595959" fill-rule="nonzero" fill-opacity="1" transform="matrix(-1 0 0 1 2227.49 877.5)"/><path d="M18.3443-1.59352 840.277 4.01948 840.254 7.4569 18.3208 1.8439ZM18.3329 0.125196 27.4055 13.9375 0 0 27.5933-13.5619ZM840.36-8.01149C847.953-7.95963 854.067-1.76165 854.015 5.83209 853.964 13.4258 847.766 19.5397 840.172 19.4879 832.578 19.436 826.464 13.238 826.516 5.64429 826.568-1.94945 832.766-8.06335 840.36-8.01149Z" fill="#595959" fill-rule="nonzero" fill-opacity="1" transform="matrix(-1 0 0 1 2258.77 1332.5)"/><path d="M0.693808-1.57249 714.183 313.23 712.796 316.375-0.693808 1.57249ZM-5.55046 12.5799C-12.4982 9.5145-15.6454 1.39724-12.5799-5.55046-9.5145-12.4982-1.39724-15.6454 5.55046-12.5799 12.4982-9.5145 15.6454-1.39724 12.5799 5.55046 9.5145 12.4982 1.39724 15.6454-5.55046 12.5799ZM713.492 314.804 710.656 298.524 730.266 322.205 699.555 323.684Z" fill="#595959" fill-rule="nonzero" fill-opacity="1" transform="matrix(-1 0 0 1 2251.77 1413.5)"/><g clip-path="url(#clip29)" filter="url(#fx9)" transform="translate(2244 1202)"><g clip-path="url(#clip30)"><path d="M22 76.7081C22 46.4245 46.5497 21.8749 76.8332 21.8749L347.167 21.8749C377.45 21.8749 402 46.4245 402 76.7081L402 296.035C402 326.318 377.45 350.868 347.167 350.868L76.8332 350.868C46.5497 350.868 22 326.318 22 296.035Z" fill="#C9DAF8" fill-rule="evenodd" fill-opacity="1"/></g></g><path d="M2266 1271.83C2266 1241.55 2290.55 1217 2320.83 1217L2591.17 1217C2621.45 1217 2646 1241.55 2646 1271.83L2646 1491.16C2646 1521.44 2621.45 1545.99 2591.17 1545.99L2320.83 1545.99C2290.55 1545.99 2266 1521.44 2266 1491.16Z" fill="#C9DAF8" fill-rule="evenodd" fill-opacity="1"/><text fill="#434343" fill-opacity="1" font-family="Calibri,Calibri_MSFontService,sans-serif" font-style="normal" font-variant="normal" font-weight="400" font-stretch="normal" font-size="73" text-anchor="start" direction="ltr" writing-mode="lr-tb" unicode-bidi="normal" text-decoration="none" transform="matrix(1 0 0 1 2343.71 1405)">kubelet<tspan fill="#666666" fill-opacity="1" font-family="Calibri,Calibri_MSFontService,sans-serif" font-style="normal" font-variant="normal" font-weight="400" font-stretch="normal" font-size="73" text-anchor="start" direction="ltr" writing-mode="lr-tb" unicode-bidi="normal" text-decoration="none" x="997.211" y="-210">node X</tspan><tspan fill="#0B5394" fill-opacity="1" font-family="Arial,Arial_MSFontService,sans-serif" font-style="normal" font-variant="normal" font-weight="400" font-stretch="normal" font-size="46" text-anchor="start" direction="ltr" writing-mode="lr-tb" unicode-bidi="normal" text-decoration="none" x="1180.03" y="247">enforce </tspan><tspan fill="#0B5394" fill-opacity="1" font-family="Arial,Arial_MSFontService,sans-serif" font-style="normal" font-variant="normal" font-weight="400" font-stretch="normal" font-size="46" text-anchor="start" direction="ltr" writing-mode="lr-tb" unicode-bidi="normal" text-decoration="none" x="1180.03" y="302">QoS</tspan><tspan fill="#0B5394" fill-opacity="1" font-family="Arial,Arial_MSFontService,sans-serif" font-style="normal" font-variant="normal" font-weight="400" font-stretch="normal" font-size="46" text-anchor="start" direction="ltr" writing-mode="lr-tb" unicode-bidi="normal" text-decoration="none" x="1271.12" y="302">-</tspan><tspan fill="#0B5394" fill-opacity="1" font-family="Arial,Arial_MSFontService,sans-serif" font-style="normal" font-variant="normal" font-weight="400" font-stretch="normal" font-size="46" text-anchor="start" direction="ltr" writing-mode="lr-tb" unicode-bidi="normal" text-decoration="none" x="1286.59" y="302">class </tspan><tspan fill="#0B5394" fill-opacity="1" font-family="Arial,Arial_MSFontService,sans-serif" font-style="normal" font-variant="normal" font-weight="400" font-stretch="normal" font-size="46" text-anchor="start" direction="ltr" writing-mode="lr-tb" unicode-bidi="normal" text-decoration="none" x="1180.03" y="357">resource </tspan><tspan fill="#0B5394" fill-opacity="1" font-family="Arial,Arial_MSFontService,sans-serif" font-style="normal" font-variant="normal" font-weight="400" font-stretch="normal" font-size="46" text-anchor="start" direction="ltr" writing-mode="lr-tb" unicode-bidi="normal" text-decoration="none" x="1180.03" y="412">assignment</tspan><tspan fill="#0B5394" fill-opacity="1" font-family="Arial,Arial_MSFontService,sans-serif" font-style="normal" font-variant="normal" font-weight="400" font-stretch="normal" font-size="46" text-anchor="start" direction="ltr" writing-mode="lr-tb" unicode-bidi="normal" text-decoration="none" x="810.375" y="271">initialize </tspan><tspan fill="#0B5394" fill-opacity="1" font-family="Arial,Arial_MSFontService,sans-serif" font-style="normal" font-variant="normal" font-weight="400" font-stretch="normal" font-size="46" text-anchor="start" direction="ltr" writing-mode="lr-tb" unicode-bidi="normal" text-decoration="none" x="810.375" y="326">QoS</tspan><tspan fill="#0B5394" fill-opacity="1" font-family="Arial,Arial_MSFontService,sans-serif" font-style="normal" font-variant="normal" font-weight="400" font-stretch="normal" font-size="46" text-anchor="start" direction="ltr" writing-mode="lr-tb" unicode-bidi="normal" text-decoration="none" x="901.469" y="326">-</tspan><tspan fill="#0B5394" fill-opacity="1" font-family="Arial,Arial_MSFontService,sans-serif" font-style="normal" font-variant="normal" font-weight="400" font-stretch="normal" font-size="46" text-anchor="start" direction="ltr" writing-mode="lr-tb" unicode-bidi="normal" text-decoration="none" x="916.937" y="326">class</tspan><tspan fill="#0B5394" fill-opacity="1" font-family="Arial,Arial_MSFontService,sans-serif" font-style="normal" font-variant="normal" font-weight="400" font-stretch="normal" font-size="46" text-anchor="start" direction="ltr" writing-mode="lr-tb" unicode-bidi="normal" text-decoration="none" x="810.375" y="381">resources</tspan><tspan fill="#0B5394" fill-opacity="1" font-family="Arial,Arial_MSFontService,sans-serif" font-style="normal" font-variant="normal" font-weight="400" font-stretch="normal" font-size="46" text-anchor="start" direction="ltr" writing-mode="lr-tb" unicode-bidi="normal" text-decoration="none" x="361.782" y="45">announce</tspan><tspan fill="#0B5394" fill-opacity="1" font-family="Arial,Arial_MSFontService,sans-serif" font-style="normal" font-variant="normal" font-weight="400" font-stretch="normal" font-size="46" text-anchor="start" direction="ltr" writing-mode="lr-tb" unicode-bidi="normal" text-decoration="none" x="361.782" y="100">QoS</tspan><tspan fill="#0B5394" fill-opacity="1" font-family="Arial,Arial_MSFontService,sans-serif" font-style="normal" font-variant="normal" font-weight="400" font-stretch="normal" font-size="46" text-anchor="start" direction="ltr" writing-mode="lr-tb" unicode-bidi="normal" text-decoration="none" x="452.875" y="100">-</tspan><tspan fill="#0B5394" fill-opacity="1" font-family="Arial,Arial_MSFontService,sans-serif" font-style="normal" font-variant="normal" font-weight="400" font-stretch="normal" font-size="46" text-anchor="start" direction="ltr" writing-mode="lr-tb" unicode-bidi="normal" text-decoration="none" x="468.344" y="100">class </tspan><tspan fill="#0B5394" fill-opacity="1" font-family="Arial,Arial_MSFontService,sans-serif" font-style="normal" font-variant="normal" font-weight="400" font-stretch="normal" font-size="46" text-anchor="start" direction="ltr" writing-mode="lr-tb" unicode-bidi="normal" text-decoration="none" x="361.782" y="155">resources</tspan><tspan fill="#0B5394" fill-opacity="1" font-family="Arial,Arial_MSFontService,sans-serif" font-style="normal" font-variant="normal" font-weight="400" font-stretch="normal" font-size="46" text-anchor="start" direction="ltr" writing-mode="lr-tb" unicode-bidi="normal" text-decoration="none" x="-1841.97" y="-299">pod is </tspan><tspan fill="#0B5394" fill-opacity="1" font-family="Arial,Arial_MSFontService,sans-serif" font-style="normal" font-variant="normal" font-weight="400" font-stretch="normal" font-size="46" text-anchor="start" direction="ltr" writing-mode="lr-tb" unicode-bidi="normal" text-decoration="none" x="-1841.97" y="-244">created</tspan></text><text fill="#0B5394" fill-opacity="1" font-family="Arial,Arial_MSFontService,sans-serif" font-style="normal" font-variant="normal" font-weight="400" font-stretch="normal" font-size="46" text-anchor="start" direction="ltr" writing-mode="lr-tb" unicode-bidi="normal" text-decoration="none" transform="matrix(0.93149 -0.363766 0.363766 0.93149 1782.34 1016)">find suitable node</text><text fill="#0B5394" fill-opacity="1" font-family="Arial,Arial_MSFontService,sans-serif" font-style="normal" font-variant="normal" font-weight="400" font-stretch="normal" font-size="46" text-anchor="start" direction="ltr" writing-mode="lr-tb" unicode-bidi="normal" text-decoration="none" transform="matrix(1 0 0 1 1774.76 1304)">pod is scheduled</text><text fill="#0B5394" fill-opacity="1" font-family="Arial,Arial_MSFontService,sans-serif" font-style="normal" font-variant="normal" font-weight="400" font-stretch="normal" font-size="46" text-anchor="start" direction="ltr" writing-mode="lr-tb" unicode-bidi="normal" text-decoration="none" transform="matrix(0.917949 -0.396698 0.396698 0.917949 1742.73 1601)">update node status</text><text fill="#0B5394" fill-opacity="1" font-family="Arial,Arial_MSFontService,sans-serif" font-style="normal" font-variant="normal" font-weight="400" font-stretch="normal" font-size="46" text-anchor="start" direction="ltr" writing-mode="lr-tb" unicode-bidi="normal" text-decoration="none" transform="matrix(1 0 0 1 2693.14 1190)">pod &amp; <tspan fill="#0B5394" fill-opacity="1" font-family="Arial,Arial_MSFontService,sans-serif" font-style="normal" font-variant="normal" font-weight="400" font-stretch="normal" font-size="46" text-anchor="start" direction="ltr" writing-mode="lr-tb" unicode-bidi="normal" text-decoration="none" x="0" y="55">containers</tspan><tspan fill="#0B5394" fill-opacity="1" font-family="Arial,Arial_MSFontService,sans-serif" font-style="normal" font-variant="normal" font-weight="400" font-stretch="normal" font-size="46" text-anchor="start" direction="ltr" writing-mode="lr-tb" unicode-bidi="normal" text-decoration="none" x="0" y="110">created</tspan></text><path d="M18.3357-1.69191 289.644-1.2947 289.639 2.1428 18.3307 1.74559ZM18.3333 0.0268408 27.4798 13.7902 0 0 27.5201-13.7097ZM289.662-13.3259C297.255-13.3148 303.402-7.14973 303.391 0.444179 303.38 8.03809 297.215 14.1852 289.621 14.174 282.027 14.1629 275.88 7.99783 275.891 0.403918 275.903-7.18999 282.068-13.3371 289.662-13.3259Z" fill="#595959" fill-rule="nonzero" fill-opacity="1" transform="matrix(-1 0 0 1 734.141 1185.5)"/><path d="M484.5 1249C484.5 1226.08 503.304 1207.5 526.5 1207.5 549.696 1207.5 568.5 1226.08 568.5 1249 568.5 1271.92 549.696 1290.5 526.5 1290.5 503.304 1290.5 484.5 1271.92 484.5 1249Z" stroke="#3D85C6" stroke-width="3.4375" stroke-linecap="butt" stroke-linejoin="round" stroke-miterlimit="10" stroke-opacity="1" fill="#FFE599" fill-rule="evenodd" fill-opacity="1"/><text fill="#0B5394" fill-opacity="1" font-family="Calibri,Calibri_MSFontService,sans-serif" font-style="normal" font-variant="normal" font-weight="400" font-stretch="normal" font-size="50" text-anchor="start" direction="ltr" writing-mode="lr-tb" unicode-bidi="normal" text-decoration="none" transform="matrix(1 0 0 1 509.475 1266)">4</text><path d="M1649.5 1035C1649.5 1012.08 1668.3 993.5 1691.5 993.5 1714.7 993.5 1733.5 1012.08 1733.5 1035 1733.5 1057.92 1714.7 1076.5 1691.5 1076.5 1668.3 1076.5 1649.5 1057.92 1649.5 1035Z" stroke="#3D85C6" stroke-width="3.4375" stroke-linecap="butt" stroke-linejoin="round" stroke-miterlimit="10" stroke-opacity="1" fill="#FFE599" fill-rule="evenodd" fill-opacity="1"/><text fill="#0B5394" fill-opacity="1" font-family="Calibri,Calibri_MSFontService,sans-serif" font-style="normal" font-variant="normal" font-weight="400" font-stretch="normal" font-size="50" text-anchor="start" direction="ltr" writing-mode="lr-tb" unicode-bidi="normal" text-decoration="none" transform="matrix(1 0 0 1 1674.32 1051)">5</text><path d="M1664.5 1272C1664.5 1249.08 1683.3 1230.5 1706.5 1230.5 1729.7 1230.5 1748.5 1249.08 1748.5 1272 1748.5 1294.92 1729.7 1313.5 1706.5 1313.5 1683.3 1313.5 1664.5 1294.92 1664.5 1272Z" stroke="#3D85C6" stroke-width="3.4375" stroke-linecap="butt" stroke-linejoin="round" stroke-miterlimit="10" stroke-opacity="1" fill="#FFE599" fill-rule="evenodd" fill-opacity="1"/><text fill="#0B5394" fill-opacity="1" font-family="Calibri,Calibri_MSFontService,sans-serif" font-style="normal" font-variant="normal" font-weight="400" font-stretch="normal" font-size="50" text-anchor="start" direction="ltr" writing-mode="lr-tb" unicode-bidi="normal" text-decoration="none" transform="matrix(1 0 0 1 1690.16 1288)">6</text><path d="M1629.5 1585C1629.5 1562.08 1648.3 1543.5 1671.5 1543.5 1694.7 1543.5 1713.5 1562.08 1713.5 1585 1713.5 1607.92 1694.7 1626.5 1671.5 1626.5 1648.3 1626.5 1629.5 1607.92 1629.5 1585Z" stroke="#3D85C6" stroke-width="3.4375" stroke-linecap="butt" stroke-linejoin="round" stroke-miterlimit="10" stroke-opacity="1" fill="#FFE599" fill-rule="evenodd" fill-opacity="1"/><text fill="#0B5394" fill-opacity="1" font-family="Calibri,Calibri_MSFontService,sans-serif" font-style="normal" font-variant="normal" font-weight="400" font-stretch="normal" font-size="50" text-anchor="start" direction="ltr" writing-mode="lr-tb" unicode-bidi="normal" text-decoration="none" transform="matrix(1 0 0 1 1654.86 1601)">3</text><path d="M2936.5 1272C2936.5 1249.08 2955.3 1230.5 2978.5 1230.5 3001.7 1230.5 3020.5 1249.08 3020.5 1272 3020.5 1294.92 3001.7 1313.5 2978.5 1313.5 2955.3 1313.5 2936.5 1294.92 2936.5 1272Z" stroke="#3D85C6" stroke-width="3.4375" stroke-linecap="butt" stroke-linejoin="round" stroke-miterlimit="10" stroke-opacity="1" fill="#FFE599" fill-rule="evenodd" fill-opacity="1"/><text fill="#0B5394" fill-opacity="1" font-family="Calibri,Calibri_MSFontService,sans-serif" font-style="normal" font-variant="normal" font-weight="400" font-stretch="normal" font-size="50" text-anchor="start" direction="ltr" writing-mode="lr-tb" unicode-bidi="normal" text-decoration="none" transform="matrix(1 0 0 1 2961.37 1288)">7</text><path d="M2930.5 1454C2930.5 1431.08 2949.53 1412.5 2973 1412.5 2996.47 1412.5 3015.5 1431.08 3015.5 1454 3015.5 1476.92 2996.47 1495.5 2973 1495.5 2949.53 1495.5 2930.5 1476.92 2930.5 1454Z" stroke="#3D85C6" stroke-width="3.4375" stroke-linecap="butt" stroke-linejoin="round" stroke-miterlimit="10" stroke-opacity="1" fill="#FFE599" fill-rule="evenodd" fill-opacity="1"/><text fill="#0B5394" fill-opacity="1" font-family="Calibri,Calibri_MSFontService,sans-serif" font-style="normal" font-variant="normal" font-weight="400" font-stretch="normal" font-size="50" text-anchor="start" direction="ltr" writing-mode="lr-tb" unicode-bidi="normal" text-decoration="none" transform="matrix(1 0 0 1 2956.26 1471)">2</text><path d="M3027.5 1693C3027.5 1670.08 3046.3 1651.5 3069.5 1651.5 3092.7 1651.5 3111.5 1670.08 3111.5 1693 3111.5 1715.92 3092.7 1734.5 3069.5 1734.5 3046.3 1734.5 3027.5 1715.92 3027.5 1693Z" stroke="#3D85C6" stroke-width="3.4375" stroke-linecap="butt" stroke-linejoin="round" stroke-miterlimit="10" stroke-opacity="1" fill="#FFE599" fill-rule="evenodd" fill-opacity="1"/><text fill="#0B5394" fill-opacity="1" font-family="Calibri,Calibri_MSFontService,sans-serif" font-style="normal" font-variant="normal" font-weight="400" font-stretch="normal" font-size="50" text-anchor="start" direction="ltr" writing-mode="lr-tb" unicode-bidi="normal" text-decoration="none" transform="matrix(1 0 0 1 3052.61 1709)">1</text><path d="M3424.5 1693C3424.5 1670.08 3443.3 1651.5 3466.5 1651.5 3489.7 1651.5 3508.5 1670.08 3508.5 1693 3508.5 1715.92 3489.7 1734.5 3466.5 1734.5 3443.3 1734.5 3424.5 1715.92 3424.5 1693Z" stroke="#3D85C6" stroke-width="3.4375" stroke-linecap="butt" stroke-linejoin="round" stroke-miterlimit="10" stroke-opacity="1" fill="#FFE599" fill-rule="evenodd" fill-opacity="1"/><text fill="#0B5394" fill-opacity="1" font-family="Calibri,Calibri_MSFontService,sans-serif" font-style="normal" font-variant="normal" font-weight="400" font-stretch="normal" font-size="50" text-anchor="start" direction="ltr" writing-mode="lr-tb" unicode-bidi="normal" text-decoration="none" transform="matrix(1 0 0 1 3449.46 1709)">8</text><path d="M2492 1213C2492 1170.47 2526.47 1136 2569 1136L2972 1136C3014.53 1136 3049 1170.47 3049 1213L3049 1521C3049 1563.53 3014.53 1598 2972 1598L2569 1598C2526.47 1598 2492 1563.53 2492 1521Z" stroke="#FFC000" stroke-width="5.72917" stroke-linecap="butt" stroke-linejoin="round" stroke-miterlimit="10" stroke-dasharray="17.1875 5.72917" stroke-opacity="1" fill="none" fill-rule="evenodd"/><path d="M3010 1624.67C3010 1600.55 3029.55 1581 3053.67 1581L3749.33 1581C3773.45 1581 3793 1600.55 3793 1624.67L3793 1799.33C3793 1823.45 3773.45 1843 3749.33 1843L3053.67 1843C3029.55 1843 3010 1823.45 3010 1799.33Z" stroke="#A5A5A5" stroke-width="5.72917" stroke-linecap="butt" stroke-linejoin="round" stroke-miterlimit="10" stroke-dasharray="17.1875 5.72917" stroke-opacity="1" fill="none" fill-rule="evenodd"/><text fill="#A5A5A5" fill-opacity="1" font-family="Calibri,Calibri_MSFontService,sans-serif" font-style="normal" font-variant="normal" font-weight="400" font-stretch="normal" font-size="50" text-anchor="start" direction="ltr" writing-mode="lr-tb" unicode-bidi="normal" text-decoration="none" transform="matrix(1 0 0 1 3503.62 1506)">implementation <tspan fill="#A5A5A5" fill-opacity="1" font-family="Calibri,Calibri_MSFontService,sans-serif" font-style="normal" font-variant="normal" font-weight="400" font-stretch="normal" font-size="50" text-anchor="start" direction="ltr" writing-mode="lr-tb" unicode-bidi="normal" text-decoration="none" x="0" y="61">details</tspan><tspan fill="#FFC000" fill-opacity="1" font-family="Calibri,Calibri_MSFontService,sans-serif" font-style="normal" font-variant="normal" font-weight="400" font-stretch="normal" font-size="50" text-anchor="start" direction="ltr" writing-mode="lr-tb" unicode-bidi="normal" text-decoration="none" x="-653.955" y="-395">phase 1</tspan></text><path d="M710 1012.17C710 900.515 800.515 810 912.171 810L2213.83 810C2325.48 810 2416 900.515 2416 1012.17L2416 1820.83C2416 1932.48 2325.48 2023 2213.83 2023L912.171 2023C800.515 2023 710 1932.48 710 1820.83Z" stroke="#FFC000" stroke-width="5.72917" stroke-linecap="butt" stroke-linejoin="round" stroke-miterlimit="10" stroke-dasharray="17.1875 5.72917" stroke-opacity="1" fill="none" fill-rule="evenodd"/><text fill="#FFC000" fill-opacity="1" font-family="Calibri,Calibri_MSFontService,sans-serif" font-style="normal" font-variant="normal" font-weight="400" font-stretch="normal" font-size="50" text-anchor="start" direction="ltr" writing-mode="lr-tb" unicode-bidi="normal" text-decoration="none" transform="matrix(1 0 0 1 1896.95 790)">future phases<tspan fill="#FFFFFF" fill-opacity="1" font-family="Courier New,Courier New_MSFontService,sans-serif" font-style="normal" font-variant="normal" font-weight="700" font-stretch="normal" font-size="41" text-anchor="start" direction="ltr" writing-mode="lr-tb" unicode-bidi="normal" text-decoration="none" x="-1133.01" y="342">resources:</tspan><tspan fill="#FFFFFF" fill-opacity="1" font-family="Courier New,Courier New_MSFontService,sans-serif" font-style="normal" font-variant="normal" font-weight="700" font-stretch="normal" font-size="41" text-anchor="start" direction="ltr" writing-mode="lr-tb" unicode-bidi="normal" text-decoration="none" x="-1083.74" y="392">classes:</tspan><tspan fill="#FFC000" fill-opacity="1" font-family="Courier New,Courier New_MSFontService,sans-serif" font-style="normal" font-variant="normal" font-weight="700" font-stretch="normal" font-size="41" text-anchor="start" direction="ltr" writing-mode="lr-tb" unicode-bidi="normal" text-decoration="none" x="-1034.46" y="491">qos</tspan><tspan fill="#FFC000" fill-opacity="1" font-family="Courier New,Courier New_MSFontService,sans-serif" font-style="normal" font-variant="normal" font-weight="700" font-stretch="normal" font-size="41" text-anchor="start" direction="ltr" writing-mode="lr-tb" unicode-bidi="normal" text-decoration="none" x="-960.559" y="491">-</tspan><tspan fill="#FFC000" fill-opacity="1" font-family="Courier New,Courier New_MSFontService,sans-serif" font-style="normal" font-variant="normal" font-weight="700" font-stretch="normal" font-size="41" text-anchor="start" direction="ltr" writing-mode="lr-tb" unicode-bidi="normal" text-decoration="none" x="-935.923" y="491">res</tspan><tspan fill="#FFC000" fill-opacity="1" font-family="Courier New,Courier New_MSFontService,sans-serif" font-style="normal" font-variant="normal" font-weight="700" font-stretch="normal" font-size="41" text-anchor="start" direction="ltr" writing-mode="lr-tb" unicode-bidi="normal" text-decoration="none" x="-862.017" y="491">-</tspan><tspan fill="#FFC000" fill-opacity="1" font-family="Courier New,Courier New_MSFontService,sans-serif" font-style="normal" font-variant="normal" font-weight="700" font-stretch="normal" font-size="41" text-anchor="start" direction="ltr" writing-mode="lr-tb" unicode-bidi="normal" text-decoration="none" x="-837.382" y="491">a: gold</tspan><tspan fill="#FFC000" fill-opacity="1" font-family="Courier New,Courier New_MSFontService,sans-serif" font-style="normal" font-variant="normal" font-weight="700" font-stretch="normal" font-size="41" text-anchor="start" direction="ltr" writing-mode="lr-tb" unicode-bidi="normal" text-decoration="none" x="-1034.46" y="540">qos</tspan><tspan fill="#FFC000" fill-opacity="1" font-family="Courier New,Courier New_MSFontService,sans-serif" font-style="normal" font-variant="normal" font-weight="700" font-stretch="normal" font-size="41" text-anchor="start" direction="ltr" writing-mode="lr-tb" unicode-bidi="normal" text-decoration="none" x="-960.559" y="540">-</tspan><tspan fill="#FFC000" fill-opacity="1" font-family="Courier New,Courier New_MSFontService,sans-serif" font-style="normal" font-variant="normal" font-weight="700" font-stretch="normal" font-size="41" text-anchor="start" direction="ltr" writing-mode="lr-tb" unicode-bidi="normal" text-decoration="none" x="-935.923" y="540">res</tspan><tspan fill="#FFC000" fill-opacity="1" font-family="Courier New,Courier New_MSFontService,sans-serif" font-style="normal" font-variant="normal" font-weight="700" font-stretch="normal" font-size="41" text-anchor="start" direction="ltr" writing-mode="lr-tb" unicode-bidi="normal" text-decoration="none" x="-862.017" y="540">-</tspan><tspan fill="#FFC000" fill-opacity="1" font-family="Courier New,Courier New_MSFontService,sans-serif" font-style="normal" font-variant="normal" font-weight="700" font-stretch="normal" font-size="41" text-anchor="start" direction="ltr" writing-mode="lr-tb" unicode-bidi="normal" text-decoration="none" x="-837.382" y="540">c: hi</tspan><tspan fill="#FFC000" fill-opacity="1" font-family="Courier New,Courier New_MSFontService,sans-serif" font-style="normal" font-variant="normal" font-weight="700" font-stretch="normal" font-size="41" text-anchor="start" direction="ltr" writing-mode="lr-tb" unicode-bidi="normal" text-decoration="none" x="-714.204" y="540">-</tspan><tspan fill="#FFC000" fill-opacity="1" font-family="Courier New,Courier New_MSFontService,sans-serif" font-style="normal" font-variant="normal" font-weight="700" font-stretch="normal" font-size="41" text-anchor="start" direction="ltr" writing-mode="lr-tb" unicode-bidi="normal" text-decoration="none" x="-689.569" y="540">prio</tspan><tspan fill="#FFFFFF" fill-opacity="1" font-family="Courier New,Courier New_MSFontService,sans-serif" font-style="normal" font-variant="normal" font-weight="700" font-stretch="normal" font-size="37" text-anchor="start" direction="ltr" writing-mode="lr-tb" unicode-bidi="normal" text-decoration="none" x="-1129.63" y="877">capacity:</tspan><tspan fill="#FFC000" fill-opacity="1" font-family="Courier New,Courier New_MSFontService,sans-serif" font-style="normal" font-variant="normal" font-weight="700" font-stretch="normal" font-size="37" text-anchor="start" direction="ltr" writing-mode="lr-tb" unicode-bidi="normal" text-decoration="none" x="-1086.09" y="965">qos</tspan><tspan fill="#FFC000" fill-opacity="1" font-family="Courier New,Courier New_MSFontService,sans-serif" font-style="normal" font-variant="normal" font-weight="700" font-stretch="normal" font-size="37" text-anchor="start" direction="ltr" writing-mode="lr-tb" unicode-bidi="normal" text-decoration="none" x="-1020.78" y="965">-</tspan><tspan fill="#FFC000" fill-opacity="1" font-family="Courier New,Courier New_MSFontService,sans-serif" font-style="normal" font-variant="normal" font-weight="700" font-stretch="normal" font-size="37" text-anchor="start" direction="ltr" writing-mode="lr-tb" unicode-bidi="normal" text-decoration="none" x="-999.009" y="965">res</tspan><tspan fill="#FFC000" fill-opacity="1" font-family="Courier New,Courier New_MSFontService,sans-serif" font-style="normal" font-variant="normal" font-weight="700" font-stretch="normal" font-size="37" text-anchor="start" direction="ltr" writing-mode="lr-tb" unicode-bidi="normal" text-decoration="none" x="-933.697" y="965">-</tspan><tspan fill="#FFC000" fill-opacity="1" font-family="Courier New,Courier New_MSFontService,sans-serif" font-style="normal" font-variant="normal" font-weight="700" font-stretch="normal" font-size="37" text-anchor="start" direction="ltr" writing-mode="lr-tb" unicode-bidi="normal" text-decoration="none" x="-911.926" y="965">a:[gold, silver, bronze]</tspan><tspan fill="#FFC000" fill-opacity="1" font-family="Courier New,Courier New_MSFontService,sans-serif" font-style="normal" font-variant="normal" font-weight="700" font-stretch="normal" font-size="37" text-anchor="start" direction="ltr" writing-mode="lr-tb" unicode-bidi="normal" text-decoration="none" x="-1086.09" y="1009">qos</tspan><tspan fill="#FFC000" fill-opacity="1" font-family="Courier New,Courier New_MSFontService,sans-serif" font-style="normal" font-variant="normal" font-weight="700" font-stretch="normal" font-size="37" text-anchor="start" direction="ltr" writing-mode="lr-tb" unicode-bidi="normal" text-decoration="none" x="-1020.78" y="1009">-</tspan><tspan fill="#FFC000" fill-opacity="1" font-family="Courier New,Courier New_MSFontService,sans-serif" font-style="normal" font-variant="normal" font-weight="700" font-stretch="normal" font-size="37" text-anchor="start" direction="ltr" writing-mode="lr-tb" unicode-bidi="normal" text-decoration="none" x="-999.009" y="1009">res</tspan><tspan fill="#FFC000" fill-opacity="1" font-family="Courier New,Courier New_MSFontService,sans-serif" font-style="normal" font-variant="normal" font-weight="700" font-stretch="normal" font-size="37" text-anchor="start" direction="ltr" writing-mode="lr-tb" unicode-bidi="normal" text-decoration="none" x="-933.697" y="1009">-</tspan><tspan fill="#FFC000" fill-opacity="1" font-family="Courier New,Courier New_MSFontService,sans-serif" font-style="normal" font-variant="normal" font-weight="700" font-stretch="normal" font-size="37" text-anchor="start" direction="ltr" writing-mode="lr-tb" unicode-bidi="normal" text-decoration="none" x="-911.926" y="1009">b:[red, yellow, green]</tspan><tspan fill="#FFC000" fill-opacity="1" font-family="Courier New,Courier New_MSFontService,sans-serif" font-style="normal" font-variant="normal" font-weight="700" font-stretch="normal" font-size="37" text-anchor="start" direction="ltr" writing-mode="lr-tb" unicode-bidi="normal" text-decoration="none" x="-1086.09" y="1053">qos</tspan><tspan fill="#FFC000" fill-opacity="1" font-family="Courier New,Courier New_MSFontService,sans-serif" font-style="normal" font-variant="normal" font-weight="700" font-stretch="normal" font-size="37" text-anchor="start" direction="ltr" writing-mode="lr-tb" unicode-bidi="normal" text-decoration="none" x="-1020.78" y="1053">-</tspan><tspan fill="#FFC000" fill-opacity="1" font-family="Courier New,Courier New_MSFontService,sans-serif" font-style="normal" font-variant="normal" font-weight="700" font-stretch="normal" font-size="37" text-anchor="start" direction="ltr" writing-mode="lr-tb" unicode-bidi="normal" text-decoration="none" x="-999.009" y="1053">res</tspan><tspan fill="#FFC000" fill-opacity="1" font-family="Courier New,Courier New_MSFontService,sans-serif" font-style="normal" font-variant="normal" font-weight="700" font-stretch="normal" font-size="37" text-anchor="start" direction="ltr" writing-mode="lr-tb" unicode-bidi="normal" text-decoration="none" x="-933.697" y="1053">-</tspan><tspan fill="#FFC000" fill-opacity="1" font-family="Courier New,Courier New_MSFontService,sans-serif" font-style="normal" font-variant="normal" font-weight="700" font-stretch="normal" font-size="37" text-anchor="start" direction="ltr" writing-mode="lr-tb" unicode-bidi="normal" text-decoration="none" x="-911.926" y="1053">c:[hi</tspan><tspan fill="#FFC000" fill-opacity="1" font-family="Courier New,Courier New_MSFontService,sans-serif" font-style="normal" font-variant="normal" font-weight="700" font-stretch="normal" font-size="37" text-anchor="start" direction="ltr" writing-mode="lr-tb" unicode-bidi="normal" text-decoration="none" x="-803.072" y="1053">-</tspan><tspan fill="#FFC000" fill-opacity="1" font-family="Courier New,Courier New_MSFontService,sans-serif" font-style="normal" font-variant="normal" font-weight="700" font-stretch="normal" font-size="37" text-anchor="start" direction="ltr" writing-mode="lr-tb" unicode-bidi="normal" text-decoration="none" x="-781.301" y="1053">prio</tspan><tspan fill="#FFC000" fill-opacity="1" font-family="Courier New,Courier New_MSFontService,sans-serif" font-style="normal" font-variant="normal" font-weight="700" font-stretch="normal" font-size="37" text-anchor="start" direction="ltr" writing-mode="lr-tb" unicode-bidi="normal" text-decoration="none" x="-694.217" y="1053">, lo</tspan><tspan fill="#FFC000" fill-opacity="1" font-family="Courier New,Courier New_MSFontService,sans-serif" font-style="normal" font-variant="normal" font-weight="700" font-stretch="normal" font-size="37" text-anchor="start" direction="ltr" writing-mode="lr-tb" unicode-bidi="normal" text-decoration="none" x="-607.134" y="1053">-</tspan><tspan fill="#FFC000" fill-opacity="1" font-family="Courier New,Courier New_MSFontService,sans-serif" font-style="normal" font-variant="normal" font-weight="700" font-stretch="normal" font-size="37" text-anchor="start" direction="ltr" writing-mode="lr-tb" unicode-bidi="normal" text-decoration="none" x="-585.363" y="1053">prio</tspan><tspan fill="#FFC000" fill-opacity="1" font-family="Courier New,Courier New_MSFontService,sans-serif" font-style="normal" font-variant="normal" font-weight="700" font-stretch="normal" font-size="37" text-anchor="start" direction="ltr" writing-mode="lr-tb" unicode-bidi="normal" text-decoration="none" x="-498.28" y="1053">]</tspan></text></g></svg>